<svg xmlns="http://www.w3.org/2000/svg" viewBox="0 0 800 800"><defs><style>.cls-1{fill:#d9d9d9;opacity:0.25;}.cls-1,.cls-3,.cls-4{isolation:isolate;}.cls-2{fill-opacity:0.2;}.cls-3{fill:#2d2d2d;opacity:0.2;}.cls-4{fill:none;stroke:#e57e7c;stroke-miterlimit:10;stroke-width:3px;}.cls-5{fill:#e57e7c;}.cls-6{fill:#253031;}</style></defs><title>damage_annotated</title><g id="Layer_5" data-name="Layer 5"><g id="def_grid" data-name="def grid"><circle class="cls-1" cx="399.51" cy="395.25" r="182.05"/><circle class="cls-1" cx="399.51" cy="395.25" r="133.04"/><circle class="cls-1" cx="399.51" cy="395.25" r="84.02"/><circle class="cls-1" cx="399.51" cy="395.25" r="57.07"/></g><g id="data_viz" data-name="data viz"><path class="cls-2" d="M399.51,213.2a182.05,182.05,0,1,1-182,182.05,182.05,182.05,0,0,1,182-182m0,0a182.05,182.05,0,1,0,182,182.05A182,182,0,0,0,399.51,213.2Z"/><path class="cls-2" d="M399.51,213.2a182.05,182.05,0,1,1-182,182.05,182.05,182.05,0,0,1,182-182m0,0a182.05,182.05,0,1,0,182,182.05A182,182,0,0,0,399.51,213.2Z"/><path class="cls-2" d="M399.51,213.2a182.05,182.05,0,1,1-182,182.05,182.05,182.05,0,0,1,182-182m0,43.13A138.92,138.92,0,1,0,538.43,395.25,138.92,138.92,0,0,0,399.51,256.33Z"/><path class="cls-2" d="M399.51,213.2a182.05,182.05,0,1,1-182,182.05,182.05,182.05,0,0,1,182-182m0,43.13A138.92,138.92,0,1,0,538.43,395.25,138.92,138.92,0,0,0,399.51,256.33Z"/><path class="cls-2" d="M399.51,213.2a182.05,182.05,0,1,1-182,182.05,182.05,182.05,0,0,1,182-182m0,49a133,133,0,0,0,0,266.08h0a133,133,0,1,0,0-266.08Z"/><path class="cls-3" d="M447.1,171.34a177.52,177.52,0,0,1,44.33,17.44c13.56,7.57,25.42,18.36,37.66,28.12,12,9.6,24.47,19,35.26,29.93s22,22.77,29.76,36.07,13.09,28.69,16.52,43.75c3.38,14.87,2.35,30.7,4,46s7.92,31,6.17,45.87-12.71,28.4-16.75,43.22c-4.17,15.31-1.41,33.09-7.57,47.27s-18.1,26.21-29,37.54S544.77,569,531.41,576.79s-29.12,11.07-43.66,16.66c-14.21,5.47-28.07,12.09-42.6,16.53-14.87,4.55-30.57,10.82-45.64,10.29s-30-9-45-13.52c-14.47-4.35-29.11-8.18-43.42-13-14.78-5-31.19-8.07-43.81-16.55s-22.25-22-31.84-34.25c-9.43-12-17.63-25.14-25.32-38.37a363.13,363.13,0,0,1-20.84-41c-6.1-14.43-12-29.35-15.16-44.61-3.21-15.52-5.25-32.11-3.72-47.76s7.73-31.08,12.91-46.16,9.15-31.45,18-44.16,23.75-21.26,35.36-32.16c11.18-10.5,21-22.69,33.05-32s25.46-18.22,39.57-23.93,30.17-6.09,44.92-10.32c15.32-4.4,29.74-13.89,45.23-15.74s32.24.93,47.59,4.62M312.21,199.18a214.8,214.8,0,1,0,42.68-13.86,216.7,216.7,0,0,0-42.68,13.86"/><path class="cls-3" d="M474.27,43.51c26.18-3.61,57.94-7.21,80.43,3.17s39.43,37.68,54.74,59.62c14.5,20.77,23.19,45.55,35.62,67.86,11.14,20,19.86,42.63,34.77,59.25C698.45,254.15,743,259,751.2,281c7.79,20.89-22.74,54.67-18.91,79.29,4.24,27.3,51.33,50.64,50.07,75.22-1.17,23-41.46,42.3-50.65,67.7-8.8,24.34,6.53,59.33-5.22,80.84-11.61,21.26-42.7,32-64.15,47.88-19.7,14.58-40.56,27.77-59.28,43.51-19.5,16.4-33.17,44.2-55.11,53.24-22.17,9.13-51.62.78-77.43.7-23.67-.09-48.17-5-71-1.05C372.45,733,347,762.63,321.84,760.65c-23.29-1.84-46-24.5-67.89-38.46-20.89-13.32-41-28.06-60.69-43.07C173.69,664.23,154,649.23,136,632.51c-18.45-17.15-37-35-51.86-55.18-15.09-20.59-34-43.69-37.56-67.4-3.8-25.11,22-54.39,18.62-79.54-3.51-26.4-44.72-51.79-42.1-74.7,2.66-23.2,49-38.26,59.21-63.5,9.09-22.6-2.19-53.07,4.28-77.6s20.08-48.68,34.7-69.85c14.86-21.53,32.23-45.18,54.05-58,22.18-13,53.25-9.84,78.32-19,23.93-8.78,45.74-33.14,69-34.14,25.35-1.08,50.72,32.82,76.89,33.86,24.45,1,49.24-20.36,74.76-23.88M268.92,101.94A321.08,321.08,0,0,0,121.45,555.79,321.09,321.09,0,0,0,530.1,688.57a321.1,321.1,0,0,0,108-508.16,321.07,321.07,0,0,0-369.19-78.47"/><path class="cls-3" d="M479.14,20.63C503.51,29,508.7,80.07,533.28,94.79c20,12,50.28,6.64,72.85,16.07,22.89,9.57,48.2,22.68,63.38,41.28,15.34,18.78,21.71,46.64,27.83,71.16,5.82,23.37-1,52.11,8.86,72.3,13.06,26.63,71.63,35.36,75.41,59.49,3.41,21.8-33.35,48.8-42,75.9-7.22,22.52-8.83,47.41-10.65,71.29-2.11,27.68,13.16,64.85.63,83.52-13.71,20.44-63.83,10.59-86.94,28.34-17.92,13.77-24.69,43.36-43.16,56.31s-49.13,8.92-67.9,21.37c-24.11,16-28.69,64.26-53.2,74.37-21.2,8.75-53.26-1.2-78.84-6.73-24.68-5.34-47.71-17.89-72.06-25.2-23.32-7-48.2-9.46-70.86-18-22.91-8.64-49.62-17-65.79-33.73-17-17.54-17.29-49.82-31.85-70.67-13.06-18.7-33.3-32.32-48.7-49.6C93.81,543.8,75,525.86,63.8,504.33S41.18,455.8,43,432.72c1.92-24.63,31.86-46.17,35.59-71.2,3.52-23.57-15.34-50.86-11-74.14,4.16-22.55,22.13-43.15,34.93-63.64,12.67-20.27,23.67-43.82,41.38-58.71,18-15.1,49.7-15.2,66-30.86,21-20.18,12.93-76.17,34.59-87.28,19.67-10.09,56.64,16.86,84.07,14.21,24.13-2.32,47-17.5,71-24.1,26.08-7.15,58-23.76,79.63-16.37M268.92,101.94A321.08,321.08,0,0,0,121.45,555.79,321.09,321.09,0,0,0,530.1,688.57a321.1,321.1,0,0,0,108-508.16,321.07,321.07,0,0,0-369.19-78.47"/></g></g><g id="annotations"><path class="cls-4" d="M437.45,216.16A180.45,180.45,0,0,1,473.78,228a194.07,194.07,0,0,1,61.45,44.7,182.17,182.17,0,0,1,38.07,65.76,185.56,185.56,0,0,1,7.77,37.4,182.59,182.59,0,0,1,.14,38.19,197,197,0,0,1-23.46,72.3,180.64,180.64,0,0,1-22.53,30.85,186.62,186.62,0,0,1-28.41,25.53,180.8,180.8,0,0,1-33,19.17,183.67,183.67,0,0,1-36.4,11.53,191.08,191.08,0,0,1-37.93,4,183.7,183.7,0,0,1-38-3.68A178.08,178.08,0,0,1,325.08,562a196.1,196.1,0,0,1-61.46-44.73,179.74,179.74,0,0,1-22.41-30.94A187,187,0,0,1,217.85,414a187.37,187.37,0,0,1,0-38.18,183.5,183.5,0,0,1,7.71-37.41,180.49,180.49,0,0,1,15.6-34.88,185.27,185.27,0,0,1,120.3-87.34,185.86,185.86,0,0,1,76-.05m-112.21,12.1a182.4,182.4,0,1,0,36.27-11.79,183.34,183.34,0,0,0-36.27,11.79"/><polygon class="cls-5" points="423.4 392.38 493.36 354.29 493.36 366.09 582.2 366.09 582.2 418.7 493.39 418.7 493.4 430.4 423.4 392.38"/><polygon class="cls-5" points="706.13 391.91 649.5 329.26 649.49 348.66 577.56 348.66 577.56 435.2 649.46 435.2 649.46 454.43 706.13 391.91"/><path class="cls-6" d="M600,379.46h2.42l9.24,22.62h-3.06l-2.68-6.63h-9.49l-2.65,6.63h-3.05Zm5.29,13.76-4.08-10.45L597,393.22Z"/><path class="cls-6" d="M622.06,401.25l-.67.3a9.91,9.91,0,0,1-.94.35,8.39,8.39,0,0,1-1.15.29,7.65,7.65,0,0,1-1.29.11,4.25,4.25,0,0,1-2.64-.84,3.08,3.08,0,0,1-1.12-2.63V387.65H612v-2.2h2.26V379.9h2.81v5.55h3.72v2.2h-3.72V398a1.75,1.75,0,0,0,.6,1.34,2.08,2.08,0,0,0,1.28.41,4.1,4.1,0,0,0,1.51-.27,6,6,0,0,0,.94-.43Z"/><path class="cls-6" d="M633.27,401.25l-.67.3a9,9,0,0,1-.94.35,8.61,8.61,0,0,1-1.14.29,7.86,7.86,0,0,1-1.3.11,4.27,4.27,0,0,1-2.64-.84,3.1,3.1,0,0,1-1.11-2.63V387.65H623.2v-2.2h2.27V379.9h2.8v5.55H632v2.2h-3.73V398a1.72,1.72,0,0,0,.61,1.34,2.05,2.05,0,0,0,1.27.41,4.06,4.06,0,0,0,1.51-.27,6,6,0,0,0,.94-.43Z"/><path class="cls-6" d="M640.15,402.4a6.14,6.14,0,0,1-2.2-.4,5.36,5.36,0,0,1-1.76-1.1,5.16,5.16,0,0,1-1.18-1.64,4.84,4.84,0,0,1-.43-2.06,4.27,4.27,0,0,1,.51-2.08,4.63,4.63,0,0,1,1.45-1.61,7.19,7.19,0,0,1,2.23-1.05,9.71,9.71,0,0,1,2.82-.39,13.8,13.8,0,0,1,2.45.23,11.83,11.83,0,0,1,2.2.6v-1.34a4,4,0,0,0-4.4-4.36,9.34,9.34,0,0,0-5.29,1.94l-.92-1.81a11.45,11.45,0,0,1,6.47-2.17,7.09,7.09,0,0,1,5.11,1.75,6.53,6.53,0,0,1,1.83,4.94v6.79c0,.65.3,1,.89,1v2.42l-.73.09a5.79,5.79,0,0,1-.61,0,1.78,1.78,0,0,1-1.32-.49,2.08,2.08,0,0,1-.59-1.19l-.06-1.18a7.22,7.22,0,0,1-2.82,2.28A8.67,8.67,0,0,1,640.15,402.4Zm.73-2.11a7,7,0,0,0,2.79-.55,4.61,4.61,0,0,0,2-1.49,1.73,1.73,0,0,0,.61-1.24v-2.45a11.57,11.57,0,0,0-4.24-.8,6,6,0,0,0-3.42.89,2.7,2.7,0,0,0-1.33,2.33,3.1,3.1,0,0,0,1,2.36,3.74,3.74,0,0,0,1.16.7A4,4,0,0,0,640.88,400.29Z"/><path class="cls-6" d="M652.42,393.73a9.13,9.13,0,0,1,.6-3.31,8.38,8.38,0,0,1,1.72-2.73,8.24,8.24,0,0,1,6.12-2.53,8.1,8.1,0,0,1,4.29,1.1,7.16,7.16,0,0,1,2.72,2.95l-2.74.86a4.59,4.59,0,0,0-1.79-1.84,5.08,5.08,0,0,0-2.54-.65,5.31,5.31,0,0,0-2.17.46,5.21,5.21,0,0,0-1.75,1.29,6.45,6.45,0,0,0-1.17,1.95,6.89,6.89,0,0,0-.42,2.45,6.62,6.62,0,0,0,.44,2.45,6.48,6.48,0,0,0,1.2,2,5.29,5.29,0,0,0,1.75,1.33,4.9,4.9,0,0,0,2.15.47,5.13,5.13,0,0,0,1.45-.2,5.67,5.67,0,0,0,1.3-.56,4.67,4.67,0,0,0,1-.81,2.83,2.83,0,0,0,.64-1l2.74.83a5.9,5.9,0,0,1-1.07,1.69,6.65,6.65,0,0,1-1.61,1.31,8.77,8.77,0,0,1-2.05.86,8.88,8.88,0,0,1-2.38.32,8.3,8.3,0,0,1-7.85-5.34A9.08,9.08,0,0,1,652.42,393.73Z"/><path class="cls-6" d="M682.91,402.08,677.17,394,674,397v5.13h-2.81V378.82H674v15.29l8.53-8.63h3.09L679,392.36l6.94,9.72Z"/><path class="cls-6" d="M459.35,402.08V379.46h7.84a11.79,11.79,0,0,1,4.76.89,9.73,9.73,0,0,1,3.43,2.42,10.15,10.15,0,0,1,2.05,3.58,13.73,13.73,0,0,1,.68,4.39,13.44,13.44,0,0,1-.76,4.66,10,10,0,0,1-2.2,3.57,9.79,9.79,0,0,1-3.45,2.29,11.88,11.88,0,0,1-4.51.82Zm15.87-11.34a11.36,11.36,0,0,0-.53-3.53,7.51,7.51,0,0,0-1.56-2.75,7.21,7.21,0,0,0-2.53-1.8,8.4,8.4,0,0,0-3.41-.65h-5v17.52h5a8.36,8.36,0,0,0,3.45-.67,6.94,6.94,0,0,0,2.52-1.85,8,8,0,0,0,1.53-2.79A11.13,11.13,0,0,0,475.22,390.74Z"/><path class="cls-6" d="M489.07,402.4a8.42,8.42,0,0,1-3.44-.69,8.21,8.21,0,0,1-2.67-1.86,8.57,8.57,0,0,1-1.74-2.76,9.08,9.08,0,0,1-.62-3.33,8.93,8.93,0,0,1,.62-3.31,8.61,8.61,0,0,1,1.75-2.74,8.32,8.32,0,0,1,2.7-1.87,8.55,8.55,0,0,1,3.44-.68,8.14,8.14,0,0,1,3.42.7,8,8,0,0,1,4.3,4.57,9,9,0,0,1,.59,3.2,6.32,6.32,0,0,1,0,.64,3.93,3.93,0,0,1,0,.45h-13.8a6.54,6.54,0,0,0,.58,2.26,5.67,5.67,0,0,0,1.24,1.75,5.87,5.87,0,0,0,1.73,1.15,5.16,5.16,0,0,0,2.06.41,5.83,5.83,0,0,0,1.5-.2,6.91,6.91,0,0,0,1.37-.56,5,5,0,0,0,1.13-.86,3.46,3.46,0,0,0,.75-1.15l2.42.67a6.1,6.1,0,0,1-1.13,1.69,7.43,7.43,0,0,1-1.66,1.32,8.53,8.53,0,0,1-2.09.88A9,9,0,0,1,489.07,402.4Zm5.71-9.75a6.13,6.13,0,0,0-.59-2.19,6,6,0,0,0-1.25-1.7,5.44,5.44,0,0,0-1.73-1.1,5.74,5.74,0,0,0-4.21,0,5.43,5.43,0,0,0-1.73,1.12,5.36,5.36,0,0,0-1.21,1.7,6.15,6.15,0,0,0-.56,2.17Z"/><path class="cls-6" d="M501.24,402.08V387.65H499v-2.2h2.26v-.35a7.73,7.73,0,0,1,1.37-4.85,4.51,4.51,0,0,1,3.73-1.75,7,7,0,0,1,1.94.27,6.54,6.54,0,0,1,1.72.75l-.7,2.07a3.62,3.62,0,0,0-1.1-.51,4.8,4.8,0,0,0-1.29-.19,2.44,2.44,0,0,0-2.13,1.05,5.32,5.32,0,0,0-.73,3.06v.45h4.43v2.2h-4.43v14.43Z"/><path class="cls-6" d="M518.26,402.4a8.44,8.44,0,0,1-3.45-.69,8.21,8.21,0,0,1-2.67-1.86,8.74,8.74,0,0,1-1.74-2.76,9.08,9.08,0,0,1-.62-3.33,8.93,8.93,0,0,1,.62-3.31,8.61,8.61,0,0,1,1.75-2.74,8.43,8.43,0,0,1,2.7-1.87,8.55,8.55,0,0,1,3.44-.68,8.14,8.14,0,0,1,3.42.7,8,8,0,0,1,4.3,4.57,8.77,8.77,0,0,1,.59,3.2c0,.24,0,.45,0,.64a3.58,3.58,0,0,1-.05.45h-13.8a6.54,6.54,0,0,0,.58,2.26,5.74,5.74,0,0,0,3,2.9,5.07,5.07,0,0,0,2.05.41,5.83,5.83,0,0,0,1.5-.2,6.91,6.91,0,0,0,1.37-.56,5,5,0,0,0,1.13-.86,3.46,3.46,0,0,0,.75-1.15l2.42.67a6.1,6.1,0,0,1-1.13,1.69,7.43,7.43,0,0,1-1.66,1.32,8.62,8.62,0,0,1-2.08.88A9.06,9.06,0,0,1,518.26,402.4Zm5.7-9.75a6,6,0,0,0-1.83-3.89,5.6,5.6,0,0,0-1.74-1.1,5.68,5.68,0,0,0-2.1-.4,5.61,5.61,0,0,0-2.1.4,5.5,5.5,0,0,0-3,2.82,6.15,6.15,0,0,0-.56,2.17Z"/><path class="cls-6" d="M544.16,402.08h-2.81v-9.31a7.17,7.17,0,0,0-.81-3.88,2.76,2.76,0,0,0-2.47-1.21,4.77,4.77,0,0,0-1.72.33,6.85,6.85,0,0,0-1.62.91,6.23,6.23,0,0,0-1.34,1.37,5.83,5.83,0,0,0-.86,1.75v10h-2.81V385.45h2.55V389a7.38,7.38,0,0,1,2.85-2.8,8.17,8.17,0,0,1,4.07-1,4.83,4.83,0,0,1,2.39.53,4.09,4.09,0,0,1,1.52,1.46,6.44,6.44,0,0,1,.82,2.22,14.89,14.89,0,0,1,.24,2.77Z"/><path class="cls-6" d="M554.35,402.4a12.74,12.74,0,0,1-4-.63,9.5,9.5,0,0,1-3.34-1.8l1.21-1.88a11.41,11.41,0,0,0,2.93,1.68,8.6,8.6,0,0,0,3.09.56,5.07,5.07,0,0,0,2.88-.72,2.31,2.31,0,0,0,1.07-2,1.83,1.83,0,0,0-.29-1,2.37,2.37,0,0,0-.86-.75,7.17,7.17,0,0,0-1.46-.57q-.9-.25-2.07-.54c-1-.26-1.86-.5-2.59-.74a7.22,7.22,0,0,1-1.78-.82,2.92,2.92,0,0,1-1-1.15,3.9,3.9,0,0,1-.32-1.66,4.71,4.71,0,0,1,1.85-3.84,6.35,6.35,0,0,1,2-1,9.16,9.16,0,0,1,2.5-.33,9.81,9.81,0,0,1,3.51.61,8.52,8.52,0,0,1,2.74,1.59l-1.28,1.69a7.1,7.1,0,0,0-2.35-1.39,8,8,0,0,0-2.68-.46,4.94,4.94,0,0,0-2.6.65,2.27,2.27,0,0,0-1.06,2.09,1.94,1.94,0,0,0,.2.95,1.78,1.78,0,0,0,.69.67,5.67,5.67,0,0,0,1.22.51c.5.15,1.1.31,1.81.48q1.65.39,2.88.78a8.45,8.45,0,0,1,2,.94,3.67,3.67,0,0,1,1.21,1.28,3.74,3.74,0,0,1,.4,1.78,4.44,4.44,0,0,1-1.79,3.7A7.72,7.72,0,0,1,554.35,402.4Z"/><path class="cls-6" d="M571.62,402.4a8.34,8.34,0,0,1-6.12-2.55,8.54,8.54,0,0,1-1.73-2.76,8.88,8.88,0,0,1-.63-3.33,8.74,8.74,0,0,1,.63-3.31,8.32,8.32,0,0,1,4.44-4.61,8.59,8.59,0,0,1,3.44-.68,8.13,8.13,0,0,1,6.05,2.56,8.3,8.3,0,0,1,1.68,2.71,9,9,0,0,1,.59,3.2c0,.24,0,.45,0,.64a3.58,3.58,0,0,1-.05.45H566.11a6.32,6.32,0,0,0,.57,2.26,5.74,5.74,0,0,0,3,2.9,5.11,5.11,0,0,0,2.05.41,5.83,5.83,0,0,0,1.5-.2,6.67,6.67,0,0,0,1.37-.56,4.82,4.82,0,0,0,1.13-.86,3.46,3.46,0,0,0,.75-1.15l2.42.67a5.89,5.89,0,0,1-1.13,1.69,7.6,7.6,0,0,1-1.65,1.32,8.7,8.7,0,0,1-2.09.88A9,9,0,0,1,571.62,402.4Zm5.7-9.75a6,6,0,0,0-1.83-3.89,5.62,5.62,0,0,0-3.84-1.5,5.68,5.68,0,0,0-2.1.4,5.5,5.5,0,0,0-2.95,2.82,6.37,6.37,0,0,0-.56,2.17Z"/><path class="cls-5" d="M402.48,397.13l-.69-21.62-.53-21.62c-.16-7.2-.38-14.41-.6-21.61s.08-14.41.49-21.62h3.06c.42,7.21.67,14.41.5,21.62s-.44,14.41-.6,21.61l-.54,21.62-.69,21.62Z"/><polygon class="cls-5" points="402.68 296.26 410.98 316.56 402.68 311.74 394.39 316.56 402.68 296.26"/><path class="cls-6" d="M323.82,345.14v19.39h-2.45v-8.82H310.69v8.82h-2.46V345.14h2.46v8.39h10.68v-8.39Z"/><path class="cls-6" d="M334.15,364.8a7.26,7.26,0,0,1-2.95-.58,7,7,0,0,1-2.3-1.6,7.46,7.46,0,0,1-1.49-2.36,7.85,7.85,0,0,1-.53-2.86,7.74,7.74,0,0,1,.53-2.84,7.34,7.34,0,0,1,1.51-2.35,7.07,7.07,0,0,1,2.3-1.59,7.33,7.33,0,0,1,2.95-.59,7,7,0,0,1,2.94.6,6.92,6.92,0,0,1,2.25,1.6,7.09,7.09,0,0,1,1.44,2.32,7.77,7.77,0,0,1,.5,2.74c0,.2,0,.39,0,.55s0,.29,0,.38H329.42a5.71,5.71,0,0,0,.49,1.94,5.11,5.11,0,0,0,1.07,1.5,5,5,0,0,0,1.49,1,4.53,4.53,0,0,0,1.76.35,4.65,4.65,0,0,0,1.28-.18,5.29,5.29,0,0,0,1.18-.47,4.1,4.1,0,0,0,1-.74,3,3,0,0,0,.65-1l2.07.57a5.12,5.12,0,0,1-1,1.45,6.6,6.6,0,0,1-1.42,1.13,7,7,0,0,1-1.79.75A7.61,7.61,0,0,1,334.15,364.8Zm4.88-8.35a5,5,0,0,0-.5-1.87,4.84,4.84,0,0,0-1.07-1.46,4.75,4.75,0,0,0-1.48-.95,5,5,0,0,0-3.61,0,4.76,4.76,0,0,0-1.49,1,5,5,0,0,0-1,1.46,5.31,5.31,0,0,0-.47,1.86Z"/><path class="cls-6" d="M347.64,364.8a5.08,5.08,0,0,1-1.89-.34,4.65,4.65,0,0,1-1.51-.94,4.29,4.29,0,0,1-1-1.41,4.08,4.08,0,0,1-.37-1.76,3.73,3.73,0,0,1,.43-1.79,4.19,4.19,0,0,1,1.25-1.38,6.38,6.38,0,0,1,1.91-.9,8.41,8.41,0,0,1,2.41-.32,11.66,11.66,0,0,1,2.11.19,9,9,0,0,1,1.88.52v-1.15a3.42,3.42,0,0,0-3.77-3.74,7.94,7.94,0,0,0-4.53,1.66l-.79-1.55A9.83,9.83,0,0,1,349.3,350a6.06,6.06,0,0,1,4.38,1.5,5.56,5.56,0,0,1,1.57,4.23v5.82c0,.57.26.86.77.88v2.07l-.63.08a4.28,4.28,0,0,1-.52,0,1.53,1.53,0,0,1-1.13-.42,1.84,1.84,0,0,1-.51-1l-.05-1a6.06,6.06,0,0,1-2.42,1.95A7.32,7.32,0,0,1,347.64,364.8Zm.62-1.8a5.9,5.9,0,0,0,2.39-.48,3.83,3.83,0,0,0,1.68-1.27,1.49,1.49,0,0,0,.52-1.06v-2.1a9.76,9.76,0,0,0-3.63-.69,5.18,5.18,0,0,0-2.94.77,2.32,2.32,0,0,0-1.13,2,2.8,2.8,0,0,0,.23,1.12,2.69,2.69,0,0,0,.66.9,2.92,2.92,0,0,0,1,.6A3.39,3.39,0,0,0,348.26,363Z"/><path class="cls-6" d="M359.16,344.6h2.4v16.24a1.73,1.73,0,0,0,.43,1.25,1.53,1.53,0,0,0,1.18.45,3.44,3.44,0,0,0,.71-.1,5.36,5.36,0,0,0,.77-.23l.38,1.94a8.1,8.1,0,0,1-1.42.41,7.44,7.44,0,0,1-1.45.16,2.76,2.76,0,0,1-3-3Z"/><path class="cls-6" d="M374.29,363.82l-.58.26c-.23.1-.5.2-.8.3a8.23,8.23,0,0,1-1,.25,6.74,6.74,0,0,1-1.11.09,3.68,3.68,0,0,1-2.27-.72,2.66,2.66,0,0,1-.95-2.25v-9.59h-1.94v-1.88h1.94v-4.76H370v4.76h3.2v1.88H370V361a1.47,1.47,0,0,0,.52,1.14,1.72,1.72,0,0,0,1.09.36,3.62,3.62,0,0,0,1.3-.23,6,6,0,0,0,.8-.37Z"/><path class="cls-6" d="M388.9,364.53h-2.41v-8a5.71,5.71,0,0,0-.76-3.29,2.58,2.58,0,0,0-2.24-1.08,3.78,3.78,0,0,0-1.42.28,5.34,5.34,0,0,0-1.32.78,5.64,5.64,0,0,0-1.1,1.18,5,5,0,0,0-.72,1.5v8.6h-2.4V344.6h2.4v8.73a6.38,6.38,0,0,1,2.29-2.43,6,6,0,0,1,3.17-.87,4.47,4.47,0,0,1,2.13.46,3.68,3.68,0,0,1,1.39,1.26,5.32,5.32,0,0,1,.75,1.9,11.1,11.1,0,0,1,.24,2.36Z"/></g></svg>