<svg xmlns="http://www.w3.org/2000/svg" viewBox="0 0 800 800"><defs><style>.cls-1{fill:#d9d9d9;opacity:0.25;}.cls-1,.cls-3,.cls-4{isolation:isolate;}.cls-2{fill-opacity:0.2;}.cls-3{fill:#2d2d2d;opacity:0.2;}.cls-4{fill:none;stroke:#e57e7c;stroke-miterlimit:10;stroke-width:3px;}.cls-5{fill:#e57e7c;}.cls-6{font-size:31.86px;}.cls-10,.cls-6{fill:#253031;font-family:Raleway-Medium, Raleway;}.cls-7{letter-spacing:-0.02em;}.cls-8{letter-spacing:-0.01em;}.cls-9{letter-spacing:-0.01em;}.cls-10{font-size:27.31px;}.cls-11{letter-spacing:-0.01em;}</style></defs><title>damage_annotated</title><g id="Layer_5" data-name="Layer 5"><g id="def_grid" data-name="def grid"><circle class="cls-1" cx="399.51" cy="395.25" r="182.05"/><circle class="cls-1" cx="399.51" cy="395.25" r="133.04"/><circle class="cls-1" cx="399.51" cy="395.25" r="84.02"/><circle class="cls-1" cx="399.51" cy="395.25" r="57.07"/></g><g id="data_viz" data-name="data viz"><path class="cls-2" d="M399.51,213.2a182.05,182.05,0,1,1-182,182.05,182.05,182.05,0,0,1,182-182m0,0a182.05,182.05,0,1,0,182,182.05A182,182,0,0,0,399.51,213.2Z"/><path class="cls-2" d="M399.51,213.2a182.05,182.05,0,1,1-182,182.05,182.05,182.05,0,0,1,182-182m0,0a182.05,182.05,0,1,0,182,182.05A182,182,0,0,0,399.51,213.2Z"/><path class="cls-2" d="M399.51,213.2a182.05,182.05,0,1,1-182,182.05,182.05,182.05,0,0,1,182-182m0,43.13A138.92,138.92,0,1,0,538.43,395.25,138.92,138.92,0,0,0,399.51,256.33Z"/><path class="cls-2" d="M399.51,213.2a182.05,182.05,0,1,1-182,182.05,182.05,182.05,0,0,1,182-182m0,43.13A138.92,138.92,0,1,0,538.43,395.25,138.92,138.92,0,0,0,399.51,256.33Z"/><path class="cls-2" d="M399.51,213.2a182.05,182.05,0,1,1-182,182.05,182.05,182.05,0,0,1,182-182m0,49a133,133,0,0,0,0,266.08h0a133,133,0,1,0,0-266.08Z"/><path class="cls-3" d="M447.1,171.34a177.52,177.52,0,0,1,44.33,17.44c13.56,7.57,25.42,18.36,37.66,28.12,12,9.6,24.47,19,35.26,29.93s22,22.77,29.76,36.07,13.09,28.69,16.52,43.75c3.38,14.87,2.35,30.7,4,46s7.92,31,6.17,45.87-12.71,28.4-16.75,43.22c-4.17,15.31-1.41,33.09-7.57,47.27s-18.1,26.21-29,37.54S544.77,569,531.41,576.79s-29.12,11.07-43.66,16.66c-14.21,5.47-28.07,12.09-42.6,16.53-14.87,4.55-30.57,10.82-45.64,10.29s-30-9-45-13.52c-14.47-4.35-29.11-8.18-43.42-13-14.78-5-31.19-8.07-43.81-16.55s-22.25-22-31.84-34.25c-9.43-12-17.63-25.14-25.32-38.37a363.13,363.13,0,0,1-20.84-41c-6.1-14.43-12-29.35-15.16-44.61-3.21-15.52-5.25-32.11-3.72-47.76s7.73-31.08,12.91-46.16,9.15-31.45,18-44.16,23.75-21.26,35.36-32.16c11.18-10.5,21-22.69,33.05-32s25.46-18.22,39.57-23.93,30.17-6.09,44.92-10.32c15.32-4.4,29.74-13.89,45.23-15.74s32.24.93,47.59,4.62M312.21,199.18a214.8,214.8,0,1,0,42.68-13.86,216.7,216.7,0,0,0-42.68,13.86"/><path class="cls-3" d="M474.27,43.51c26.18-3.61,57.94-7.21,80.43,3.17s39.43,37.68,54.74,59.62c14.5,20.77,23.19,45.55,35.62,67.86,11.14,20,19.86,42.63,34.77,59.25C698.45,254.15,743,259,751.2,281c7.79,20.89-22.74,54.67-18.91,79.29,4.24,27.3,51.33,50.64,50.07,75.22-1.17,23-41.46,42.3-50.65,67.7-8.8,24.34,6.53,59.33-5.22,80.84-11.61,21.26-42.7,32-64.15,47.88-19.7,14.58-40.56,27.77-59.28,43.51-19.5,16.4-33.17,44.2-55.11,53.24-22.17,9.13-51.62.78-77.43.7-23.67-.09-48.17-5-71-1.05C372.45,733,347,762.63,321.84,760.65c-23.29-1.84-46-24.5-67.89-38.46-20.89-13.32-41-28.06-60.69-43.07C173.69,664.23,154,649.23,136,632.51c-18.45-17.15-37-35-51.86-55.18-15.09-20.59-34-43.69-37.56-67.4-3.8-25.11,22-54.39,18.62-79.54-3.51-26.4-44.72-51.79-42.1-74.7,2.66-23.2,49-38.26,59.21-63.5,9.09-22.6-2.19-53.07,4.28-77.6s20.08-48.68,34.7-69.85c14.86-21.53,32.23-45.18,54.05-58,22.18-13,53.25-9.84,78.32-19,23.93-8.78,45.74-33.14,69-34.14,25.35-1.08,50.72,32.82,76.89,33.86,24.45,1,49.24-20.36,74.76-23.88M268.92,101.94A321.08,321.08,0,0,0,121.45,555.79,321.09,321.09,0,0,0,530.1,688.57a321.1,321.1,0,0,0,108-508.16,321.07,321.07,0,0,0-369.19-78.47"/><path class="cls-3" d="M479.14,20.63C503.51,29,508.7,80.07,533.28,94.79c20,12,50.28,6.64,72.85,16.07,22.89,9.57,48.2,22.68,63.38,41.28,15.34,18.78,21.71,46.64,27.83,71.16,5.82,23.37-1,52.11,8.86,72.3,13.06,26.63,71.63,35.36,75.41,59.49,3.41,21.8-33.35,48.8-42,75.9-7.22,22.52-8.83,47.41-10.65,71.29-2.11,27.68,13.16,64.85.63,83.52-13.71,20.44-63.83,10.59-86.94,28.34-17.92,13.77-24.69,43.36-43.16,56.31s-49.13,8.92-67.9,21.37c-24.11,16-28.69,64.26-53.2,74.37-21.2,8.75-53.26-1.2-78.84-6.73-24.68-5.34-47.71-17.89-72.06-25.2-23.32-7-48.2-9.46-70.86-18-22.91-8.64-49.62-17-65.79-33.73-17-17.54-17.29-49.82-31.85-70.67-13.06-18.7-33.3-32.32-48.7-49.6C93.81,543.8,75,525.86,63.8,504.33S41.18,455.8,43,432.72c1.92-24.63,31.86-46.17,35.59-71.2,3.52-23.57-15.34-50.86-11-74.14,4.16-22.55,22.13-43.15,34.93-63.64,12.67-20.27,23.67-43.82,41.38-58.71,18-15.1,49.7-15.2,66-30.86,21-20.18,12.93-76.17,34.59-87.28,19.67-10.09,56.64,16.86,84.07,14.21,24.13-2.32,47-17.5,71-24.1,26.08-7.15,58-23.76,79.63-16.37M268.92,101.94A321.08,321.08,0,0,0,121.45,555.79,321.09,321.09,0,0,0,530.1,688.57a321.1,321.1,0,0,0,108-508.16,321.07,321.07,0,0,0-369.19-78.47"/></g></g><g id="annotations"><path class="cls-4" d="M437.45,216.16A180.45,180.45,0,0,1,473.78,228a194.07,194.07,0,0,1,61.45,44.7,182.17,182.17,0,0,1,38.07,65.76,185.56,185.56,0,0,1,7.77,37.4,182.59,182.59,0,0,1,.14,38.19,197,197,0,0,1-23.46,72.3,180.64,180.64,0,0,1-22.53,30.85,186.62,186.62,0,0,1-28.41,25.53,180.8,180.8,0,0,1-33,19.17,183.67,183.67,0,0,1-36.4,11.53,191.08,191.08,0,0,1-37.93,4,183.7,183.7,0,0,1-38-3.68A178.08,178.08,0,0,1,325.08,562a196.1,196.1,0,0,1-61.46-44.73,179.74,179.74,0,0,1-22.41-30.94A187,187,0,0,1,217.85,414a187.37,187.37,0,0,1,0-38.18,183.5,183.5,0,0,1,7.71-37.41,180.49,180.49,0,0,1,15.6-34.88,185.27,185.27,0,0,1,120.3-87.34,185.86,185.86,0,0,1,76-.05m-112.21,12.1a182.4,182.4,0,1,0,36.27-11.79,183.34,183.34,0,0,0-36.27,11.79"/><polygon class="cls-5" points="423.4 392.38 493.36 354.29 493.36 366.09 582.2 366.09 582.2 418.7 493.39 418.7 493.4 430.4 423.4 392.38"/><polygon class="cls-5" points="706.13 391.91 649.5 329.26 649.49 348.66 577.56 348.66 577.56 435.2 649.46 435.2 649.46 454.43 706.13 391.91"/><text class="cls-6" transform="translate(590.36 402.08)"><tspan class="cls-7">A</tspan><tspan x="20.84" y="0">ttack</tspan></text><text class="cls-6" transform="translate(456.64 402.08)">D<tspan class="cls-8" x="22.81" y="0">e</tspan><tspan class="cls-9" x="41.45" y="0">f</tspan><tspan x="51.99" y="0">ense</tspan></text><path class="cls-5" d="M402.53,397.12,402,374.61l-.42-22.52-.22-11.25c-.09-3.76-.19-7.51-.22-11.26-.06-7.51.2-15,.58-22.52h1.93c.38,7.51.64,15,.58,22.52,0,3.75-.14,7.5-.23,11.26l-.21,11.25-.42,22.52-.54,22.51Z"/><polygon class="cls-5" points="402.68 296.26 408.9 311.48 402.68 307.87 396.46 311.48 402.68 296.26"/><text class="cls-10" transform="translate(305.91 364.53)"><tspan class="cls-11">H</tspan><tspan x="19.99" y="0">ealth</tspan></text></g></svg>