<svg xmlns="http://www.w3.org/2000/svg" viewBox="0 0 800 700"><defs><style>.cls-1{fill:#d4d4d4;}.cls-1,.cls-10,.cls-12,.cls-13,.cls-2,.cls-3,.cls-4,.cls-5,.cls-6,.cls-7,.cls-8,.cls-9{stroke:#fff;}.cls-1,.cls-10,.cls-2,.cls-3,.cls-4,.cls-5,.cls-6,.cls-7,.cls-8,.cls-9{opacity:0.2;}.cls-1,.cls-10,.cls-11,.cls-14,.cls-2,.cls-3,.cls-4,.cls-5,.cls-6,.cls-7,.cls-8,.cls-9{isolation:isolate;}.cls-2{fill:#d1d1d1;}.cls-3{fill:#adadad;}.cls-4{fill:#e5e5e5;}.cls-12,.cls-5{fill:#a9a9a9;}.cls-6{fill:#c5c5c5;}.cls-7{fill:#afafaf;}.cls-8{fill:#b3b3b3;}.cls-9{fill:#e7e7e7;}.cls-10,.cls-13{fill:#dedede;}.cls-11{fill:#d9d9d9;opacity:0.25;}.cls-14{fill:none;stroke:#e57e7c;stroke-miterlimit:10;stroke-width:3px;}.cls-15{font-size:36px;font-family:Raleway-Medium, Raleway;}.cls-15,.cls-31{fill:#253031;}.cls-16{letter-spacing:0em;}.cls-17{letter-spacing:-0.01em;}.cls-18{letter-spacing:-0.02em;}.cls-19{letter-spacing:-0.01em;}.cls-20{letter-spacing:-0.02em;}.cls-21{letter-spacing:-0.01em;}.cls-22{letter-spacing:0em;}.cls-23{letter-spacing:-0.01em;}.cls-24{letter-spacing:-0.02em;}.cls-25{letter-spacing:-0.03em;}.cls-26{letter-spacing:-0.01em;}.cls-27{letter-spacing:-0.01em;}.cls-28{letter-spacing:-0.01em;}.cls-29{letter-spacing:-0.03em;}.cls-30{letter-spacing:0em;}</style></defs><title>elem_annotated</title><g id="Layer_6" data-name="Layer 6"><g id="data_viz" data-name="data viz"><g id="data_arcs" data-name="data arcs"><path class="cls-1" d="M198.83,422.5a184,184,0,0,1,184-184v24a160,160,0,0,0-160,160Z"/><path class="cls-2" d="M174.83,422.5c0-114.87,93.13-208,208-208v24a184,184,0,0,0-184,184Z"/><path class="cls-3" d="M150.83,422.5c0-128.13,103.87-232,232-232v24c-114.87,0-208,93.13-208,208Z"/><path class="cls-4" d="M126.83,422.5c0-141.38,114.62-256,256-256v24c-128.13,0-232,103.87-232,232Z"/><path class="cls-5" d="M102.83,422.5c0-154.64,125.36-280,280-280s280,125.36,280,280h-24c0-141.38-114.61-256-256-256s-256,114.62-256,256Z"/><path class="cls-6" d="M78.83,422.5c0-167.89,136.11-304,304-304v24c-154.64,0-280,125.36-280,280Z"/><path class="cls-7" d="M54.83,422.5c0-181.15,146.85-328,328-328v24c-167.89,0-304,136.11-304,304Z"/><path class="cls-8" d="M30.83,422.5c0-194.4,157.6-352,352-352v24c-181.15,0-328,146.85-328,328Z"/><path class="cls-9" d="M6.83,422.5A376.06,376.06,0,0,1,35.45,278.62l22.18,9.18a352,352,0,0,0-26.8,134.7Z"/><path class="cls-10" d="M-17.17,422.5h0Z"/><path class="cls-1" d="M198.83,422.5a184,184,0,0,1,184-184v24a160,160,0,0,0-160,160Z"/><path class="cls-2" d="M174.83,422.5c0-114.87,93.13-208,208-208v24a184,184,0,0,0-184,184Z"/><path class="cls-3" d="M150.83,422.5c0-128.13,103.87-232,232-232v24c-114.87,0-208,93.13-208,208Z"/><path class="cls-4" d="M126.83,422.5c0-141.38,114.62-256,256-256v24c-128.13,0-232,103.87-232,232Z"/><path class="cls-5" d="M102.83,422.5c0-154.64,125.36-280,280-280s280,125.36,280,280h-24c0-141.38-114.61-256-256-256s-256,114.62-256,256Z"/><path class="cls-6" d="M78.83,422.5c0-167.89,136.11-304,304-304v24c-154.64,0-280,125.36-280,280Z"/><path class="cls-7" d="M54.83,422.5c0-181.15,146.85-328,328-328v24c-167.89,0-304,136.11-304,304Z"/><path class="cls-8" d="M30.83,422.5c0-194.4,157.6-352,352-352v24c-181.15,0-328,146.85-328,328Z"/><path class="cls-9" d="M6.83,422.5A376.06,376.06,0,0,1,35.45,278.62l22.18,9.18a352,352,0,0,0-26.8,134.7Z"/><path class="cls-10" d="M-17.17,422.5h0Z"/><path class="cls-1" d="M198.83,422.5a184,184,0,0,1,184-184v24a160,160,0,0,0-160,160Z"/><path class="cls-2" d="M174.83,422.5c0-114.87,93.13-208,208-208v24a184,184,0,0,0-184,184Z"/><path class="cls-3" d="M150.83,422.5c0-128.13,103.87-232,232-232v24c-114.87,0-208,93.13-208,208Z"/><path class="cls-4" d="M126.83,422.5c0-141.38,114.62-256,256-256v24c-128.13,0-232,103.87-232,232Z"/><path class="cls-5" d="M102.83,422.5c0-154.64,125.36-280,280-280s280,125.36,280,280h-24c0-141.38-114.61-256-256-256s-256,114.62-256,256Z"/><path class="cls-6" d="M78.83,422.5c0-167.89,136.11-304,304-304v24c-154.64,0-280,125.36-280,280Z"/><path class="cls-7" d="M54.83,422.5c0-181.15,146.85-328,328-328v24c-167.89,0-304,136.11-304,304Z"/><path class="cls-8" d="M30.83,422.5c0-194.4,157.6-352,352-352v24c-181.15,0-328,146.85-328,328Z"/><path class="cls-9" d="M6.83,422.5A376.06,376.06,0,0,1,35.45,278.62l22.18,9.18a352,352,0,0,0-26.8,134.7Z"/><path class="cls-10" d="M-17.17,422.5h0Z"/><path class="cls-1" d="M198.83,422.5a184,184,0,0,1,184-184v24a160,160,0,0,0-160,160Z"/><path class="cls-2" d="M174.83,422.5c0-114.87,93.13-208,208-208v24a184,184,0,0,0-184,184Z"/><path class="cls-3" d="M150.83,422.5c0-128.13,103.87-232,232-232v24c-114.87,0-208,93.13-208,208Z"/><path class="cls-4" d="M126.83,422.5c0-141.38,114.62-256,256-256v24c-128.13,0-232,103.87-232,232Z"/><path class="cls-5" d="M102.83,422.5c0-154.64,125.36-280,280-280s280,125.36,280,280h-24c0-141.38-114.61-256-256-256s-256,114.62-256,256Z"/><path class="cls-6" d="M78.83,422.5c0-167.89,136.11-304,304-304v24c-154.64,0-280,125.36-280,280Z"/><path class="cls-7" d="M54.83,422.5c0-181.15,146.85-328,328-328v24c-167.89,0-304,136.11-304,304Z"/><path class="cls-8" d="M30.83,422.5c0-194.4,157.6-352,352-352v24c-181.15,0-328,146.85-328,328Z"/><path class="cls-9" d="M6.83,422.5A376.06,376.06,0,0,1,35.45,278.62l22.18,9.18a352,352,0,0,0-26.8,134.7Z"/></g><g id="data_flower" data-name="data flower"><circle class="cls-11" cx="382.83" cy="422.5" r="80"/><circle class="cls-11" cx="382.83" cy="422.5" r="106.67"/><circle class="cls-11" cx="382.83" cy="422.5" r="133.33"/><circle class="cls-11" cx="382.83" cy="422.5" r="160"/><g id="flower"><path class="cls-12" d="M382.83,422.5h-40q-38.54-28-89.44-94h0q78.54,28,117.08,56Z"/><path class="cls-12" d="M382.83,422.5l-12.36-38q14.73-45.3,61.8-114.13h0Q429.92,353.68,415.19,399Z"/><path class="cls-12" d="M382.83,422.5,415.19,399q47.64,0,127.64,23.51h0Q462.84,446,415.19,446Z"/><path class="cls-12" d="M382.83,422.5,415.19,446q14.73,45.3,17.08,128.65h0q-47.07-68.82-61.8-114.12Z"/><path class="cls-13" d="M382.83,422.5l-12.36,38.05q-6.18,4.49-52.36,9h0q18.54-42.54,24.72-47Z"/></g></g></g></g><g id="annotations"><circle class="cls-14" cx="382.83" cy="422.5" r="160"/><text class="cls-15" transform="translate(19.83 632.68)">Eleme<tspan class="cls-16" x="107.89" y="0">n</tspan><tspan x="128.95" y="0">t </tspan><tspan x="0" y="43.2">l</tspan><tspan class="cls-17" x="10.3" y="43.2">e</tspan><tspan class="cls-18" x="31.07" y="43.2">v</tspan><tspan x="49.79" y="43.2">els </tspan><tspan class="cls-19" x="108.25" y="43.2">o</tspan><tspan class="cls-20" x="129.49" y="43.2">f</tspan><tspan x="141.05" y="43.2" xml:space="preserve"> c</tspan><tspan class="cls-21" x="170.1" y="43.2">r</tspan><tspan x="182.73" y="43.2">e</tspan><tspan class="cls-22" x="204.01" y="43.2">a</tspan><tspan x="223.81" y="43.2">tu</tspan><tspan class="cls-21" x="258.12" y="43.2">r</tspan><tspan x="270.75" y="43.2">es</tspan></text><text class="cls-15" transform="translate(401.37 46.5)"><tspan class="cls-23">H</tspan><tspan class="cls-24" x="26.35" y="0">o</tspan><tspan class="cls-25" x="47.27" y="0">w</tspan><tspan x="75.82" y="0"> </tspan><tspan class="cls-26" x="84.92" y="0">e</tspan><tspan class="cls-27" x="105.98" y="0">ff</tspan><tspan x="127.19" y="0">ecti</tspan><tspan class="cls-18" x="189.36" y="0">v</tspan><tspan x="208.08" y="0">e</tspan><tspan x="0" y="43.2">eleme</tspan><tspan class="cls-28" x="107.39" y="43.2">n</tspan><tspan x="128.45" y="43.2">ta</tspan><tspan class="cls-29" x="161.06" y="43.2">l</tspan><tspan class="cls-30" x="170.28" y="43.2"> </tspan><tspan class="cls-22" x="179.39" y="43.2">a</tspan><tspan x="199.18" y="43.2">ttacks a</tspan><tspan class="cls-27" x="330.65" y="43.2">r</tspan><tspan x="343.29" y="43.2">e</tspan><tspan x="0" y="86.4">against these c</tspan><tspan class="cls-27" x="254.73" y="86.4">r</tspan><tspan class="cls-30" x="267.37" y="86.4">e</tspan><tspan class="cls-22" x="288.64" y="86.4">a</tspan><tspan x="308.44" y="86.4">tu</tspan><tspan class="cls-27" x="342.75" y="86.4">r</tspan><tspan class="cls-30" x="355.38" y="86.4">es</tspan></text><path class="cls-31" d="M96.6,587.68a97.84,97.84,0,0,1,5.9-33.88A104.41,104.41,0,0,1,119.7,524a143,143,0,0,1,25-23.77A210.29,210.29,0,0,1,174,481.86a320.21,320.21,0,0,1,64.49-24.63c11.13-3,22.41-5.42,33.76-7.39A260.56,260.56,0,0,1,306.59,446v.24a287.31,287.31,0,0,0-34.21,4.3c-11.32,2.06-22.53,4.67-33.63,7.67s-22.06,6.48-32.83,10.5a289.26,289.26,0,0,0-31.55,13.86,209.91,209.91,0,0,0-29.27,18.15,142.62,142.62,0,0,0-25,23.57,104.08,104.08,0,0,0-17.31,29.62,98,98,0,0,0-6.07,33.78Z"/><polygon class="cls-31" points="313.65 446.06 303.76 450.25 306.06 446.16 303.65 442.13 313.65 446.06"/><path class="cls-31" d="M599.7,146.64c-.57,9.27-2.67,18.58-7.22,26.77a50.11,50.11,0,0,1-8.39,11.14A55.57,55.57,0,0,1,573,193.08a83.6,83.6,0,0,1-26.2,9.51,153.51,153.51,0,0,1-27.8,2.7c-18.66.2-37.26-2-55.57-5.37-9.16-1.7-18.23-3.81-27.25-6.11s-18-4.86-26.81-7.8l.08-.26a496.55,496.55,0,0,0,54.17,13.19c18.27,3.33,36.79,5.64,55.37,5.57A153.86,153.86,0,0,0,546.7,202a83,83,0,0,0,26.07-9.31,51.75,51.75,0,0,0,19.45-19.4c4.58-8.1,6.74-17.37,7.38-26.62Z"/><polygon class="cls-31" points="402.72 183.68 413.44 182.9 409.94 186.03 410.92 190.63 402.72 183.68"/></g></svg>