<svg xmlns="http://www.w3.org/2000/svg" viewBox="0 0 800 700"><defs><style>.cls-1{fill:#d4d4d4;}.cls-1,.cls-10,.cls-12,.cls-13,.cls-2,.cls-3,.cls-4,.cls-5,.cls-6,.cls-7,.cls-8,.cls-9{stroke:#fff;}.cls-1,.cls-10,.cls-2,.cls-3,.cls-4,.cls-5,.cls-6,.cls-7,.cls-8,.cls-9{opacity:0.2;}.cls-1,.cls-10,.cls-11,.cls-14,.cls-2,.cls-3,.cls-4,.cls-5,.cls-6,.cls-7,.cls-8,.cls-9{isolation:isolate;}.cls-2{fill:#d1d1d1;}.cls-3{fill:#adadad;}.cls-4{fill:#e5e5e5;}.cls-12,.cls-5{fill:#a9a9a9;}.cls-6{fill:#c5c5c5;}.cls-7{fill:#afafaf;}.cls-8{fill:#b3b3b3;}.cls-9{fill:#e7e7e7;}.cls-10,.cls-13{fill:#dedede;}.cls-11{fill:#d9d9d9;opacity:0.25;}.cls-14{fill:none;stroke:#e57e7c;stroke-miterlimit:10;stroke-width:3px;}.cls-15{fill:#253031;}</style></defs><title>elem_annotated</title><g id="Layer_6" data-name="Layer 6"><g id="data_viz" data-name="data viz"><g id="data_arcs" data-name="data arcs"><path class="cls-1" d="M198.83,422.5a184,184,0,0,1,184-184v24a160,160,0,0,0-160,160Z"/><path class="cls-2" d="M174.83,422.5c0-114.87,93.13-208,208-208v24a184,184,0,0,0-184,184Z"/><path class="cls-3" d="M150.83,422.5c0-128.13,103.87-232,232-232v24c-114.87,0-208,93.13-208,208Z"/><path class="cls-4" d="M126.83,422.5c0-141.38,114.62-256,256-256v24c-128.13,0-232,103.87-232,232Z"/><path class="cls-5" d="M102.83,422.5c0-154.64,125.36-280,280-280s280,125.36,280,280h-24c0-141.38-114.61-256-256-256s-256,114.62-256,256Z"/><path class="cls-6" d="M78.83,422.5c0-167.89,136.11-304,304-304v24c-154.64,0-280,125.36-280,280Z"/><path class="cls-7" d="M54.83,422.5c0-181.15,146.85-328,328-328v24c-167.89,0-304,136.11-304,304Z"/><path class="cls-8" d="M30.83,422.5c0-194.4,157.6-352,352-352v24c-181.15,0-328,146.85-328,328Z"/><path class="cls-9" d="M6.83,422.5A376.06,376.06,0,0,1,35.45,278.62l22.18,9.18a352,352,0,0,0-26.8,134.7Z"/><path class="cls-10" d="M-17.17,422.5h0Z"/><path class="cls-1" d="M198.83,422.5a184,184,0,0,1,184-184v24a160,160,0,0,0-160,160Z"/><path class="cls-2" d="M174.83,422.5c0-114.87,93.13-208,208-208v24a184,184,0,0,0-184,184Z"/><path class="cls-3" d="M150.83,422.5c0-128.13,103.87-232,232-232v24c-114.87,0-208,93.13-208,208Z"/><path class="cls-4" d="M126.83,422.5c0-141.38,114.62-256,256-256v24c-128.13,0-232,103.87-232,232Z"/><path class="cls-5" d="M102.83,422.5c0-154.64,125.36-280,280-280s280,125.36,280,280h-24c0-141.38-114.61-256-256-256s-256,114.62-256,256Z"/><path class="cls-6" d="M78.83,422.5c0-167.89,136.11-304,304-304v24c-154.64,0-280,125.36-280,280Z"/><path class="cls-7" d="M54.83,422.5c0-181.15,146.85-328,328-328v24c-167.89,0-304,136.11-304,304Z"/><path class="cls-8" d="M30.83,422.5c0-194.4,157.6-352,352-352v24c-181.15,0-328,146.85-328,328Z"/><path class="cls-9" d="M6.83,422.5A376.06,376.06,0,0,1,35.45,278.62l22.18,9.18a352,352,0,0,0-26.8,134.7Z"/><path class="cls-10" d="M-17.17,422.5h0Z"/><path class="cls-1" d="M198.83,422.5a184,184,0,0,1,184-184v24a160,160,0,0,0-160,160Z"/><path class="cls-2" d="M174.83,422.5c0-114.87,93.13-208,208-208v24a184,184,0,0,0-184,184Z"/><path class="cls-3" d="M150.83,422.5c0-128.13,103.87-232,232-232v24c-114.87,0-208,93.13-208,208Z"/><path class="cls-4" d="M126.83,422.5c0-141.38,114.62-256,256-256v24c-128.13,0-232,103.87-232,232Z"/><path class="cls-5" d="M102.83,422.5c0-154.64,125.36-280,280-280s280,125.36,280,280h-24c0-141.38-114.61-256-256-256s-256,114.62-256,256Z"/><path class="cls-6" d="M78.83,422.5c0-167.89,136.11-304,304-304v24c-154.64,0-280,125.36-280,280Z"/><path class="cls-7" d="M54.83,422.5c0-181.15,146.85-328,328-328v24c-167.89,0-304,136.11-304,304Z"/><path class="cls-8" d="M30.83,422.5c0-194.4,157.6-352,352-352v24c-181.15,0-328,146.85-328,328Z"/><path class="cls-9" d="M6.83,422.5A376.06,376.06,0,0,1,35.45,278.62l22.18,9.18a352,352,0,0,0-26.8,134.7Z"/><path class="cls-10" d="M-17.17,422.5h0Z"/><path class="cls-1" d="M198.83,422.5a184,184,0,0,1,184-184v24a160,160,0,0,0-160,160Z"/><path class="cls-2" d="M174.83,422.5c0-114.87,93.13-208,208-208v24a184,184,0,0,0-184,184Z"/><path class="cls-3" d="M150.83,422.5c0-128.13,103.87-232,232-232v24c-114.87,0-208,93.13-208,208Z"/><path class="cls-4" d="M126.83,422.5c0-141.38,114.62-256,256-256v24c-128.13,0-232,103.87-232,232Z"/><path class="cls-5" d="M102.83,422.5c0-154.64,125.36-280,280-280s280,125.36,280,280h-24c0-141.38-114.61-256-256-256s-256,114.62-256,256Z"/><path class="cls-6" d="M78.83,422.5c0-167.89,136.11-304,304-304v24c-154.64,0-280,125.36-280,280Z"/><path class="cls-7" d="M54.83,422.5c0-181.15,146.85-328,328-328v24c-167.89,0-304,136.11-304,304Z"/><path class="cls-8" d="M30.83,422.5c0-194.4,157.6-352,352-352v24c-181.15,0-328,146.85-328,328Z"/><path class="cls-9" d="M6.83,422.5A376.06,376.06,0,0,1,35.45,278.62l22.18,9.18a352,352,0,0,0-26.8,134.7Z"/></g><g id="data_flower" data-name="data flower"><circle class="cls-11" cx="382.83" cy="422.5" r="80"/><circle class="cls-11" cx="382.83" cy="422.5" r="106.67"/><circle class="cls-11" cx="382.83" cy="422.5" r="133.33"/><circle class="cls-11" cx="382.83" cy="422.5" r="160"/><g id="flower"><path class="cls-12" d="M382.83,422.5h-40q-38.54-28-89.44-94h0q78.54,28,117.08,56Z"/><path class="cls-12" d="M382.83,422.5l-12.36-38q14.73-45.3,61.8-114.13h0Q429.92,353.68,415.19,399Z"/><path class="cls-12" d="M382.83,422.5,415.19,399q47.64,0,127.64,23.51h0Q462.84,446,415.19,446Z"/><path class="cls-12" d="M382.83,422.5,415.19,446q14.73,45.3,17.08,128.65h0q-47.07-68.82-61.8-114.12Z"/><path class="cls-13" d="M382.83,422.5l-12.36,38.05q-6.18,4.49-52.36,9h0q18.54-42.54,24.72-47Z"/></g></g></g></g><g id="annotations"><circle class="cls-14" cx="382.83" cy="422.5" r="160"/><path class="cls-15" d="M40.24,629.8v2.88H22.89V607.12h17V610H26.13v8.28h12V621h-12v8.82Z"/><path class="cls-15" d="M44.24,606.4h3.17v21.42a2.31,2.31,0,0,0,.55,1.64,2.09,2.09,0,0,0,1.57.59,4,4,0,0,0,.94-.13,7.45,7.45,0,0,0,1-.3l.5,2.55a9.73,9.73,0,0,1-1.87.54,9.48,9.48,0,0,1-1.91.22,4,4,0,0,1-2.9-1A3.91,3.91,0,0,1,44.24,629Z"/><path class="cls-15" d="M62.78,633a9.52,9.52,0,0,1-3.89-.78,9,9,0,0,1-3-2.1,9.49,9.49,0,0,1-2-3.12,10.1,10.1,0,0,1-.71-3.76,10,10,0,0,1,.71-3.74,9.37,9.37,0,0,1,2-3.1,9.83,9.83,0,0,1,10.81-2.09,9.26,9.26,0,0,1,3,2.11,9.4,9.4,0,0,1,1.88,3.06,10,10,0,0,1,.67,3.62c0,.26,0,.5,0,.72a4.38,4.38,0,0,1,0,.5H56.55a7.26,7.26,0,0,0,.65,2.56,6.62,6.62,0,0,0,1.4,2,6.46,6.46,0,0,0,2,1.29,5.7,5.7,0,0,0,2.32.47,6.44,6.44,0,0,0,1.69-.23,7.86,7.86,0,0,0,1.55-.63,5.83,5.83,0,0,0,1.28-1,4,4,0,0,0,.84-1.3l2.74.76a7.06,7.06,0,0,1-1.28,1.9,8.56,8.56,0,0,1-1.87,1.5,9.78,9.78,0,0,1-2.36,1A10.05,10.05,0,0,1,62.78,633Zm6.44-11a6.74,6.74,0,0,0-.66-2.46,6.64,6.64,0,0,0-1.41-1.93,6.43,6.43,0,0,0-6.71-1.24,6.1,6.1,0,0,0-2,1.26,6.34,6.34,0,0,0-1.37,1.92,7.08,7.08,0,0,0-.63,2.45Z"/><path class="cls-15" d="M104.07,632.68H100.9V622.17a7.94,7.94,0,0,0-1-4.36,3.19,3.19,0,0,0-2.83-1.4,5,5,0,0,0-3.47,1.38,7.65,7.65,0,0,0-2.18,3.58v11.31H88.3V622.17a8,8,0,0,0-.93-4.4,3.18,3.18,0,0,0-2.81-1.36,5.14,5.14,0,0,0-3.46,1.35,7.31,7.31,0,0,0-2.19,3.58v11.34H75.74V613.89h2.88v4a8.47,8.47,0,0,1,3-3.22,7.67,7.67,0,0,1,4.14-1.14,5.36,5.36,0,0,1,3.76,1.28,5.57,5.57,0,0,1,1.71,3.29c1.68-3,4.07-4.57,7.16-4.57a5.61,5.61,0,0,1,2.72.6,4.55,4.55,0,0,1,1.75,1.65,7.64,7.64,0,0,1,.93,2.5,16.2,16.2,0,0,1,.29,3.14Z"/><path class="cls-15" d="M117.32,633a9.52,9.52,0,0,1-3.89-.78,9,9,0,0,1-3-2.1,9.68,9.68,0,0,1-2-3.12,10.29,10.29,0,0,1-.7-3.76,10.15,10.15,0,0,1,.7-3.74,9.45,9.45,0,0,1,8.91-6,9.36,9.36,0,0,1,3.87.79,9,9,0,0,1,3,2.11,9.25,9.25,0,0,1,1.89,3.06,10,10,0,0,1,.67,3.62c0,.26,0,.5,0,.72a4.38,4.38,0,0,1,0,.5H111.09a7.26,7.26,0,0,0,.65,2.56,6.62,6.62,0,0,0,1.4,2,6.54,6.54,0,0,0,2,1.29,5.78,5.78,0,0,0,2.33.47,6.44,6.44,0,0,0,1.69-.23,7.86,7.86,0,0,0,1.55-.63,5.55,5.55,0,0,0,1.27-1,3.9,3.9,0,0,0,.85-1.3l2.74.76a7.06,7.06,0,0,1-1.28,1.9,8.56,8.56,0,0,1-1.87,1.5,9.78,9.78,0,0,1-2.36,1A10.11,10.11,0,0,1,117.32,633Zm6.44-11a6.74,6.74,0,0,0-.66-2.46,6.64,6.64,0,0,0-1.41-1.93,6.22,6.22,0,0,0-2-1.24,6.49,6.49,0,0,0-4.75,0,6,6,0,0,0-2,1.26,6.34,6.34,0,0,0-1.37,1.92A7.08,7.08,0,0,0,111,622Z"/><path class="cls-15" d="M146.59,632.68h-3.17V622.17a8.15,8.15,0,0,0-.92-4.4,3.12,3.12,0,0,0-2.79-1.36,5.3,5.3,0,0,0-1.94.37,8.15,8.15,0,0,0-1.84,1,7,7,0,0,0-1.51,1.55,6.52,6.52,0,0,0-1,2v11.34h-3.17V613.89h2.88v4a8.25,8.25,0,0,1,3.22-3.17,9.19,9.19,0,0,1,4.59-1.19,5.5,5.5,0,0,1,2.7.6,4.49,4.49,0,0,1,1.73,1.65,7.42,7.42,0,0,1,.92,2.5,17.09,17.09,0,0,1,.27,3.14Z"/><path class="cls-15" d="M161.06,631.74c-.19.1-.45.21-.76.34a10.38,10.38,0,0,1-1.06.4,9.16,9.16,0,0,1-1.3.32,7.59,7.59,0,0,1-1.45.13,4.83,4.83,0,0,1-3-.95,3.5,3.5,0,0,1-1.26-3V616.37h-2.56v-2.48h2.56v-6.27h3.17v6.27h4.21v2.48h-4.21V628a2,2,0,0,0,.68,1.52,2.32,2.32,0,0,0,1.44.46,4.73,4.73,0,0,0,1.71-.3,7.64,7.64,0,0,0,1.06-.49Z"/><path class="cls-15" d="M22.46,649.6h3.17V671a2.31,2.31,0,0,0,.55,1.64,2.09,2.09,0,0,0,1.57.59,4.47,4.47,0,0,0,.94-.12,9.21,9.21,0,0,0,1-.31l.5,2.56a11.42,11.42,0,0,1-1.87.54,10.18,10.18,0,0,1-1.91.21,4,4,0,0,1-2.9-1,3.91,3.91,0,0,1-1.06-2.92Z"/><path class="cls-15" d="M41,676.24a9.52,9.52,0,0,1-3.89-.78,9,9,0,0,1-3-2.1,9.75,9.75,0,0,1-2-3.11,10.38,10.38,0,0,1-.7-3.77,10.19,10.19,0,0,1,.7-3.74,9.45,9.45,0,0,1,8.91-6,9.44,9.44,0,0,1,3.88.79,9.14,9.14,0,0,1,4.85,5.17,10,10,0,0,1,.67,3.62c0,.26,0,.5,0,.72a4.38,4.38,0,0,1,0,.5H34.77a7.26,7.26,0,0,0,.65,2.56,6.62,6.62,0,0,0,1.4,2,6.77,6.77,0,0,0,2,1.3,5.94,5.94,0,0,0,2.33.46,6,6,0,0,0,1.69-.23,7.86,7.86,0,0,0,1.55-.63,5.55,5.55,0,0,0,1.27-1,3.9,3.9,0,0,0,.85-1.3l2.74.76a7.27,7.27,0,0,1-1.28,1.91,8.82,8.82,0,0,1-1.87,1.49,9.78,9.78,0,0,1-2.36,1A10.11,10.11,0,0,1,41,676.24Zm6.44-11a6.74,6.74,0,0,0-.66-2.46,6.64,6.64,0,0,0-1.41-1.93,6.22,6.22,0,0,0-2-1.24,6.49,6.49,0,0,0-4.75,0,6,6,0,0,0-2,1.26,6.34,6.34,0,0,0-1.37,1.92,7.08,7.08,0,0,0-.63,2.45Z"/><path class="cls-15" d="M58.89,675.88l-7.42-18.79h3.28l5.94,16,6-16h3l-7.42,18.79Z"/><path class="cls-15" d="M80.49,676.24a9.52,9.52,0,0,1-3.89-.78,9.11,9.11,0,0,1-3-2.1,9.55,9.55,0,0,1-2-3.11,10.19,10.19,0,0,1-.71-3.77,10,10,0,0,1,.71-3.74,9.24,9.24,0,0,1,2-3.1,9.34,9.34,0,0,1,3-2.1,9.46,9.46,0,0,1,10.73,2.12,9.59,9.59,0,0,1,1.89,3.06,10.18,10.18,0,0,1,.66,3.62c0,.26,0,.5,0,.72s0,.38-.06.5H74.26a7.26,7.26,0,0,0,.65,2.56,6.56,6.56,0,0,0,3.37,3.28,5.86,5.86,0,0,0,2.32.46,6,6,0,0,0,1.69-.23,7.86,7.86,0,0,0,1.55-.63,5.83,5.83,0,0,0,1.28-1,4,4,0,0,0,.84-1.3l2.74.76a7,7,0,0,1-1.28,1.91,8.58,8.58,0,0,1-1.87,1.49,9.78,9.78,0,0,1-2.36,1A10,10,0,0,1,80.49,676.24Zm6.45-11a7,7,0,0,0-.67-2.46,6.61,6.61,0,0,0-1.4-1.93,6.45,6.45,0,0,0-6.72-1.24,6.1,6.1,0,0,0-2,1.26,6.34,6.34,0,0,0-1.37,1.92,7.08,7.08,0,0,0-.63,2.45Z"/><path class="cls-15" d="M93.52,649.6h3.17V671a2.31,2.31,0,0,0,.56,1.64,2,2,0,0,0,1.56.59,4.39,4.39,0,0,0,.94-.12,8.58,8.58,0,0,0,1-.31l.5,2.56a11.42,11.42,0,0,1-1.87.54,10.18,10.18,0,0,1-1.91.21,4,4,0,0,1-2.9-1,4,4,0,0,1-1.06-2.92Z"/><path class="cls-15" d="M110.33,676.24a14.79,14.79,0,0,1-4.46-.7,11.09,11.09,0,0,1-3.78-2l1.37-2.12a13.32,13.32,0,0,0,3.31,1.89,9.73,9.73,0,0,0,3.49.63,5.76,5.76,0,0,0,3.26-.81,2.61,2.61,0,0,0,1.21-2.29,2.06,2.06,0,0,0-.33-1.17,2.71,2.71,0,0,0-1-.84,7.66,7.66,0,0,0-1.66-.65c-.67-.19-1.45-.4-2.34-.61-1.12-.29-2.1-.57-2.91-.83a7.77,7.77,0,0,1-2-.94,3.27,3.27,0,0,1-1.15-1.29,4.38,4.38,0,0,1-.36-1.88,5.51,5.51,0,0,1,.56-2.5,5.21,5.21,0,0,1,1.53-1.83,6.94,6.94,0,0,1,2.28-1.12,10.3,10.3,0,0,1,2.83-.38,11.13,11.13,0,0,1,4,.69,9.58,9.58,0,0,1,3.1,1.8l-1.44,1.9a8.26,8.26,0,0,0-2.67-1.56,8.92,8.92,0,0,0-3-.52,5.58,5.58,0,0,0-2.94.73,2.57,2.57,0,0,0-1.2,2.36,2.3,2.3,0,0,0,.23,1.08,2.11,2.11,0,0,0,.78.76,6,6,0,0,0,1.38.57c.57.17,1.24.35,2,.54,1.24.29,2.33.59,3.25.89a9.22,9.22,0,0,1,2.31,1.06,3.79,3.79,0,0,1,1.82,3.46,5,5,0,0,1-2,4.17A8.72,8.72,0,0,1,110.33,676.24Z"/><path class="cls-15" d="M138.84,676.24a9.43,9.43,0,0,1-3.87-.79,9.32,9.32,0,0,1-3-2.13,9.55,9.55,0,0,1-1.93-3.09,10.13,10.13,0,0,1,2-10.55,9.41,9.41,0,0,1,13.68,0,9.89,9.89,0,0,1,2,3.09,10.36,10.36,0,0,1,0,7.46,9.25,9.25,0,0,1-1.94,3.09,9.28,9.28,0,0,1-6.88,2.92Zm-6.22-9.69a7.62,7.62,0,0,0,.48,2.74,7.27,7.27,0,0,0,1.33,2.2,6.47,6.47,0,0,0,2,1.47,5.76,5.76,0,0,0,4.87,0,6.42,6.42,0,0,0,2-1.49,6.9,6.9,0,0,0,1.35-2.23,7.56,7.56,0,0,0,.49-2.76,7.41,7.41,0,0,0-.49-2.71,6.84,6.84,0,0,0-1.35-2.24,6.42,6.42,0,0,0-2-1.49,5.62,5.62,0,0,0-2.44-.54,5.48,5.48,0,0,0-2.43.56,6.44,6.44,0,0,0-2,1.51,7.42,7.42,0,0,0-1.33,2.23A7.76,7.76,0,0,0,132.62,666.55Z"/><path class="cls-15" d="M152.89,675.88V659.57h-2.56v-2.48h2.56v-.4a8.68,8.68,0,0,1,1.54-5.47,5.07,5.07,0,0,1,4.22-2,8.15,8.15,0,0,1,2.19.3,7.6,7.6,0,0,1,1.94.85l-.79,2.34a4.2,4.2,0,0,0-1.24-.58,5.31,5.31,0,0,0-1.46-.21,2.74,2.74,0,0,0-2.41,1.19,6,6,0,0,0-.83,3.45v.51h5v2.48h-5v16.31Z"/><path class="cls-15" d="M171.28,666.45a10.44,10.44,0,0,1,.68-3.75,9.26,9.26,0,0,1,4.95-5.16,9.51,9.51,0,0,1,3.91-.78,9.17,9.17,0,0,1,4.84,1.24,8.09,8.09,0,0,1,3.08,3.33l-3.1,1a5.14,5.14,0,0,0-2-2.07,5.92,5.92,0,0,0-7.31,1.24,7.05,7.05,0,0,0-1.31,2.19,7.59,7.59,0,0,0-.49,2.78,7.73,7.73,0,0,0,.5,2.77,7.66,7.66,0,0,0,1.35,2.25,6.38,6.38,0,0,0,2,1.49,5.61,5.61,0,0,0,2.43.54,5.7,5.7,0,0,0,1.64-.23,6.8,6.8,0,0,0,1.48-.63,5.59,5.59,0,0,0,1.17-.92,3.28,3.28,0,0,0,.72-1.13l3.09.93a6.61,6.61,0,0,1-1.2,1.91,7.52,7.52,0,0,1-1.82,1.48,10,10,0,0,1-5,1.33,9.38,9.38,0,0,1-8.88-6A10.13,10.13,0,0,1,171.28,666.45Z"/><path class="cls-15" d="M202.42,659.86a8.13,8.13,0,0,0-4.19,1.22,6.26,6.26,0,0,0-2.58,3.21v11.59h-3.17V657.09h3v4.35a8.93,8.93,0,0,1,2.55-3.15,6.45,6.45,0,0,1,3.39-1.35H202a2.52,2.52,0,0,1,.43,0Z"/><path class="cls-15" d="M213.44,676.24a9.48,9.48,0,0,1-3.89-.78,9,9,0,0,1-3-2.1,9.72,9.72,0,0,1-2-3.11,10.18,10.18,0,0,1-.7-3.77,10,10,0,0,1,.7-3.74,9.56,9.56,0,0,1,2-3.1,9.52,9.52,0,0,1,13.77,0,9.25,9.25,0,0,1,1.89,3.06,10,10,0,0,1,.67,3.62c0,.26,0,.5,0,.72a4.38,4.38,0,0,1,0,.5H207.21a7,7,0,0,0,.65,2.56,6.45,6.45,0,0,0,1.4,2,6.77,6.77,0,0,0,2,1.3,5.89,5.89,0,0,0,2.32.46,6.11,6.11,0,0,0,1.7-.23,7.77,7.77,0,0,0,1.54-.63,5.61,5.61,0,0,0,1.28-1,4.23,4.23,0,0,0,.85-1.3l2.73.76a7,7,0,0,1-1.27,1.91,8.88,8.88,0,0,1-1.88,1.49,9.71,9.71,0,0,1-2.35,1A10.11,10.11,0,0,1,213.44,676.24Zm6.44-11a6.76,6.76,0,0,0-.67-2.46,6.61,6.61,0,0,0-1.4-1.93,6.32,6.32,0,0,0-4.34-1.69,6.25,6.25,0,0,0-2.37.45,6.15,6.15,0,0,0-2,1.26,6.31,6.31,0,0,0-1.36,1.92,7.08,7.08,0,0,0-.63,2.45Z"/><path class="cls-15" d="M231.22,676.24a6.71,6.71,0,0,1-2.48-.45,6.09,6.09,0,0,1-2-1.24,5.72,5.72,0,0,1-1.33-1.86,5.39,5.39,0,0,1-.49-2.32,4.93,4.93,0,0,1,.57-2.36,5.55,5.55,0,0,1,1.64-1.82,8.39,8.39,0,0,1,2.52-1.18,11.13,11.13,0,0,1,3.19-.44,15.53,15.53,0,0,1,2.77.26,12.67,12.67,0,0,1,2.48.68V664a4.52,4.52,0,0,0-5-4.93,10.54,10.54,0,0,0-6,2.19l-1-2a13,13,0,0,1,7.3-2.45,8,8,0,0,1,5.78,2,7.36,7.36,0,0,1,2.07,5.58V672c0,.74.34,1.13,1,1.15v2.74l-.83.11c-.21,0-.44,0-.68,0a2,2,0,0,1-1.5-.56,2.28,2.28,0,0,1-.66-1.35l-.07-1.33a8.19,8.19,0,0,1-3.19,2.58A9.89,9.89,0,0,1,231.22,676.24Zm.83-2.38a7.91,7.91,0,0,0,3.15-.63,5.13,5.13,0,0,0,2.21-1.67,2,2,0,0,0,.68-1.41v-2.77a13,13,0,0,0-4.78-.9,6.78,6.78,0,0,0-3.87,1,3,3,0,0,0-1.5,2.63,3.58,3.58,0,0,0,1.17,2.66,4,4,0,0,0,1.32.79A4.32,4.32,0,0,0,232.05,673.86Z"/><path class="cls-15" d="M255.91,674.94c-.19.1-.44.21-.75.34s-.67.27-1.06.4a9.16,9.16,0,0,1-1.3.32,7.7,7.7,0,0,1-1.46.13,4.85,4.85,0,0,1-3-1,3.5,3.5,0,0,1-1.26-3V659.57h-2.55v-2.48h2.55v-6.27h3.17v6.27h4.21v2.48h-4.21v11.66a2,2,0,0,0,.69,1.52,2.28,2.28,0,0,0,1.44.46,4.73,4.73,0,0,0,1.71-.3,7.07,7.07,0,0,0,1.06-.49Z"/><path class="cls-15" d="M264.66,676.24a5.26,5.26,0,0,1-4.46-2q-1.51-2-1.51-5.91V657.09h3.16v10.65c0,3.84,1.34,5.76,4,5.76a6.07,6.07,0,0,0,3.65-1.24,7.32,7.32,0,0,0,2.54-3.4V657.09h3.17V672c0,.74.34,1.13,1,1.15v2.74c-.36,0-.64.08-.85.09l-.59,0a2.29,2.29,0,0,1-1.57-.56,1.87,1.87,0,0,1-.66-1.39l-.08-2.19a8.67,8.67,0,0,1-3.31,3.25A9.12,9.12,0,0,1,264.66,676.24Z"/><path class="cls-15" d="M290.44,659.86a8.17,8.17,0,0,0-4.2,1.22,6.24,6.24,0,0,0-2.57,3.21v11.59H280.5V657.09h2.95v4.35a9,9,0,0,1,2.56-3.15,6.42,6.42,0,0,1,3.38-1.35H290a2.63,2.63,0,0,1,.43,0Z"/><path class="cls-15" d="M301.45,676.24a9.47,9.47,0,0,1-3.88-.78,9,9,0,0,1-3-2.1,9.72,9.72,0,0,1-2-3.11,10.18,10.18,0,0,1-.7-3.77,10,10,0,0,1,.7-3.74,9.56,9.56,0,0,1,2-3.1,9.34,9.34,0,0,1,3-2.1,9.52,9.52,0,0,1,3.89-.78,9.19,9.19,0,0,1,6.84,2.9,9.59,9.59,0,0,1,1.89,3.06,10.18,10.18,0,0,1,.66,3.62c0,.26,0,.5,0,.72a4,4,0,0,1-.06.5H295.22a7.48,7.48,0,0,0,.65,2.56,6.48,6.48,0,0,0,1.41,2,6.64,6.64,0,0,0,2,1.3,5.86,5.86,0,0,0,2.32.46,6,6,0,0,0,1.69-.23,7.86,7.86,0,0,0,1.55-.63,5.61,5.61,0,0,0,1.28-1,4,4,0,0,0,.84-1.3l2.74.76a7,7,0,0,1-1.28,1.91,8.58,8.58,0,0,1-1.87,1.49,9.62,9.62,0,0,1-2.36,1A10,10,0,0,1,301.45,676.24Zm6.45-11a7,7,0,0,0-.67-2.46,6.61,6.61,0,0,0-1.4-1.93,6.45,6.45,0,0,0-6.72-1.24,6.1,6.1,0,0,0-2,1.26,6.51,6.51,0,0,0-1.37,1.92,7.08,7.08,0,0,0-.63,2.45Z"/><path class="cls-15" d="M321,676.24a14.79,14.79,0,0,1-4.46-.7,10.9,10.9,0,0,1-3.78-2l1.36-2.12a13.37,13.37,0,0,0,3.32,1.89,9.69,9.69,0,0,0,3.49.63,5.78,5.78,0,0,0,3.26-.81,2.6,2.6,0,0,0,1.2-2.29,2.14,2.14,0,0,0-.32-1.17,2.8,2.8,0,0,0-1-.84,8.09,8.09,0,0,0-1.66-.65c-.67-.19-1.45-.4-2.34-.61-1.13-.29-2.1-.57-2.92-.83a7.84,7.84,0,0,1-2-.94,3.27,3.27,0,0,1-1.15-1.29,4.38,4.38,0,0,1-.36-1.88,5.5,5.5,0,0,1,.55-2.5,5.43,5.43,0,0,1,1.53-1.83,6.89,6.89,0,0,1,2.29-1.12,10.3,10.3,0,0,1,2.83-.38,11.21,11.21,0,0,1,4,.69,9.53,9.53,0,0,1,3.09,1.8l-1.44,1.9a8.21,8.21,0,0,0-2.66-1.56,9,9,0,0,0-3-.52,5.52,5.52,0,0,0-2.93.73,2.58,2.58,0,0,0-1.21,2.36,2.19,2.19,0,0,0,.24,1.08,2,2,0,0,0,.77.76,6,6,0,0,0,1.39.57c.56.17,1.24.35,2,.54,1.25.29,2.34.59,3.26.89a9.31,9.31,0,0,1,2.3,1.06A4.06,4.06,0,0,1,328,668.5a4.16,4.16,0,0,1,.45,2,5,5,0,0,1-2,4.17A8.74,8.74,0,0,1,321,676.24Z"/><path class="cls-15" d="M425,20.94V46.5h-3.24V34.88H407.67V46.5h-3.24V20.94h3.24V32h14.08V20.94Z"/><path class="cls-15" d="M438.49,46.86a9.2,9.2,0,0,1-3.87-.79,9.21,9.21,0,0,1-4.91-5.22,10.06,10.06,0,0,1-.69-3.71,10.19,10.19,0,0,1,.7-3.74,9.82,9.82,0,0,1,1.95-3.1,9.38,9.38,0,0,1,3-2.12,9.12,9.12,0,0,1,3.83-.79,9.24,9.24,0,0,1,3.85.79,9.35,9.35,0,0,1,3,2.12,9.8,9.8,0,0,1,1.94,3.1,10.4,10.4,0,0,1,0,7.45,9.28,9.28,0,0,1-4.95,5.22A9.2,9.2,0,0,1,438.49,46.86Zm-6.23-9.68a7.45,7.45,0,0,0,.49,2.74,6.91,6.91,0,0,0,1.33,2.19,6.13,6.13,0,0,0,2,1.48,5.74,5.74,0,0,0,4.86,0,6.34,6.34,0,0,0,2-1.5,7.15,7.15,0,0,0,1.35-2.23,7.76,7.76,0,0,0,.48-2.75,7.67,7.67,0,0,0-.48-2.72,7.15,7.15,0,0,0-1.35-2.23,6.34,6.34,0,0,0-2-1.5,5.61,5.61,0,0,0-2.43-.54,5.48,5.48,0,0,0-2.43.56,6.36,6.36,0,0,0-2,1.51,7.16,7.16,0,0,0-1.33,2.24A7.54,7.54,0,0,0,432.26,37.18Z"/><path class="cls-15" d="M474.74,27.71h3.06l-8,18.79h-2.63l-3.78-9.18-3.74,9.18H457l-8-18.79h3l6.48,15.66,3.17-7.81-3.24-7.81h2.63l2.3,6,2.31-6h2.63l-3.21,7.81,3.17,7.81Z"/><path class="cls-15" d="M497.17,46.86a9.51,9.51,0,0,1-3.89-.77,9.29,9.29,0,0,1-5-5.22,10.28,10.28,0,0,1,0-7.51,9.41,9.41,0,0,1,5-5.2,9.65,9.65,0,0,1,3.89-.77,9.19,9.19,0,0,1,6.84,2.9,9.38,9.38,0,0,1,1.89,3.06A10.12,10.12,0,0,1,506.6,37c0,.27,0,.51,0,.72a4.35,4.35,0,0,1-.05.51H490.94a7.2,7.2,0,0,0,.65,2.55,6.62,6.62,0,0,0,1.4,2,6.31,6.31,0,0,0,2,1.3,5.87,5.87,0,0,0,2.32.47,6.05,6.05,0,0,0,1.69-.24,6.81,6.81,0,0,0,1.55-.63,5.27,5.27,0,0,0,1.28-1,3.88,3.88,0,0,0,.84-1.29l2.74.75A6.88,6.88,0,0,1,504.1,44a8.29,8.29,0,0,1-1.87,1.49,9.78,9.78,0,0,1-2.36,1A10,10,0,0,1,497.17,46.86Zm6.44-11a6.8,6.8,0,0,0-.66-2.47,6.59,6.59,0,0,0-1.41-1.92,6.41,6.41,0,0,0-6.71-1.25,6.1,6.1,0,0,0-2,1.26,6.38,6.38,0,0,0-1.37,1.93,7,7,0,0,0-.63,2.45Z"/><path class="cls-15" d="M526.47,22.6a3.38,3.38,0,0,0-1.71.41,3.68,3.68,0,0,0-1.15,1.07,4.47,4.47,0,0,0-.66,1.47,6.31,6.31,0,0,0-.22,1.66v.5h5.65V30.2h-5.65V46.5h-3.17V30.2h-5.47V46.5h-3.17V30.2h-2.55V27.71h2.55v-.14a8.67,8.67,0,0,1,.41-2.38,6.27,6.27,0,0,1,1.12-2,5.29,5.29,0,0,1,1.84-1.41,6,6,0,0,1,2.53-.52,9,9,0,0,1,2.36.29,11.2,11.2,0,0,1,1.89.68,6.27,6.27,0,0,1,2-1.69,5.91,5.91,0,0,1,2.87-.65,5.76,5.76,0,0,1,2.5.45c.61.3,1.11.54,1.49.71l-.79,2.34a5.3,5.3,0,0,0-1-.53A4.57,4.57,0,0,0,526.47,22.6Zm-6.91,5.11a11.3,11.3,0,0,1,.14-1.6,5.29,5.29,0,0,1,.44-1.49,3.35,3.35,0,0,0-1.35-.53A9.21,9.21,0,0,0,517.4,24,2.88,2.88,0,0,0,514.86,25a4.46,4.46,0,0,0-.77,2.5v.18Z"/><path class="cls-15" d="M539.43,46.86a9.47,9.47,0,0,1-3.88-.77,9.22,9.22,0,0,1-3-2.11,9.51,9.51,0,0,1-2-3.11,10.42,10.42,0,0,1,0-7.51,9.62,9.62,0,0,1,2-3.09,9.47,9.47,0,0,1,3-2.11,9.68,9.68,0,0,1,3.89-.77,9.19,9.19,0,0,1,6.84,2.9,9.38,9.38,0,0,1,1.89,3.06,10.13,10.13,0,0,1,.67,3.61c0,.27,0,.51,0,.72a4,4,0,0,1-.06.51H533.2a7.42,7.42,0,0,0,.65,2.55,6.48,6.48,0,0,0,1.41,2,6.27,6.27,0,0,0,2,1.3,5.9,5.9,0,0,0,2.32.47,6,6,0,0,0,1.69-.24,6.81,6.81,0,0,0,1.55-.63,5.09,5.09,0,0,0,1.28-1,4.08,4.08,0,0,0,.85-1.29l2.73.75A6.88,6.88,0,0,1,546.36,44a8.29,8.29,0,0,1-1.87,1.49,9.62,9.62,0,0,1-2.36,1A10,10,0,0,1,539.43,46.86Zm6.45-11a6.81,6.81,0,0,0-.67-2.47,6.56,6.56,0,0,0-1.4-1.92,6.43,6.43,0,0,0-6.72-1.25,6.21,6.21,0,0,0-2,1.26,6.56,6.56,0,0,0-1.37,1.93,7,7,0,0,0-.63,2.45Z"/><path class="cls-15" d="M551.13,37.07a10.14,10.14,0,0,1,.69-3.74,9.11,9.11,0,0,1,1.94-3.08,9.34,9.34,0,0,1,3-2.09,9.59,9.59,0,0,1,3.9-.77,9.08,9.08,0,0,1,4.84,1.24A8,8,0,0,1,568.59,32l-3.09,1a5.16,5.16,0,0,0-2-2.07,5.72,5.72,0,0,0-2.88-.74,5.87,5.87,0,0,0-2.45.53,5.71,5.71,0,0,0-2,1.45,7.22,7.22,0,0,0-1.31,2.2,7.92,7.92,0,0,0,0,5.54,7,7,0,0,0,1.35,2.25,6,6,0,0,0,2,1.5,5.54,5.54,0,0,0,2.43.54,5.76,5.76,0,0,0,1.64-.24,6,6,0,0,0,2.64-1.54,3,3,0,0,0,.72-1.14l3.1.94a6.78,6.78,0,0,1-1.21,1.91,7.72,7.72,0,0,1-1.82,1.47,9.68,9.68,0,0,1-2.32,1,9.85,9.85,0,0,1-2.68.36A9.37,9.37,0,0,1,553.8,44a9.68,9.68,0,0,1-2-3.12A10.29,10.29,0,0,1,551.13,37.07Z"/><path class="cls-15" d="M582.06,45.57l-.76.34c-.31.13-.67.26-1.06.4a9.16,9.16,0,0,1-1.3.32,8.62,8.62,0,0,1-1.46.13,4.77,4.77,0,0,1-3-1,3.47,3.47,0,0,1-1.26-3V30.2h-2.56V27.71h2.56V21.45h3.16v6.26h4.22V30.2H576.4V41.86a2,2,0,0,0,.69,1.51,2.32,2.32,0,0,0,1.44.47,4.52,4.52,0,0,0,1.71-.31,7.31,7.31,0,0,0,1.06-.48Z"/><path class="cls-15" d="M585,24.18v-4h3.17v4Zm0,22.32V27.71h3.17V46.5Z"/><path class="cls-15" d="M598.72,46.5l-7.41-18.79h3.27l5.94,16,6-16h3L602.11,46.5Z"/><path class="cls-15" d="M620.32,46.86a9.47,9.47,0,0,1-3.88-.77,9.22,9.22,0,0,1-3-2.11,9.51,9.51,0,0,1-2-3.11,10.42,10.42,0,0,1,0-7.51,9.62,9.62,0,0,1,2-3.09,9.47,9.47,0,0,1,3-2.11,9.68,9.68,0,0,1,3.89-.77,9.19,9.19,0,0,1,6.84,2.9,9.05,9.05,0,0,1,1.89,3.06,10.13,10.13,0,0,1,.67,3.61c0,.27,0,.51,0,.72a4.35,4.35,0,0,1,0,.51H614.1a7.2,7.2,0,0,0,.64,2.55,6.65,6.65,0,0,0,1.41,2,6.39,6.39,0,0,0,2,1.3,5.9,5.9,0,0,0,2.32.47,6,6,0,0,0,1.69-.24,6.63,6.63,0,0,0,1.55-.63,5.09,5.09,0,0,0,1.28-1,4.08,4.08,0,0,0,.85-1.29l2.73.75A6.88,6.88,0,0,1,627.25,44a8.29,8.29,0,0,1-1.87,1.49,9.71,9.71,0,0,1-2.35,1A10.13,10.13,0,0,1,620.32,46.86Zm6.45-11a6.81,6.81,0,0,0-.67-2.47,6.56,6.56,0,0,0-1.4-1.92,6.27,6.27,0,0,0-4.34-1.7,6.25,6.25,0,0,0-2.37.45,6.15,6.15,0,0,0-2,1.26,6.35,6.35,0,0,0-1.36,1.93,7,7,0,0,0-.63,2.45Z"/><path class="cls-15" d="M412.25,90.06a9.48,9.48,0,0,1-3.89-.77,9.22,9.22,0,0,1-3-2.11,9.51,9.51,0,0,1-2-3.11,10.42,10.42,0,0,1,0-7.51,9.62,9.62,0,0,1,2-3.09,9.47,9.47,0,0,1,3-2.11,9.72,9.72,0,0,1,3.89-.77,9.2,9.2,0,0,1,3.87.79A9.11,9.11,0,0,1,421,76.55a9.92,9.92,0,0,1,.67,3.61c0,.27,0,.51,0,.72a4.35,4.35,0,0,1-.05.51H406a7.2,7.2,0,0,0,.65,2.55A6.5,6.5,0,0,0,410,87.22a5.9,5.9,0,0,0,2.32.47,6.12,6.12,0,0,0,1.7-.24,6.73,6.73,0,0,0,1.54-.63,5.09,5.09,0,0,0,1.28-1,3.91,3.91,0,0,0,.85-1.29l2.73.75a6.85,6.85,0,0,1-1.27,1.91,8.35,8.35,0,0,1-1.88,1.49,9.54,9.54,0,0,1-2.35,1A10.11,10.11,0,0,1,412.25,90.06Zm6.44-11a6.8,6.8,0,0,0-2.07-4.39,6.25,6.25,0,0,0-2-1.25,6.34,6.34,0,0,0-2.38-.45,6.25,6.25,0,0,0-2.37.45,6.15,6.15,0,0,0-2,1.26,6.35,6.35,0,0,0-1.36,1.93,7,7,0,0,0-.63,2.45Z"/><path class="cls-15" d="M425.28,63.42h3.17V84.84a2.29,2.29,0,0,0,.55,1.64,2,2,0,0,0,1.57.6,4.56,4.56,0,0,0,.94-.13,6.9,6.9,0,0,0,1-.31L433,89.2a9.73,9.73,0,0,1-1.87.54,10.27,10.27,0,0,1-1.91.22,3.94,3.94,0,0,1-2.9-1A3.88,3.88,0,0,1,425.28,86Z"/><path class="cls-15" d="M443.82,90.06a9.48,9.48,0,0,1-3.89-.77,9.07,9.07,0,0,1-3-2.11,9.37,9.37,0,0,1-2-3.11,10.42,10.42,0,0,1,0-7.51,9.39,9.39,0,0,1,8.91-6,9.2,9.2,0,0,1,3.87.79,9.11,9.11,0,0,1,4.86,5.17,9.92,9.92,0,0,1,.67,3.61c0,.27,0,.51,0,.72a4.35,4.35,0,0,1-.05.51H437.59a7.2,7.2,0,0,0,.65,2.55,6.62,6.62,0,0,0,1.4,2,6.39,6.39,0,0,0,2,1.3,5.91,5.91,0,0,0,2.33.47,6.11,6.11,0,0,0,1.69-.24,6.73,6.73,0,0,0,1.54-.63,4.92,4.92,0,0,0,1.28-1,3.76,3.76,0,0,0,.85-1.29l2.74.75a7.11,7.11,0,0,1-1.28,1.91,8.35,8.35,0,0,1-1.88,1.49,9.54,9.54,0,0,1-2.35,1A10.11,10.11,0,0,1,443.82,90.06Zm6.44-11a6.67,6.67,0,0,0-2.07-4.39,6.41,6.41,0,0,0-6.71-1.25,6,6,0,0,0-2,1.26,6.21,6.21,0,0,0-1.37,1.93,7,7,0,0,0-.63,2.45Z"/><path class="cls-15" d="M485.11,89.7h-3.17V79.19a7.88,7.88,0,0,0-.95-4.35,3.2,3.2,0,0,0-2.83-1.41,5,5,0,0,0-3.47,1.39,7.6,7.6,0,0,0-2.18,3.58V89.7h-3.17V79.19a7.91,7.91,0,0,0-.94-4.39,3.17,3.17,0,0,0-2.8-1.37,5.12,5.12,0,0,0-3.46,1.35,7.44,7.44,0,0,0-2.2,3.58V89.7h-3.16V70.91h2.88v4a8.52,8.52,0,0,1,3-3.22,7.8,7.8,0,0,1,4.14-1.13,5.32,5.32,0,0,1,3.77,1.28,5.57,5.57,0,0,1,1.71,3.29c1.68-3,4.06-4.57,7.16-4.57a5.73,5.73,0,0,1,2.72.59,4.55,4.55,0,0,1,1.74,1.66,7.43,7.43,0,0,1,.94,2.5,16.09,16.09,0,0,1,.29,3.13Z"/><path class="cls-15" d="M498.36,90.06a9.48,9.48,0,0,1-3.89-.77,9.22,9.22,0,0,1-3-2.11,9.51,9.51,0,0,1-2-3.11,10.42,10.42,0,0,1,0-7.51,9.62,9.62,0,0,1,2-3.09,9.47,9.47,0,0,1,3-2.11,9.72,9.72,0,0,1,3.89-.77,9.2,9.2,0,0,1,3.87.79,9.11,9.11,0,0,1,4.86,5.17,9.92,9.92,0,0,1,.67,3.61c0,.27,0,.51,0,.72a4.35,4.35,0,0,1,0,.51H492.13a7.2,7.2,0,0,0,.65,2.55,6.5,6.5,0,0,0,3.36,3.28,5.9,5.9,0,0,0,2.32.47,6.12,6.12,0,0,0,1.7-.24,6.73,6.73,0,0,0,1.54-.63,5.09,5.09,0,0,0,1.28-1,3.91,3.91,0,0,0,.85-1.29l2.73.75a6.85,6.85,0,0,1-1.27,1.91,8.35,8.35,0,0,1-1.88,1.49,9.54,9.54,0,0,1-2.35,1A10.11,10.11,0,0,1,498.36,90.06Zm6.44-11a6.8,6.8,0,0,0-2.07-4.39,6.25,6.25,0,0,0-2-1.25,6.34,6.34,0,0,0-2.38-.45,6.25,6.25,0,0,0-2.37.45,6.15,6.15,0,0,0-2,1.26,6.35,6.35,0,0,0-1.36,1.93,7,7,0,0,0-.63,2.45Z"/><path class="cls-15" d="M527.62,89.7h-3.16V79.19a8.11,8.11,0,0,0-.92-4.39,3.14,3.14,0,0,0-2.79-1.37,5.41,5.41,0,0,0-2,.38,7.39,7.39,0,0,0-1.83,1,6.9,6.9,0,0,0-1.51,1.54,6.54,6.54,0,0,0-1,2V89.7h-3.16V70.91h2.88v4a8.16,8.16,0,0,1,3.22-3.16A9.08,9.08,0,0,1,522,70.59a5.62,5.62,0,0,1,2.7.59,4.67,4.67,0,0,1,1.73,1.66,7.41,7.41,0,0,1,.91,2.5,17,17,0,0,1,.27,3.13Z"/><path class="cls-15" d="M542.1,88.77l-.76.34c-.31.13-.67.26-1.06.4a9.16,9.16,0,0,1-1.3.32,8.62,8.62,0,0,1-1.46.13,4.77,4.77,0,0,1-3-1,3.47,3.47,0,0,1-1.26-3V73.4h-2.56V70.91h2.56V64.65h3.16v6.26h4.22V73.4h-4.22V85.06a2,2,0,0,0,.69,1.51,2.32,2.32,0,0,0,1.44.47,4.52,4.52,0,0,0,1.71-.31,7.31,7.31,0,0,0,1.06-.48Z"/><path class="cls-15" d="M549.87,90.06a6.75,6.75,0,0,1-2.48-.45,6.09,6.09,0,0,1-2-1.24,5.83,5.83,0,0,1-1.33-1.85,5.42,5.42,0,0,1-.49-2.32,4.8,4.8,0,0,1,.58-2.36A5.26,5.26,0,0,1,545.79,80a8.41,8.41,0,0,1,2.52-1.19,11.07,11.07,0,0,1,3.18-.43,15.42,15.42,0,0,1,2.77.25,12.76,12.76,0,0,1,2.49.69V77.82a4.54,4.54,0,0,0-5-4.93,10.48,10.48,0,0,0-6,2.2l-1-2a12.93,12.93,0,0,1,7.31-2.45,8,8,0,0,1,5.78,2,7.36,7.36,0,0,1,2.07,5.58v7.67c0,.74.33,1.12,1,1.15V89.7l-.82.11a5.12,5.12,0,0,1-.69,0,2,2,0,0,1-1.49-.56,2.29,2.29,0,0,1-.67-1.35l-.07-1.33A8.09,8.09,0,0,1,554,89.18,9.71,9.71,0,0,1,549.87,90.06Zm.83-2.37a7.84,7.84,0,0,0,3.15-.63,5.14,5.14,0,0,0,2.21-1.68,2,2,0,0,0,.69-1.4V81.21a13.06,13.06,0,0,0-4.79-.9,6.75,6.75,0,0,0-3.87,1,3,3,0,0,0-1.49,2.62,3.66,3.66,0,0,0,.3,1.48,3.52,3.52,0,0,0,.87,1.19,4.2,4.2,0,0,0,1.31.79A4.52,4.52,0,0,0,550.7,87.69Z"/><path class="cls-15" d="M565.06,63.42h3.17V84.84a2.3,2.3,0,0,0,.56,1.64,2,2,0,0,0,1.57.6,4.47,4.47,0,0,0,.93-.13,7,7,0,0,0,1-.31l.5,2.56a9.53,9.53,0,0,1-1.87.54A10.27,10.27,0,0,1,569,90a3.66,3.66,0,0,1-4-4Z"/><path class="cls-15" d="M588.14,90.06a6.71,6.71,0,0,1-2.48-.45,6.09,6.09,0,0,1-2-1.24,5.85,5.85,0,0,1-1.34-1.85,5.57,5.57,0,0,1-.48-2.32,4.9,4.9,0,0,1,.57-2.36A5.36,5.36,0,0,1,584.05,80a8.65,8.65,0,0,1,2.52-1.19,11.14,11.14,0,0,1,3.19-.43,15.5,15.5,0,0,1,2.77.25,12.65,12.65,0,0,1,2.48.69V77.82a4.53,4.53,0,0,0-5-4.93,10.48,10.48,0,0,0-6,2.2l-1-2a12.92,12.92,0,0,1,7.3-2.45,8,8,0,0,1,5.78,2,7.36,7.36,0,0,1,2.07,5.58v7.67c0,.74.34,1.12,1,1.15V89.7l-.83.11a4.88,4.88,0,0,1-.68,0,2,2,0,0,1-1.5-.56,2.28,2.28,0,0,1-.66-1.35l-.07-1.33a8.16,8.16,0,0,1-3.19,2.57A9.74,9.74,0,0,1,588.14,90.06Zm.83-2.37a7.91,7.91,0,0,0,3.15-.63,5.14,5.14,0,0,0,2.21-1.68A2,2,0,0,0,595,84V81.21a13,13,0,0,0-4.78-.9,6.7,6.7,0,0,0-3.87,1,3,3,0,0,0-1.5,2.62A3.58,3.58,0,0,0,586,86.61a4.14,4.14,0,0,0,1.32.79A4.52,4.52,0,0,0,589,87.69Z"/><path class="cls-15" d="M612.83,88.77c-.19.09-.44.21-.75.34s-.67.26-1.06.4a9.16,9.16,0,0,1-1.3.32,8.62,8.62,0,0,1-1.46.13,4.8,4.8,0,0,1-3-1A3.47,3.47,0,0,1,604,86V73.4h-2.55V70.91H604V64.65h3.17v6.26h4.21V73.4h-4.21V85.06a2,2,0,0,0,.69,1.51,2.28,2.28,0,0,0,1.44.47,4.52,4.52,0,0,0,1.71-.31,7.31,7.31,0,0,0,1.06-.48Z"/><path class="cls-15" d="M625.51,88.77l-.76.34c-.31.13-.67.26-1.06.4a9.16,9.16,0,0,1-1.3.32,8.62,8.62,0,0,1-1.46.13,4.77,4.77,0,0,1-3-1,3.47,3.47,0,0,1-1.26-3V73.4h-2.56V70.91h2.56V64.65h3.16v6.26h4.22V73.4h-4.22V85.06a2,2,0,0,0,.69,1.51A2.32,2.32,0,0,0,622,87a4.52,4.52,0,0,0,1.71-.31,7.31,7.31,0,0,0,1.06-.48Z"/><path class="cls-15" d="M633.28,90.06a6.75,6.75,0,0,1-2.48-.45,6.09,6.09,0,0,1-2-1.24,5.83,5.83,0,0,1-1.33-1.85A5.42,5.42,0,0,1,627,84.2a4.8,4.8,0,0,1,.58-2.36A5.26,5.26,0,0,1,629.2,80a8.41,8.41,0,0,1,2.52-1.19,11.07,11.07,0,0,1,3.18-.43,15.42,15.42,0,0,1,2.77.25,12.76,12.76,0,0,1,2.49.69V77.82a4.54,4.54,0,0,0-5-4.93,10.48,10.48,0,0,0-6,2.2l-1-2a12.93,12.93,0,0,1,7.31-2.45,8,8,0,0,1,5.78,2,7.36,7.36,0,0,1,2.07,5.58v7.67c0,.74.33,1.12,1,1.15V89.7l-.82.11a5.12,5.12,0,0,1-.69,0,2,2,0,0,1-1.49-.56,2.29,2.29,0,0,1-.67-1.35l-.07-1.33a8.09,8.09,0,0,1-3.19,2.57A9.71,9.71,0,0,1,633.28,90.06Zm.83-2.37a7.84,7.84,0,0,0,3.15-.63,5.14,5.14,0,0,0,2.21-1.68,2,2,0,0,0,.69-1.4V81.21a13.06,13.06,0,0,0-4.79-.9,6.75,6.75,0,0,0-3.87,1A3,3,0,0,0,630,83.94a3.66,3.66,0,0,0,.3,1.48,3.52,3.52,0,0,0,.87,1.19,4.2,4.2,0,0,0,1.31.79A4.52,4.52,0,0,0,634.11,87.69Z"/><path class="cls-15" d="M647.14,80.27a10.14,10.14,0,0,1,.69-3.74,9.11,9.11,0,0,1,1.94-3.08,9.34,9.34,0,0,1,3-2.09,9.59,9.59,0,0,1,3.9-.77,9.08,9.08,0,0,1,4.84,1.24,8,8,0,0,1,3.08,3.33l-3.09,1a5.16,5.16,0,0,0-2-2.07,5.74,5.74,0,0,0-2.88-.74,5.87,5.87,0,0,0-2.45.53,5.71,5.71,0,0,0-2,1.45,7.22,7.22,0,0,0-1.31,2.2,7.92,7.92,0,0,0,0,5.54,7,7,0,0,0,1.35,2.25,6,6,0,0,0,2,1.5,5.54,5.54,0,0,0,2.43.54,5.69,5.69,0,0,0,1.63-.24,5.79,5.79,0,0,0,1.48-.63,5.9,5.9,0,0,0,1.17-.91,3,3,0,0,0,.72-1.14l3.1.94a6.78,6.78,0,0,1-1.21,1.91,7.72,7.72,0,0,1-1.82,1.47,9.68,9.68,0,0,1-2.32,1,9.85,9.85,0,0,1-2.68.36,9.37,9.37,0,0,1-6.91-2.91,9.52,9.52,0,0,1-2-3.12A10.29,10.29,0,0,1,647.14,80.27Z"/><path class="cls-15" d="M681.59,89.7l-6.48-9.18-3.6,3.39V89.7h-3.17V63.42h3.17V80.7L681.16,71h3.49l-7.49,7.77,7.85,11Z"/><path class="cls-15" d="M694.34,90.06a14.54,14.54,0,0,1-4.47-.7,11.07,11.07,0,0,1-3.78-2l1.37-2.13a13.32,13.32,0,0,0,3.31,1.89,9.77,9.77,0,0,0,3.49.63,5.76,5.76,0,0,0,3.26-.81,2.58,2.58,0,0,0,1.21-2.28,2,2,0,0,0-.33-1.17,2.64,2.64,0,0,0-1-.85,8.33,8.33,0,0,0-1.65-.65c-.68-.19-1.46-.39-2.34-.61-1.13-.29-2.1-.56-2.92-.83a7.77,7.77,0,0,1-2-.93,3.3,3.3,0,0,1-1.15-1.3,4.33,4.33,0,0,1-.36-1.87,5.45,5.45,0,0,1,.56-2.5,5.25,5.25,0,0,1,1.53-1.84A6.88,6.88,0,0,1,691.37,71a9.81,9.81,0,0,1,2.82-.38,11.36,11.36,0,0,1,4,.68,9.85,9.85,0,0,1,3.1,1.8L699.81,75a8,8,0,0,0-2.67-1.57,9.18,9.18,0,0,0-3-.52,5.52,5.52,0,0,0-2.93.74A2.55,2.55,0,0,0,690,76a2.33,2.33,0,0,0,.23,1.08,2,2,0,0,0,.78.75,6,6,0,0,0,1.38.58q.86.25,2,.54c1.25.29,2.33.58,3.26.88a9.69,9.69,0,0,1,2.3,1.06,4.15,4.15,0,0,1,1.37,1.44,4.22,4.22,0,0,1,.45,2,5,5,0,0,1-2,4.18A8.69,8.69,0,0,1,694.34,90.06Z"/><path class="cls-15" d="M719.46,90.06a6.75,6.75,0,0,1-2.48-.45,6.09,6.09,0,0,1-2-1.24,5.83,5.83,0,0,1-1.33-1.85,5.42,5.42,0,0,1-.49-2.32,4.8,4.8,0,0,1,.58-2.36A5.26,5.26,0,0,1,715.38,80a8.41,8.41,0,0,1,2.52-1.19,11.07,11.07,0,0,1,3.18-.43,15.61,15.61,0,0,1,2.78.25,12.85,12.85,0,0,1,2.48.69V77.82a4.54,4.54,0,0,0-5-4.93,10.48,10.48,0,0,0-6,2.2l-1-2a12.93,12.93,0,0,1,7.31-2.45,8,8,0,0,1,5.78,2,7.36,7.36,0,0,1,2.07,5.58v7.67c0,.74.33,1.12,1,1.15V89.7l-.82.11a5.12,5.12,0,0,1-.69,0,2,2,0,0,1-1.49-.56,2.29,2.29,0,0,1-.67-1.35l-.07-1.33a8.09,8.09,0,0,1-3.19,2.57A9.71,9.71,0,0,1,719.46,90.06Zm.83-2.37a7.84,7.84,0,0,0,3.15-.63,5.24,5.24,0,0,0,2.22-1.68,2,2,0,0,0,.68-1.4V81.21a13.06,13.06,0,0,0-4.79-.9,6.75,6.75,0,0,0-3.87,1,3,3,0,0,0-1.49,2.62,3.66,3.66,0,0,0,.3,1.48,3.52,3.52,0,0,0,.87,1.19,4.2,4.2,0,0,0,1.31.79A4.52,4.52,0,0,0,720.29,87.69Z"/><path class="cls-15" d="M744.52,73.68a8.17,8.17,0,0,0-4.2,1.23,6.22,6.22,0,0,0-2.57,3.2V89.7h-3.17V70.91h2.95v4.36a8.78,8.78,0,0,1,2.56-3.15,6.26,6.26,0,0,1,3.38-1.35h.62a2.72,2.72,0,0,1,.43,0Z"/><path class="cls-15" d="M755.53,90.06a9.47,9.47,0,0,1-3.88-.77,9.22,9.22,0,0,1-3-2.11,9.51,9.51,0,0,1-2-3.11,10.42,10.42,0,0,1,0-7.51,9.62,9.62,0,0,1,2-3.09,9.47,9.47,0,0,1,3-2.11,9.68,9.68,0,0,1,3.89-.77,9.19,9.19,0,0,1,6.84,2.9,9.05,9.05,0,0,1,1.89,3.06,10.13,10.13,0,0,1,.67,3.61c0,.27,0,.51,0,.72a2.74,2.74,0,0,1-.06.51H749.31a7.2,7.2,0,0,0,.64,2.55,6.48,6.48,0,0,0,1.41,2,6.27,6.27,0,0,0,2,1.3,5.9,5.9,0,0,0,2.32.47,6,6,0,0,0,1.69-.24,6.63,6.63,0,0,0,1.55-.63,5.09,5.09,0,0,0,1.28-1,4.08,4.08,0,0,0,.85-1.29l2.73.75a6.88,6.88,0,0,1-1.28,1.91,8.29,8.29,0,0,1-1.87,1.49,9.62,9.62,0,0,1-2.36,1A10,10,0,0,1,755.53,90.06Zm6.45-11a6.81,6.81,0,0,0-.67-2.47,6.56,6.56,0,0,0-1.4-1.92,6.43,6.43,0,0,0-6.72-1.25,6.21,6.21,0,0,0-2,1.26,6.56,6.56,0,0,0-1.37,1.93,7.43,7.43,0,0,0-.63,2.45Z"/><path class="cls-15" d="M408.75,133.26a6.78,6.78,0,0,1-2.48-.45,6.19,6.19,0,0,1-2-1.24,5.83,5.83,0,0,1-1.33-1.85,5.57,5.57,0,0,1-.49-2.32A4.91,4.91,0,0,1,403,125a5.26,5.26,0,0,1,1.64-1.82,8.65,8.65,0,0,1,2.52-1.19,11.07,11.07,0,0,1,3.18-.43,15.53,15.53,0,0,1,2.78.25,12.85,12.85,0,0,1,2.48.69V121a4.54,4.54,0,0,0-5-4.93,10.45,10.45,0,0,0-6,2.2l-1.05-2.05a13,13,0,0,1,7.31-2.45,8,8,0,0,1,5.78,2,7.36,7.36,0,0,1,2.07,5.58V129c0,.74.33,1.12,1,1.15v2.73L419,133a5.12,5.12,0,0,1-.69,0,2,2,0,0,1-1.49-.56,2.35,2.35,0,0,1-.67-1.35l-.07-1.33a8.13,8.13,0,0,1-3.18,2.57A9.79,9.79,0,0,1,408.75,133.26Zm.83-2.37a7.84,7.84,0,0,0,3.15-.63,5.24,5.24,0,0,0,2.22-1.68,2,2,0,0,0,.68-1.4v-2.77a13.06,13.06,0,0,0-4.79-.9,6.75,6.75,0,0,0-3.87,1,3,3,0,0,0-1.49,2.62,3.49,3.49,0,0,0,1.17,2.67,4.2,4.2,0,0,0,1.31.79A4.61,4.61,0,0,0,409.58,130.89Z"/><path class="cls-15" d="M431.36,133.12a7.79,7.79,0,0,1-3.51-.79,8.7,8.7,0,0,1-2.75-2.13,9.5,9.5,0,0,1-1.78-3.06,10.41,10.41,0,0,1-.63-3.6,11.2,11.2,0,0,1,.63-3.76,9.53,9.53,0,0,1,1.78-3.11,8.5,8.5,0,0,1,2.75-2.11,8.14,8.14,0,0,1,3.55-.77,7.2,7.2,0,0,1,4.1,1.15,10.68,10.68,0,0,1,2.92,2.92v-3.75h2.81v18.58a8,8,0,0,1-.76,3.54,7.62,7.62,0,0,1-2.05,2.58,9.2,9.2,0,0,1-3.05,1.58,12.48,12.48,0,0,1-3.72.54,10.65,10.65,0,0,1-5.2-1.1,9.49,9.49,0,0,1-3.33-3l1.83-1.62a7.12,7.12,0,0,0,2.88,2.49,8.92,8.92,0,0,0,3.82.82,8.43,8.43,0,0,0,2.47-.36,5.91,5.91,0,0,0,2-1.08,5.16,5.16,0,0,0,1.38-1.8,5.77,5.77,0,0,0,.53-2.55v-3.31a8.31,8.31,0,0,1-1.28,1.56,7.76,7.76,0,0,1-3.44,1.93A7.79,7.79,0,0,1,431.36,133.12Zm1-2.59a5.43,5.43,0,0,0,1.95-.36,7.14,7.14,0,0,0,1.73-1,6.08,6.08,0,0,0,1.33-1.35,4.3,4.3,0,0,0,.72-1.54v-5.4a7.41,7.41,0,0,0-2.45-3.15,6.16,6.16,0,0,0-1.71-.92,5.45,5.45,0,0,0-1.86-.33,5.31,5.31,0,0,0-2.57.62,6,6,0,0,0-1.93,1.62,7.8,7.8,0,0,0-1.22,2.28,7.94,7.94,0,0,0-.43,2.58,7.23,7.23,0,0,0,.5,2.66,7.37,7.37,0,0,0,1.37,2.2,6.79,6.79,0,0,0,2,1.49A5.86,5.86,0,0,0,432.33,130.53Z"/><path class="cls-15" d="M451.16,133.26a6.75,6.75,0,0,1-2.48-.45,6.09,6.09,0,0,1-2-1.24,5.83,5.83,0,0,1-1.33-1.85,5.42,5.42,0,0,1-.49-2.32,4.8,4.8,0,0,1,.58-2.36,5.33,5.33,0,0,1,1.63-1.82A8.59,8.59,0,0,1,449.6,122a11.07,11.07,0,0,1,3.18-.43,15.42,15.42,0,0,1,2.77.25,12.76,12.76,0,0,1,2.49.69V121a4.54,4.54,0,0,0-5-4.93,10.48,10.48,0,0,0-6,2.2l-1-2.05a12.93,12.93,0,0,1,7.31-2.45,8,8,0,0,1,5.77,2,7.36,7.36,0,0,1,2.07,5.58V129c0,.74.34,1.12,1,1.15v2.73l-.83.11a4.88,4.88,0,0,1-.68,0,2,2,0,0,1-1.49-.56,2.24,2.24,0,0,1-.67-1.35l-.07-1.33a8.09,8.09,0,0,1-3.19,2.57A9.74,9.74,0,0,1,451.16,133.26Zm.83-2.37a7.84,7.84,0,0,0,3.15-.63,5.14,5.14,0,0,0,2.21-1.68,2,2,0,0,0,.69-1.4v-2.77a13.06,13.06,0,0,0-4.79-.9,6.7,6.7,0,0,0-3.87,1,3,3,0,0,0-1.5,2.62,3.67,3.67,0,0,0,.31,1.48,3.39,3.39,0,0,0,.87,1.19,4.2,4.2,0,0,0,1.31.79A4.52,4.52,0,0,0,452,130.89Z"/><path class="cls-15" d="M466.28,110.58v-4h3.17v4Zm0,22.32V114.11h3.17V132.9Z"/><path class="cls-15" d="M490.87,132.9H487.7V122.39a8.11,8.11,0,0,0-.92-4.39,3.13,3.13,0,0,0-2.79-1.37,5.35,5.35,0,0,0-1.94.38,7.45,7.45,0,0,0-1.84,1,7.12,7.12,0,0,0-1.51,1.54,6.76,6.76,0,0,0-1,2V132.9h-3.17V114.11h2.88v4a8.23,8.23,0,0,1,3.22-3.16,9.14,9.14,0,0,1,4.59-1.19,5.62,5.62,0,0,1,2.7.59,4.59,4.59,0,0,1,1.73,1.66,7.42,7.42,0,0,1,.92,2.5,17,17,0,0,1,.27,3.13Z"/><path class="cls-15" d="M502.39,133.26a14.59,14.59,0,0,1-4.47-.7,10.93,10.93,0,0,1-3.77-2l1.36-2.13a13.5,13.5,0,0,0,3.31,1.89,9.78,9.78,0,0,0,3.5.63,5.73,5.73,0,0,0,3.25-.81,2.58,2.58,0,0,0,1.21-2.28,2.09,2.09,0,0,0-.32-1.17,2.72,2.72,0,0,0-1-.85,8.71,8.71,0,0,0-1.66-.65c-.67-.19-1.45-.39-2.34-.61-1.13-.29-2.1-.56-2.92-.83a7.69,7.69,0,0,1-2-.93,3.16,3.16,0,0,1-1.15-1.3,4.18,4.18,0,0,1-.37-1.87,5.45,5.45,0,0,1,.56-2.5,5.35,5.35,0,0,1,1.53-1.84,6.88,6.88,0,0,1,2.29-1.11,9.86,9.86,0,0,1,2.82-.38,11.36,11.36,0,0,1,4,.68,9.85,9.85,0,0,1,3.1,1.8l-1.44,1.91a8.07,8.07,0,0,0-2.66-1.57,9.28,9.28,0,0,0-3-.52,5.52,5.52,0,0,0-2.93.74,2.55,2.55,0,0,0-1.21,2.36,2.21,2.21,0,0,0,.24,1.08,1.92,1.92,0,0,0,.77.75,5.93,5.93,0,0,0,1.39.58c.56.17,1.24.35,2,.54,1.25.29,2.33.58,3.26.88a9.69,9.69,0,0,1,2.3,1.06,4.15,4.15,0,0,1,1.37,1.44,4.22,4.22,0,0,1,.45,2,5,5,0,0,1-2,4.18A8.69,8.69,0,0,1,502.39,133.26Z"/><path class="cls-15" d="M523.3,132c-.19.09-.44.21-.75.34s-.67.26-1.06.4a9.16,9.16,0,0,1-1.3.32,8.62,8.62,0,0,1-1.46.13,4.8,4.8,0,0,1-3-1,3.47,3.47,0,0,1-1.26-3V116.6h-2.55v-2.49h2.55v-6.26h3.17v6.26h4.21v2.49h-4.21v11.66a2,2,0,0,0,.69,1.51,2.28,2.28,0,0,0,1.44.47,4.52,4.52,0,0,0,1.71-.31,7.31,7.31,0,0,0,1.06-.48Z"/><path class="cls-15" d="M545.08,132c-.19.09-.44.21-.75.34s-.67.26-1.06.4a9.16,9.16,0,0,1-1.3.32,8.62,8.62,0,0,1-1.46.13,4.8,4.8,0,0,1-3-1,3.47,3.47,0,0,1-1.26-3V116.6h-2.55v-2.49h2.55v-6.26h3.17v6.26h4.21v2.49h-4.21v11.66a2,2,0,0,0,.69,1.51,2.28,2.28,0,0,0,1.44.47,4.52,4.52,0,0,0,1.71-.31,7.88,7.88,0,0,0,1.06-.48Z"/><path class="cls-15" d="M564.34,132.9h-3.16V122.39a7.58,7.58,0,0,0-1-4.34,3.42,3.42,0,0,0-2.95-1.42,5,5,0,0,0-1.88.38,6.71,6.71,0,0,0-1.74,1,7.31,7.31,0,0,0-1.44,1.54,7,7,0,0,0-1,2V132.9H548V106.62h3.17v11.52a8.34,8.34,0,0,1,3-3.2,7.89,7.89,0,0,1,4.17-1.15,5.89,5.89,0,0,1,2.81.61,4.92,4.92,0,0,1,1.84,1.66,7.43,7.43,0,0,1,1,2.5,15.41,15.41,0,0,1,.3,3.11Z"/><path class="cls-15" d="M577.59,133.26a9.55,9.55,0,0,1-3.89-.77,9.28,9.28,0,0,1-3-2.11,9.51,9.51,0,0,1-2-3.11,10.42,10.42,0,0,1,0-7.51,9.62,9.62,0,0,1,2-3.09,9.37,9.37,0,0,1,3-2.11,9.65,9.65,0,0,1,3.89-.77,9.19,9.19,0,0,1,6.84,2.9,9.38,9.38,0,0,1,1.89,3.06,10.12,10.12,0,0,1,.66,3.61c0,.27,0,.51,0,.72a4,4,0,0,1-.06.51H571.36a7.42,7.42,0,0,0,.65,2.55,6.48,6.48,0,0,0,1.41,2,6.27,6.27,0,0,0,2,1.3,5.87,5.87,0,0,0,2.32.47,6,6,0,0,0,1.69-.24,6.81,6.81,0,0,0,1.55-.63,5.09,5.09,0,0,0,1.28-1,3.88,3.88,0,0,0,.84-1.29l2.74.75a6.88,6.88,0,0,1-1.28,1.91,8.29,8.29,0,0,1-1.87,1.49,9.62,9.62,0,0,1-2.36,1A10,10,0,0,1,577.59,133.26Zm6.45-11a7,7,0,0,0-.67-2.47,6.56,6.56,0,0,0-1.4-1.92,6.43,6.43,0,0,0-6.72-1.25,6.1,6.1,0,0,0-2,1.26,6.56,6.56,0,0,0-1.37,1.93,7,7,0,0,0-.63,2.45Z"/><path class="cls-15" d="M597.14,133.26a14.59,14.59,0,0,1-4.47-.7,10.93,10.93,0,0,1-3.77-2l1.36-2.13a13.5,13.5,0,0,0,3.31,1.89,9.78,9.78,0,0,0,3.5.63,5.73,5.73,0,0,0,3.25-.81,2.58,2.58,0,0,0,1.21-2.28,2.09,2.09,0,0,0-.32-1.17,2.72,2.72,0,0,0-1-.85,8.71,8.71,0,0,0-1.66-.65c-.67-.19-1.45-.39-2.34-.61-1.13-.29-2.1-.56-2.92-.83a7.69,7.69,0,0,1-2-.93,3.16,3.16,0,0,1-1.15-1.3,4.18,4.18,0,0,1-.37-1.87,5.45,5.45,0,0,1,.56-2.5,5.35,5.35,0,0,1,1.53-1.84,6.88,6.88,0,0,1,2.29-1.11,9.86,9.86,0,0,1,2.82-.38,11.36,11.36,0,0,1,4,.68,9.85,9.85,0,0,1,3.1,1.8l-1.44,1.91a8.07,8.07,0,0,0-2.66-1.57,9.28,9.28,0,0,0-3-.52,5.52,5.52,0,0,0-2.93.74,2.55,2.55,0,0,0-1.21,2.36,2.21,2.21,0,0,0,.24,1.08,1.92,1.92,0,0,0,.77.75,5.93,5.93,0,0,0,1.39.58c.56.17,1.24.35,2,.54,1.25.29,2.33.58,3.26.88a9.69,9.69,0,0,1,2.3,1.06,4.15,4.15,0,0,1,1.37,1.44,4.22,4.22,0,0,1,.45,2,5,5,0,0,1-2,4.18A8.69,8.69,0,0,1,597.14,133.26Z"/><path class="cls-15" d="M616.65,133.26a9.51,9.51,0,0,1-3.89-.77,9.29,9.29,0,0,1-5-5.22,10.28,10.28,0,0,1,0-7.51,9.41,9.41,0,0,1,5-5.2,9.65,9.65,0,0,1,3.89-.77,9.19,9.19,0,0,1,6.84,2.9,9.38,9.38,0,0,1,1.89,3.06,10.12,10.12,0,0,1,.66,3.61c0,.27,0,.51,0,.72a4.35,4.35,0,0,1,0,.51H610.42a7.2,7.2,0,0,0,.65,2.55,6.62,6.62,0,0,0,1.4,2,6.31,6.31,0,0,0,2,1.3,5.87,5.87,0,0,0,2.32.47,6.05,6.05,0,0,0,1.69-.24A6.81,6.81,0,0,0,620,130a5.27,5.27,0,0,0,1.28-1,3.88,3.88,0,0,0,.84-1.29l2.74.75a6.88,6.88,0,0,1-1.28,1.91,8.29,8.29,0,0,1-1.87,1.49,9.78,9.78,0,0,1-2.36,1A10,10,0,0,1,616.65,133.26Zm6.44-11a6.8,6.8,0,0,0-.66-2.47,6.41,6.41,0,0,0-1.41-1.92,6.14,6.14,0,0,0-2-1.25,6.49,6.49,0,0,0-4.75,0,6.1,6.1,0,0,0-2,1.26A6.38,6.38,0,0,0,611,119.8a7,7,0,0,0-.63,2.45Z"/><path class="cls-15" d="M637.46,123.47a10.14,10.14,0,0,1,.68-3.74,9.26,9.26,0,0,1,1.94-3.08,9.45,9.45,0,0,1,3-2.09,9.64,9.64,0,0,1,3.91-.77,9.1,9.1,0,0,1,4.84,1.24,8.16,8.16,0,0,1,3.08,3.33l-3.1,1a5.1,5.1,0,0,0-2-2.07,5.72,5.72,0,0,0-2.88-.74,5.79,5.79,0,0,0-2.44.53,5.71,5.71,0,0,0-2,1.45,7.24,7.24,0,0,0-1.32,2.2,8.07,8.07,0,0,0,0,5.54,7.41,7.41,0,0,0,1.35,2.25,6.26,6.26,0,0,0,2,1.5,5.61,5.61,0,0,0,2.43.54,6.29,6.29,0,0,0,3.11-.87,5.38,5.38,0,0,0,1.17-.91,3,3,0,0,0,.72-1.14l3.1.94a7,7,0,0,1-1.2,1.91,7.93,7.93,0,0,1-1.82,1.47,10,10,0,0,1-5,1.33,9.41,9.41,0,0,1-6.91-2.91,9.66,9.66,0,0,1-2-3.12A10.09,10.09,0,0,1,637.46,123.47Z"/><path class="cls-15" d="M668.6,116.88a8.15,8.15,0,0,0-4.2,1.23,6.22,6.22,0,0,0-2.57,3.2V132.9h-3.17V114.11h3v4.36a8.78,8.78,0,0,1,2.56-3.15,6.23,6.23,0,0,1,3.38-1.35h.61a2.76,2.76,0,0,1,.44,0Z"/><path class="cls-15" d="M679.61,133.26a9.55,9.55,0,0,1-3.89-.77,9.28,9.28,0,0,1-3-2.11,9.51,9.51,0,0,1-2-3.11,10.42,10.42,0,0,1,0-7.51,9.62,9.62,0,0,1,2-3.09,9.37,9.37,0,0,1,3-2.11,9.68,9.68,0,0,1,3.89-.77,9.19,9.19,0,0,1,6.84,2.9,9.38,9.38,0,0,1,1.89,3.06,10.12,10.12,0,0,1,.66,3.61c0,.27,0,.51,0,.72a4,4,0,0,1-.06.51H673.38a7.42,7.42,0,0,0,.65,2.55,6.48,6.48,0,0,0,1.41,2,6.27,6.27,0,0,0,2,1.3,5.87,5.87,0,0,0,2.32.47,6,6,0,0,0,1.69-.24A6.81,6.81,0,0,0,683,130a5.09,5.09,0,0,0,1.28-1,3.88,3.88,0,0,0,.84-1.29l2.74.75a6.88,6.88,0,0,1-1.28,1.91,8.29,8.29,0,0,1-1.87,1.49,9.62,9.62,0,0,1-2.36,1A10,10,0,0,1,679.61,133.26Zm6.45-11a7,7,0,0,0-.67-2.47,6.56,6.56,0,0,0-1.4-1.92,6.43,6.43,0,0,0-6.72-1.25,6.1,6.1,0,0,0-2,1.26,6.56,6.56,0,0,0-1.37,1.93,7,7,0,0,0-.63,2.45Z"/><path class="cls-15" d="M697.4,133.26a6.8,6.8,0,0,1-2.49-.45,6.19,6.19,0,0,1-2-1.24,6,6,0,0,1-1.33-1.85,5.57,5.57,0,0,1-.48-2.32,4.9,4.9,0,0,1,.57-2.36,5.36,5.36,0,0,1,1.64-1.82,8.65,8.65,0,0,1,2.52-1.19,11.09,11.09,0,0,1,3.19-.43,15.5,15.5,0,0,1,2.77.25,12.85,12.85,0,0,1,2.48.69V121a4.53,4.53,0,0,0-5-4.93,10.48,10.48,0,0,0-6,2.2l-1.05-2.05a13,13,0,0,1,7.31-2.45,8,8,0,0,1,5.78,2,7.36,7.36,0,0,1,2.07,5.58V129c0,.74.34,1.12,1,1.15v2.73l-.83.11a5.07,5.07,0,0,1-.68,0,2,2,0,0,1-1.5-.56,2.28,2.28,0,0,1-.66-1.35l-.08-1.33a8.13,8.13,0,0,1-3.18,2.57A9.77,9.77,0,0,1,697.4,133.26Zm.82-2.37a7.84,7.84,0,0,0,3.15-.63,5.18,5.18,0,0,0,2.22-1.68,2,2,0,0,0,.68-1.4v-2.77a13,13,0,0,0-4.79-.9,6.75,6.75,0,0,0-3.87,1,3,3,0,0,0-1.49,2.62,3.58,3.58,0,0,0,1.17,2.67,4.2,4.2,0,0,0,1.31.79A4.61,4.61,0,0,0,698.22,130.89Z"/><path class="cls-15" d="M722.09,132c-.19.09-.44.21-.76.34s-.66.26-1.06.4a9.06,9.06,0,0,1-2.75.45,4.8,4.8,0,0,1-3-1,3.47,3.47,0,0,1-1.26-3V116.6h-2.55v-2.49h2.55v-6.26h3.17v6.26h4.21v2.49h-4.21v11.66a2,2,0,0,0,.68,1.51,2.32,2.32,0,0,0,1.44.47,4.45,4.45,0,0,0,1.71-.31,6.82,6.82,0,0,0,1.06-.48Z"/><path class="cls-15" d="M730.84,133.26a5.28,5.28,0,0,1-4.47-2,9.68,9.68,0,0,1-1.51-5.9V114.11H728v10.66q0,5.76,4,5.76a6.16,6.16,0,0,0,3.65-1.24,7.35,7.35,0,0,0,2.54-3.41V114.11h3.17V129c0,.74.33,1.12,1,1.15v2.73c-.37,0-.65.08-.85.09s-.4,0-.6,0a2.23,2.23,0,0,1-1.56-.56,1.91,1.91,0,0,1-.67-1.38l-.07-2.2a8.7,8.7,0,0,1-3.31,3.26A9.11,9.11,0,0,1,730.84,133.26Z"/><path class="cls-15" d="M756.61,116.88a8.14,8.14,0,0,0-4.19,1.23,6.22,6.22,0,0,0-2.57,3.2V132.9h-3.17V114.11h3v4.36a8.78,8.78,0,0,1,2.56-3.15,6.23,6.23,0,0,1,3.38-1.35h.61a2.63,2.63,0,0,1,.43,0Z"/><path class="cls-15" d="M767.63,133.26a9.51,9.51,0,0,1-3.89-.77,9.29,9.29,0,0,1-5-5.22,10.28,10.28,0,0,1,0-7.51,9.41,9.41,0,0,1,5-5.2,9.65,9.65,0,0,1,3.89-.77,9.19,9.19,0,0,1,6.84,2.9,9.38,9.38,0,0,1,1.89,3.06,10.12,10.12,0,0,1,.66,3.61c0,.27,0,.51,0,.72a4.35,4.35,0,0,1,0,.51H761.4a7.2,7.2,0,0,0,.65,2.55,6.62,6.62,0,0,0,1.4,2,6.31,6.31,0,0,0,2,1.3,5.87,5.87,0,0,0,2.32.47,6.05,6.05,0,0,0,1.69-.24A6.81,6.81,0,0,0,771,130a5.27,5.27,0,0,0,1.28-1,3.88,3.88,0,0,0,.84-1.29l2.74.75a6.88,6.88,0,0,1-1.28,1.91,8.29,8.29,0,0,1-1.87,1.49,9.78,9.78,0,0,1-2.36,1A10,10,0,0,1,767.63,133.26Zm6.44-11a6.8,6.8,0,0,0-.66-2.47,6.59,6.59,0,0,0-1.41-1.92,6.41,6.41,0,0,0-6.71-1.25,6.1,6.1,0,0,0-2,1.26A6.38,6.38,0,0,0,762,119.8a7,7,0,0,0-.63,2.45Z"/><path class="cls-15" d="M787.18,133.26a14.54,14.54,0,0,1-4.47-.7,11.07,11.07,0,0,1-3.78-2l1.37-2.13a13.5,13.5,0,0,0,3.31,1.89,9.78,9.78,0,0,0,3.5.63,5.75,5.75,0,0,0,3.25-.81,2.58,2.58,0,0,0,1.21-2.28,2,2,0,0,0-.33-1.17,2.64,2.64,0,0,0-1-.85,8.33,8.33,0,0,0-1.65-.65c-.67-.19-1.46-.39-2.34-.61-1.13-.29-2.1-.56-2.92-.83a7.77,7.77,0,0,1-2-.93,3.3,3.3,0,0,1-1.15-1.3,4.33,4.33,0,0,1-.36-1.87,5.45,5.45,0,0,1,.56-2.5,5.25,5.25,0,0,1,1.53-1.84,6.88,6.88,0,0,1,2.29-1.11,9.86,9.86,0,0,1,2.82-.38,11.36,11.36,0,0,1,4,.68,9.85,9.85,0,0,1,3.1,1.8l-1.44,1.91a8.07,8.07,0,0,0-2.66-1.57,9.28,9.28,0,0,0-3-.52,5.52,5.52,0,0,0-2.93.74,2.55,2.55,0,0,0-1.21,2.36,2.21,2.21,0,0,0,.24,1.08,1.92,1.92,0,0,0,.77.75,6,6,0,0,0,1.38.58q.85.25,2,.54c1.25.29,2.33.58,3.26.88a9.69,9.69,0,0,1,2.3,1.06,4.15,4.15,0,0,1,1.37,1.44,4.22,4.22,0,0,1,.45,2,5,5,0,0,1-2,4.18A8.69,8.69,0,0,1,787.18,133.26Z"/><path class="cls-15" d="M96.55,587.68a98,98,0,0,1,5.51-33.1,103.57,103.57,0,0,1,16.35-29.37,141,141,0,0,1,24-23.65,203.51,203.51,0,0,1,28.29-18.37,307,307,0,0,1,62.53-25c10.82-3.09,21.8-5.57,32.85-7.64q8.28-1.56,16.65-2.65c5.57-.72,11.16-1.35,16.77-1.69l.06.77c-11.14,1.12-22.2,3-33.17,5.18s-21.84,4.94-32.59,8c-21.49,6.19-42.61,13.91-62.37,24.43a202.19,202.19,0,0,0-28.25,18,140.28,140.28,0,0,0-24,23.26,102.36,102.36,0,0,0-16.56,29,97.27,97.27,0,0,0-5.86,32.9Z"/><polygon class="cls-15" points="313.65 446.06 294.14 455.08 298.49 446.75 293.41 438.84 313.65 446.06"/><path class="cls-15" d="M599.75,146.65c-.52,9-2.47,18-6.72,26a51.64,51.64,0,0,1-18.37,19.66,80,80,0,0,1-25.17,10,143.6,143.6,0,0,1-26.92,3.25,271.25,271.25,0,0,1-54-4.22c-8.91-1.53-17.73-3.46-26.49-5.62s-17.45-4.65-26.05-7.36l.26-.87a531,531,0,0,0,52.63,11.82c17.7,3,35.62,5.11,53.58,4.73a143.23,143.23,0,0,0,26.7-2.94,79.81,79.81,0,0,0,24.94-9.58,50.79,50.79,0,0,0,18.36-19.13c4.31-7.88,6.39-16.83,7-25.79Z"/><polygon class="cls-15" points="402.72 183.68 424.13 181.75 417.23 188.13 419.36 197.29 402.72 183.68"/></g></svg>