<svg xmlns="http://www.w3.org/2000/svg" viewBox="0 0 17 15.92"><defs><style>.cls-1{fill:#f8afa7;}.cls-2{fill:#fff;}.cls-3{fill:#e57e7c;}.cls-4{fill:#361b1f;}.cls-5{fill:none;stroke:#361b1f;stroke-linecap:round;stroke-linejoin:round;stroke-width:0.25px;}</style></defs><title>Artboard 5</title><g id="Layer_7" data-name="Layer 7"><path class="cls-1" d="M16.47,9.83c0,3.86-3.38,5.58-7.74,5.58S.45,13.61.45,9.75,3.91,3.8,8,3.29C12.3,2.75,16.47,6,16.47,9.83Z"/><ellipse class="cls-2" cx="12.97" cy="6.07" rx="1.11" ry="2.77" transform="translate(0.37 12.86) rotate(-53.37)"/><ellipse class="cls-3" cx="8.46" cy="12.42" rx="5.13" ry="2.34"/><circle class="cls-1" cx="13.35" cy="1.15" r="0.81"/><circle class="cls-1" cx="12.89" cy="3.44" r="1.05"/><circle class="cls-4" cx="3.88" cy="8.78" r="1.14"/><circle class="cls-4" cx="9.6" cy="10.08" r="1.14"/><circle class="cls-2" cx="3.6" cy="8.35" r="0.28"/><circle class="cls-2" cx="9.35" cy="9.64" r="0.25"/><path class="cls-5" d="M7.28,12.4c-1.22,1-1.56-.37-1.56-.37s-1.31.58-.75-.21"/><ellipse class="cls-2" cx="13.35" cy="3.06" rx="0.25" ry="0.41" transform="translate(2.38 11.27) rotate(-49.73)"/><ellipse class="cls-2" cx="13.68" cy="0.79" rx="0.19" ry="0.31" transform="translate(4.24 10.72) rotate(-49.73)"/></g></svg>