<svg xmlns="http://www.w3.org/2000/svg" viewBox="0 0 800 700"><defs><style>.cls-1,.cls-14{fill:#e57e7c;}.cls-1{opacity:0.74;}.cls-2{fill:#d7d7d7;}.cls-10,.cls-11,.cls-14,.cls-2,.cls-3,.cls-4,.cls-7,.cls-8,.cls-9{stroke:#fff;}.cls-3{fill:#b4b4b4;}.cls-4,.cls-5,.cls-6{fill:#9b9b9b;}.cls-5{stroke:#939393;}.cls-7{fill:#ccc;}.cls-8{fill:#a0a0a0;}.cls-9{fill:#a2a2a2;}.cls-10{fill:#adadad;}.cls-11{fill:#cdcdcd;}.cls-12{font-size:42px;font-family:Raleway-Medium, Raleway;}.cls-12,.cls-15{fill:#253031;}.cls-13{letter-spacing:0em;}.cls-16{letter-spacing:-0.02em;}</style></defs><title>selector_annotated</title><g id="Layer_3" data-name="Layer 3"><ellipse class="cls-1" cx="620.85" cy="137.07" rx="57.57" ry="52.39"/><rect class="cls-1" x="694.74" y="236.17" width="48.61" height="48.61" rx="24.3" ry="24.3"/></g><g id="Layer_1" data-name="Layer 1"><path class="cls-2" d="M56.13,421a20,20,0,0,1-20-20c0-.55,0-1.11.07-1.66a258.34,258.34,0,0,1,8.9-49,20,20,0,0,1,24.66-13.79c.53.15,1.06.32,1.58.52h0a20,20,0,0,1,12.21,24.14A219.1,219.1,0,0,0,76,402.73,20,20,0,0,1,56.13,421Z"/><path class="cls-3" d="M71.36,337.09a20,20,0,0,1-11.68-25.73c.19-.52.41-1,.65-1.53,61.42-129.64,216.3-184.94,345.94-123.52a259.75,259.75,0,0,1,52,32.69,20,20,0,0,1,3,28.1c-.35.43-.71.84-1.1,1.25h0a20,20,0,0,1-27,1.73c-94.42-76.28-232.8-61.57-309.08,32.85a219.77,219.77,0,0,0-27.65,44A20,20,0,0,1,71.36,337.09Z"/><path class="cls-4" d="M460.17,248.35a20,20,0,0,1,28.25-.64c.4.39.79.79,1.16,1.2a259.74,259.74,0,0,1,48.07,264.94,20,20,0,0,1-25.8,11.52q-.77-.3-1.53-.66h0a20,20,0,0,1-10-25.14,219.77,219.77,0,0,0-40.68-224.18A20,20,0,0,1,460.17,248.35Z"/><line id="g_line0_2" data-name="g line0 2" class="cls-5" x1="490.66" y1="250.15" x2="611.03" y2="144.98"/><g id="g_circle0_2" data-name="g circle0 2"><circle class="cls-6" cx="611.03" cy="144.98" r="23.98" transform="translate(370.05 724.9) rotate(-80.78)"/><circle id="type_circles0_2" data-name="type circles0 2" class="cls-6" cx="613.18" cy="113.09" r="7.99"/><circle id="type_circles0_2-2" data-name="type circles0 2" class="cls-6" cx="642.93" cy="147.13" r="7.99"/><circle id="type_circles0_2-3" data-name="type circles0 2" class="cls-6" cx="644.14" cy="116.06" r="7.99"/></g><line id="g_line1_2" data-name="g line1 2" class="cls-5" x1="518.03" y1="287.82" x2="655.25" y2="205.84"/><g id="g_circle1_2" data-name="g circle1 2"><circle class="cls-6" cx="655.25" cy="205.84" r="23.98"/><circle id="type_circles1_2" data-name="type circles1 2" class="cls-6" cx="663.06" cy="174.84" r="7.99"/><circle id="type_circles1_2-2" data-name="type circles1 2" class="cls-6" cx="682.69" cy="189.44" r="7.99"/><circle id="type_circles1_2-3" data-name="type circles1 2" class="cls-6" cx="686.25" cy="213.65" r="7.99"/><circle id="type_circles1_2-4" data-name="type circles1 2" class="cls-6" cx="681.48" cy="170.57" r="7.99"/><circle id="type_circles1_2-5" data-name="type circles1 2" class="cls-6" cx="698.74" cy="199.45" r="7.99"/></g><line id="g_line2_2" data-name="g line2 2" class="cls-5" x1="538.24" y1="329.78" x2="687.89" y2="273.61"/><g id="g_circle2_2" data-name="g circle2 2"><circle class="cls-6" cx="687.89" cy="273.61" r="23.98"/><circle id="type_circles2_2" data-name="type circles2 2" class="cls-6" cx="717.82" cy="262.38" r="7.99"/></g><line id="g_line3_2" data-name="g line3 2" class="cls-5" x1="550.63" y1="374.66" x2="707.9" y2="346.12"/><g id="g_circle3_2" data-name="g circle3 2"><circle class="cls-6" cx="707.9" cy="346.12" r="23.98"/><circle id="type_circles3_2" data-name="type circles3 2" class="cls-6" cx="739.35" cy="340.42" r="7.99" transform="translate(-48.9 137.49) rotate(-10.29)"/></g><line id="g_line4_2" data-name="g line4 2" class="cls-5" x1="554.8" y1="421.04" x2="714.64" y2="421.04"/><g id="g_circle4_2" data-name="g circle4 2"><circle class="cls-6" cx="714.64" cy="421.04" r="23.98"/><circle id="type_circles4_2" data-name="type circles4 2" class="cls-6" cx="746.61" cy="421.04" r="7.99"/></g><line id="g_line5_2" data-name="g line5 2" class="cls-5" x1="550.63" y1="467.42" x2="707.9" y2="495.96"/><g id="g_circle5_2" data-name="g circle5 2"><circle class="cls-6" cx="707.9" cy="495.96" r="23.98"/><circle id="type_circles5_2" data-name="type circles5 2" class="cls-6" cx="734.18" cy="477.76" r="7.99" transform="translate(133 1114.83) rotate(-79.71)"/><circle id="type_circles5_2-2" data-name="type circles5 2" class="cls-6" cx="726.1" cy="522.24" r="7.99" transform="translate(82.61 1143.43) rotate(-79.71)"/></g><line id="g_line6_2" data-name="g line6 2" class="cls-5" x1="538.24" y1="512.31" x2="687.89" y2="568.47"/><g id="g_circle6_2" data-name="g circle6 2"><circle class="cls-6" cx="687.89" cy="568.47" r="23.98"/><circle id="type_circles6_2" data-name="type circles6 2" class="cls-6" cx="717.82" cy="579.71" r="7.99" transform="translate(-77.15 1048.06) rotate(-69.43)"/></g><path class="cls-7" d="M510.32,524.71a20,20,0,0,1,9.34,26.67c-.24.5-.51,1-.79,1.47a259.93,259.93,0,0,1-29.29,40.32,20,20,0,0,1-28.21,1.73c-.41-.37-.81-.76-1.2-1.16h0a20,20,0,0,1-.52-27,219.59,219.59,0,0,0,24.79-34.12A20,20,0,0,1,510.32,524.71Z"/><path class="cls-8" d="M460.17,593.74a20,20,0,0,1-.63,28.25c-.4.38-.82.75-1.25,1.1a259.72,259.72,0,0,1-130,55.56,20,20,0,0,1-22.37-17.26c-.07-.55-.12-1.1-.14-1.66h0A20,20,0,0,1,323.18,639a219.82,219.82,0,0,0,110-47A20,20,0,0,1,460.17,593.74Z"/><path class="cls-9" d="M305.78,659.73a20,20,0,0,1-19.07,20.86c-.55,0-1.11,0-1.66,0a259.44,259.44,0,0,1-49.39-6.69,20,20,0,0,1-14.88-24c.12-.54.27-1.07.44-1.6h0A20,20,0,0,1,244.8,635a219.63,219.63,0,0,0,41.79,5.66A20,20,0,0,1,305.78,659.73Z"/><path class="cls-10" d="M221.22,648.28a20,20,0,0,1-25.17,12.83c-.53-.18-1.05-.37-1.56-.58a259.42,259.42,0,0,1-43.89-23.62,20,20,0,0,1-5.5-27.72c.31-.46.64-.91,1-1.34h0a20,20,0,0,1,26.73-4.15,219.89,219.89,0,0,0,37.14,20A20,20,0,0,1,221.22,648.28Z"/><path class="cls-11" d="M146.09,607.85A20,20,0,0,1,118,611c-.44-.35-.86-.71-1.26-1.09A259.75,259.75,0,0,1,36.22,442.69a20,20,0,0,1,18.24-21.58c.56,0,1.11-.07,1.67-.07h0A20,20,0,0,1,76,439.36a219.81,219.81,0,0,0,68.14,141.5A20,20,0,0,1,146.09,607.85Z"/></g><g id="annotations"><text class="cls-12" transform="translate(150.45 340.42)">Species <tspan class="cls-13" x="165.69" y="0">N</tspan><tspan x="197.82" y="0">ame</tspan></text><text class="cls-12" transform="translate(234.44 540.39)">Genus</text><path class="cls-14" d="M460.17,248.35a20,20,0,0,1,28.25-.64c.4.39.79.79,1.16,1.2a259.74,259.74,0,0,1,48.07,264.94,20,20,0,0,1-25.8,11.52q-.77-.3-1.53-.66h0a20,20,0,0,1-10-25.14,219.77,219.77,0,0,0-40.68-224.18A20,20,0,0,1,460.17,248.35Z"/><path class="cls-15" d="M341.27,501.71A124.2,124.2,0,0,1,348.62,477a152.68,152.68,0,0,1,11.75-23,149.45,149.45,0,0,1,15.52-20.66,144.73,144.73,0,0,1,18.83-17.71,163.07,163.07,0,0,1,45.08-25c2-.73,4-1.53,6.09-2.19l6.2-1.86,3.1-.93c1-.29,2.09-.52,3.14-.78l6.28-1.53c2.09-.57,4.22-.87,6.34-1.3l6.35-1.2c4.26-.66,8.53-1.19,12.8-1.76l0,.29-12.75,2-6.32,1.29c-2.1.45-4.22.78-6.29,1.37l-6.25,1.61c-1,.27-2.08.52-3.11.82l-3.07,1-6.15,1.93c-2,.69-4,1.47-6.05,2.19-4.07,1.39-8,3.19-11.92,4.87-1,.4-2,.89-2.91,1.37l-2.88,1.43c-1.92,1-3.87,1.86-5.71,3l-5.61,3.16c-1.83,1.12-3.63,2.3-5.44,3.45-.89.59-1.83,1.12-2.69,1.76l-2.62,1.87c-1.73,1.27-3.52,2.46-5.16,3.85a144,144,0,0,0-18.85,17.51,151.74,151.74,0,0,0-27.47,43.34,123.65,123.65,0,0,0-7.52,24.64Z"/><polygon class="cls-15" points="497.14 378.43 487.74 383.63 489.6 379.32 486.78 375.56 497.14 378.43"/><text class="cls-12" transform="translate(340.61 124.05)">Species</text><text class="cls-12" transform="translate(457.43 52.17)">Obser<tspan class="cls-16" x="118.4" y="0">v</tspan><tspan x="140.24" y="0">ed types</tspan></text><path class="cls-15" d="M437.23,137A74.06,74.06,0,0,0,449.35,145a105.61,105.61,0,0,0,13.22,5.92,118,118,0,0,0,28.16,6.47,136.76,136.76,0,0,0,28.89-.24,177.62,177.62,0,0,0,28.4-5.59l.13.41a146,146,0,0,1-28.42,6.17,129.12,129.12,0,0,1-29.08,0,118.17,118.17,0,0,1-28.24-6.8,105.91,105.91,0,0,1-13.2-6.1,74.23,74.23,0,0,1-12-8.11Z"/><polygon class="cls-15" points="554.8 149.56 546.56 156.45 547.58 151.86 544.09 148.71 554.8 149.56"/><path class="cls-15" d="M726.22,66.29l4,3.9,2,2c.68.66,1.29,1.37,1.93,2l3.83,4.14c1.23,1.42,2.39,2.89,3.59,4.34l1.78,2.18,1.65,2.28c1.09,1.54,2.23,3,3.26,4.6l3,4.78a28,28,0,0,1,1.4,2.44l1.34,2.48a104.14,104.14,0,0,1,8.37,20.91,103,103,0,0,1,3.48,22.28A119.85,119.85,0,0,1,759.21,189a144.84,144.84,0,0,1-9,20.7c-1.72,3.35-3.6,6.61-5.55,9.82s-4,6.35-6.24,9.39l-.25-.19a166.09,166.09,0,0,0,20-40c4.8-14.14,7.49-29.1,6.9-44.06a99.54,99.54,0,0,0-11.51-43l-1.31-2.49A27.81,27.81,0,0,0,751,96.73L748,91.94c-1-1.57-2.15-3.07-3.21-4.61L743.18,85l-1.76-2.19c-1.19-1.45-2.33-2.94-3.55-4.36l-3.78-4.16c-.64-.69-1.24-1.41-1.91-2.07l-2-2-4-3.94Z"/><polygon class="cls-15" points="734.1 234.49 736.74 224.07 738.61 228.39 743.28 228.9 734.1 234.49"/></g></svg>