<svg xmlns="http://www.w3.org/2000/svg" viewBox="0 0 800 700"><defs><style>.cls-1,.cls-13{fill:#e57e7c;}.cls-1{opacity:0.74;}.cls-2{fill:#d7d7d7;}.cls-10,.cls-11,.cls-13,.cls-2,.cls-3,.cls-4,.cls-7,.cls-8,.cls-9{stroke:#fff;}.cls-3{fill:#b4b4b4;}.cls-4,.cls-5,.cls-6{fill:#9b9b9b;}.cls-5{stroke:#939393;}.cls-7{fill:#ccc;}.cls-8{fill:#a0a0a0;}.cls-9{fill:#a2a2a2;}.cls-10{fill:#adadad;}.cls-11{fill:#cdcdcd;}.cls-12{fill:#253031;}</style></defs><title>selector_annotated</title><g id="Layer_3" data-name="Layer 3"><ellipse class="cls-1" cx="620.85" cy="137.07" rx="57.57" ry="52.39"/><rect class="cls-1" x="694.74" y="236.17" width="48.61" height="48.61" rx="24.3" ry="24.3"/></g><g id="Layer_1" data-name="Layer 1"><path class="cls-2" d="M56.13,421a20,20,0,0,1-20-20c0-.55,0-1.11.07-1.66a258.34,258.34,0,0,1,8.9-49,20,20,0,0,1,24.66-13.79c.53.15,1.06.32,1.58.52h0a20,20,0,0,1,12.21,24.14A219.1,219.1,0,0,0,76,402.73,20,20,0,0,1,56.13,421Z"/><path class="cls-3" d="M71.36,337.09a20,20,0,0,1-11.68-25.73c.19-.52.41-1,.65-1.53,61.42-129.64,216.3-184.94,345.94-123.52a259.75,259.75,0,0,1,52,32.69,20,20,0,0,1,3,28.1c-.35.43-.71.84-1.1,1.25h0a20,20,0,0,1-27,1.73c-94.42-76.28-232.8-61.57-309.08,32.85a219.77,219.77,0,0,0-27.65,44A20,20,0,0,1,71.36,337.09Z"/><path class="cls-4" d="M460.17,248.35a20,20,0,0,1,28.25-.64c.4.39.79.79,1.16,1.2a259.74,259.74,0,0,1,48.07,264.94,20,20,0,0,1-25.8,11.52q-.77-.3-1.53-.66h0a20,20,0,0,1-10-25.14,219.77,219.77,0,0,0-40.68-224.18A20,20,0,0,1,460.17,248.35Z"/><line id="g_line0_2" data-name="g line0 2" class="cls-5" x1="490.66" y1="250.15" x2="611.03" y2="144.98"/><g id="g_circle0_2" data-name="g circle0 2"><circle class="cls-6" cx="611.03" cy="144.98" r="23.98" transform="matrix(0.16, -0.99, 0.99, 0.16, 370.05, 724.9)"/><circle id="type_circles0_2" data-name="type circles0 2" class="cls-6" cx="613.18" cy="113.09" r="7.99"/><circle id="type_circles0_2-2" data-name="type circles0 2" class="cls-6" cx="642.93" cy="147.13" r="7.99"/><circle id="type_circles0_2-3" data-name="type circles0 2" class="cls-6" cx="644.14" cy="116.06" r="7.99"/></g><line id="g_line1_2" data-name="g line1 2" class="cls-5" x1="518.03" y1="287.82" x2="655.25" y2="205.84"/><g id="g_circle1_2" data-name="g circle1 2"><circle class="cls-6" cx="655.25" cy="205.84" r="23.98"/><circle id="type_circles1_2" data-name="type circles1 2" class="cls-6" cx="663.06" cy="174.84" r="7.99"/><circle id="type_circles1_2-2" data-name="type circles1 2" class="cls-6" cx="682.69" cy="189.44" r="7.99"/><circle id="type_circles1_2-3" data-name="type circles1 2" class="cls-6" cx="686.25" cy="213.65" r="7.99"/><circle id="type_circles1_2-4" data-name="type circles1 2" class="cls-6" cx="681.48" cy="170.57" r="7.99"/><circle id="type_circles1_2-5" data-name="type circles1 2" class="cls-6" cx="698.74" cy="199.45" r="7.99"/></g><line id="g_line2_2" data-name="g line2 2" class="cls-5" x1="538.24" y1="329.78" x2="687.89" y2="273.61"/><g id="g_circle2_2" data-name="g circle2 2"><circle class="cls-6" cx="687.89" cy="273.61" r="23.98"/><circle id="type_circles2_2" data-name="type circles2 2" class="cls-6" cx="717.82" cy="262.38" r="7.99"/></g><line id="g_line3_2" data-name="g line3 2" class="cls-5" x1="550.63" y1="374.66" x2="707.9" y2="346.12"/><g id="g_circle3_2" data-name="g circle3 2"><circle class="cls-6" cx="707.9" cy="346.12" r="23.98"/><circle id="type_circles3_2" data-name="type circles3 2" class="cls-6" cx="739.35" cy="340.42" r="7.99" transform="translate(-48.9 137.49) rotate(-10.29)"/></g><line id="g_line4_2" data-name="g line4 2" class="cls-5" x1="554.8" y1="421.04" x2="714.64" y2="421.04"/><g id="g_circle4_2" data-name="g circle4 2"><circle class="cls-6" cx="714.64" cy="421.04" r="23.98"/><circle id="type_circles4_2" data-name="type circles4 2" class="cls-6" cx="746.61" cy="421.04" r="7.99"/></g><line id="g_line5_2" data-name="g line5 2" class="cls-5" x1="550.63" y1="467.42" x2="707.9" y2="495.96"/><g id="g_circle5_2" data-name="g circle5 2"><circle class="cls-6" cx="707.9" cy="495.96" r="23.98"/><circle id="type_circles5_2" data-name="type circles5 2" class="cls-6" cx="734.18" cy="477.76" r="7.99" transform="translate(133 1114.83) rotate(-79.71)"/><circle id="type_circles5_2-2" data-name="type circles5 2" class="cls-6" cx="726.1" cy="522.24" r="7.99" transform="translate(82.61 1143.43) rotate(-79.71)"/></g><line id="g_line6_2" data-name="g line6 2" class="cls-5" x1="538.24" y1="512.31" x2="687.89" y2="568.47"/><g id="g_circle6_2" data-name="g circle6 2"><circle class="cls-6" cx="687.89" cy="568.47" r="23.98"/><circle id="type_circles6_2" data-name="type circles6 2" class="cls-6" cx="717.82" cy="579.71" r="7.99" transform="translate(-77.15 1048.06) rotate(-69.43)"/></g><path class="cls-7" d="M510.32,524.71a20,20,0,0,1,9.34,26.67c-.24.5-.51,1-.79,1.47a259.93,259.93,0,0,1-29.29,40.32,20,20,0,0,1-28.21,1.73c-.41-.37-.81-.76-1.2-1.16h0a20,20,0,0,1-.52-27,219.59,219.59,0,0,0,24.79-34.12A20,20,0,0,1,510.32,524.71Z"/><path class="cls-8" d="M460.17,593.74a20,20,0,0,1-.63,28.25c-.4.38-.82.75-1.25,1.1a259.72,259.72,0,0,1-130,55.56,20,20,0,0,1-22.37-17.26c-.07-.55-.12-1.1-.14-1.66h0A20,20,0,0,1,323.18,639a219.82,219.82,0,0,0,110-47A20,20,0,0,1,460.17,593.74Z"/><path class="cls-9" d="M305.78,659.73a20,20,0,0,1-19.07,20.86c-.55,0-1.11,0-1.66,0a259.44,259.44,0,0,1-49.39-6.69,20,20,0,0,1-14.88-24c.12-.54.27-1.07.44-1.6h0A20,20,0,0,1,244.8,635a219.63,219.63,0,0,0,41.79,5.66A20,20,0,0,1,305.78,659.73Z"/><path class="cls-10" d="M221.22,648.28a20,20,0,0,1-25.17,12.83c-.53-.18-1.05-.37-1.56-.58a259.42,259.42,0,0,1-43.89-23.62,20,20,0,0,1-5.5-27.72c.31-.46.64-.91,1-1.34h0a20,20,0,0,1,26.73-4.15,219.89,219.89,0,0,0,37.14,20A20,20,0,0,1,221.22,648.28Z"/><path class="cls-11" d="M146.09,607.85A20,20,0,0,1,118,611c-.44-.35-.86-.71-1.26-1.09A259.75,259.75,0,0,1,36.22,442.69a20,20,0,0,1,18.24-21.58c.56,0,1.11-.07,1.67-.07h0A20,20,0,0,1,76,439.36a219.81,219.81,0,0,0,68.14,141.5A20,20,0,0,1,146.09,607.85Z"/></g><g id="annotations"><path class="cls-12" d="M171.53,316.85a6,6,0,0,0-1.34-1.13,12.85,12.85,0,0,0-1.89-1A13.64,13.64,0,0,0,166,314a12.14,12.14,0,0,0-2.58-.27q-3.5,0-5.11,1.3a4.36,4.36,0,0,0-1.61,3.57,3.93,3.93,0,0,0,.46,2,3.78,3.78,0,0,0,1.45,1.37,10.74,10.74,0,0,0,2.45,1c1,.28,2.15.57,3.49.88a36.11,36.11,0,0,1,4.18,1.15,12.54,12.54,0,0,1,3.19,1.62,6.48,6.48,0,0,1,2,2.35,7.6,7.6,0,0,1,.69,3.4,7.8,7.8,0,0,1-.84,3.72,7.35,7.35,0,0,1-2.29,2.6,9.8,9.8,0,0,1-3.42,1.52,18.18,18.18,0,0,1-4.29.48,19.92,19.92,0,0,1-6.53-1.07,18.48,18.48,0,0,1-5.6-3.13l1.8-3.19a10.42,10.42,0,0,0,1.75,1.43,14.56,14.56,0,0,0,2.43,1.28,19.09,19.09,0,0,0,2.94.92,14.77,14.77,0,0,0,3.3.36,9.06,9.06,0,0,0,5-1.14,4.18,4.18,0,0,0,1.2-5.52,4.85,4.85,0,0,0-1.66-1.49,12.67,12.67,0,0,0-2.71-1.11c-1.07-.32-2.3-.65-3.67-1a36.05,36.05,0,0,1-4-1.18,10.8,10.8,0,0,1-2.88-1.51,5.69,5.69,0,0,1-1.74-2.14,7.13,7.13,0,0,1-.59-3,8.54,8.54,0,0,1,.8-3.78,7.91,7.91,0,0,1,2.22-2.78,9.92,9.92,0,0,1,3.41-1.7,15.34,15.34,0,0,1,4.28-.56,15.18,15.18,0,0,1,5.46.92,15.37,15.37,0,0,1,4.33,2.48Z"/><path class="cls-12" d="M190.81,340.84a8.64,8.64,0,0,1-4.81-1.35,10.21,10.21,0,0,1-3.3-3.4v13.27H179V318.49h3.27v4.12a10.17,10.17,0,0,1,3.39-3.26,8.82,8.82,0,0,1,4.59-1.24,9.27,9.27,0,0,1,4.16.93,10.41,10.41,0,0,1,3.28,2.5,11.82,11.82,0,0,1,2.16,3.63,12,12,0,0,1,.78,4.28,13.51,13.51,0,0,1-.72,4.44,11,11,0,0,1-2,3.61,9.82,9.82,0,0,1-3.11,2.43A8.8,8.8,0,0,1,190.81,340.84Zm-1.13-3.2a6.33,6.33,0,0,0,3-.69,7.21,7.21,0,0,0,2.26-1.85,8.28,8.28,0,0,0,1.45-2.62,9.18,9.18,0,0,0,.51-3,8.53,8.53,0,0,0-.59-3.13,8.29,8.29,0,0,0-1.6-2.6A7.48,7.48,0,0,0,192.3,322a6.71,6.71,0,0,0-3-.65,6.1,6.1,0,0,0-2.08.39,9.38,9.38,0,0,0-2,1.05,7.16,7.16,0,0,0-1.64,1.56,4.61,4.61,0,0,0-.91,1.91v6.26a9.12,9.12,0,0,0,1.18,2,8.22,8.22,0,0,0,1.64,1.64,7.77,7.77,0,0,0,2,1.09A6,6,0,0,0,189.68,337.64Z"/><path class="cls-12" d="M214.88,340.84a11.19,11.19,0,0,1-4.54-.91,10.8,10.8,0,0,1-3.53-2.45,11.3,11.3,0,0,1-2.29-3.64,12,12,0,0,1-.82-4.39,11.78,11.78,0,0,1,.82-4.36,10.87,10.87,0,0,1,5.86-6.07,11.06,11.06,0,0,1,4.54-.91,10.84,10.84,0,0,1,8,3.38,11.08,11.08,0,0,1,2.2,3.57,11.75,11.75,0,0,1,.78,4.23c0,.3,0,.58,0,.84s0,.44-.06.58H207.61a8.44,8.44,0,0,0,.76,3A7.84,7.84,0,0,0,210,336a7.92,7.92,0,0,0,2.29,1.51,6.94,6.94,0,0,0,2.71.54,7.39,7.39,0,0,0,2-.27,8.93,8.93,0,0,0,1.8-.73,6.2,6.2,0,0,0,1.49-1.14,4.49,4.49,0,0,0,1-1.51l3.19.88a8,8,0,0,1-1.49,2.23,10.05,10.05,0,0,1-2.18,1.74,11.48,11.48,0,0,1-2.75,1.16A11.74,11.74,0,0,1,214.88,340.84ZM222.39,328a7.88,7.88,0,0,0-.77-2.87,7.73,7.73,0,0,0-1.64-2.25,7.26,7.26,0,0,0-2.29-1.45,7.64,7.64,0,0,0-5.54,0,7,7,0,0,0-2.29,1.47,7.47,7.47,0,0,0-1.6,2.25,8.09,8.09,0,0,0-.73,2.85Z"/><path class="cls-12" d="M228.52,329.41a12.06,12.06,0,0,1,.8-4.37,10.8,10.8,0,0,1,2.27-3.59,11,11,0,0,1,8.06-3.34,10.67,10.67,0,0,1,5.65,1.45,9.34,9.34,0,0,1,3.59,3.89l-3.61,1.13a6,6,0,0,0-2.35-2.41,6.62,6.62,0,0,0-3.36-.86,6.79,6.79,0,0,0-5.17,2.31,8.38,8.38,0,0,0-1.53,2.56,9.31,9.31,0,0,0,0,6.47,8.6,8.6,0,0,0,1.58,2.62,7.26,7.26,0,0,0,2.31,1.74,6.48,6.48,0,0,0,2.83.63,6.89,6.89,0,0,0,1.91-.27,7.69,7.69,0,0,0,1.73-.73,6.6,6.6,0,0,0,1.36-1.08,3.61,3.61,0,0,0,.84-1.32l3.61,1.09a7.55,7.55,0,0,1-1.4,2.23,8.74,8.74,0,0,1-2.13,1.72,11.3,11.3,0,0,1-2.7,1.14,11.54,11.54,0,0,1-3.13.42,11,11,0,0,1-8.07-3.41,11.15,11.15,0,0,1-2.29-3.63A12,12,0,0,1,228.52,329.41Z"/><path class="cls-12" d="M253.26,314.38v-4.62H257v4.62Zm0,26V318.49H257v21.93Z"/><path class="cls-12" d="M272.62,340.84a11.17,11.17,0,0,1-4.53-.91,10.8,10.8,0,0,1-3.53-2.45,11.3,11.3,0,0,1-2.29-3.64,12,12,0,0,1-.82-4.39,11.78,11.78,0,0,1,.82-4.36,11.2,11.2,0,0,1,2.31-3.62,11.08,11.08,0,0,1,8.09-3.36,10.84,10.84,0,0,1,8,3.38,11.08,11.08,0,0,1,2.2,3.57,11.75,11.75,0,0,1,.78,4.23c0,.3,0,.58,0,.84a4.83,4.83,0,0,1-.07.58H265.36a8.43,8.43,0,0,0,.75,3,7.57,7.57,0,0,0,3.93,3.82,6.9,6.9,0,0,0,2.71.54,7.26,7.26,0,0,0,2-.27,8.78,8.78,0,0,0,1.81-.73,6.2,6.2,0,0,0,1.49-1.14,4.82,4.82,0,0,0,1-1.51l3.19.88a8,8,0,0,1-1.49,2.23,9.88,9.88,0,0,1-2.19,1.74,11.15,11.15,0,0,1-2.75,1.16A11.63,11.63,0,0,1,272.62,340.84ZM280.14,328a8,8,0,0,0-2.41-5.12,7.26,7.26,0,0,0-2.29-1.45,7.66,7.66,0,0,0-5.55,0,7.25,7.25,0,0,0-2.29,1.47,7.45,7.45,0,0,0-1.59,2.25,8.32,8.32,0,0,0-.74,2.85Z"/><path class="cls-12" d="M295.43,340.84a17.23,17.23,0,0,1-5.21-.82,12.81,12.81,0,0,1-4.41-2.38l1.6-2.47a15.34,15.34,0,0,0,3.86,2.2,11.4,11.4,0,0,0,4.08.74,6.74,6.74,0,0,0,3.8-.95,3,3,0,0,0,1.4-2.67,2.41,2.41,0,0,0-.37-1.36,3.21,3.21,0,0,0-1.14-1,9,9,0,0,0-1.93-.75c-.78-.23-1.7-.47-2.73-.72-1.32-.33-2.45-.66-3.4-1a9.28,9.28,0,0,1-2.36-1.1,3.84,3.84,0,0,1-1.34-1.51,5,5,0,0,1-.42-2.18,6.4,6.4,0,0,1,.65-2.92,6.09,6.09,0,0,1,1.79-2.14,8,8,0,0,1,2.66-1.31,12.13,12.13,0,0,1,3.3-.44,13.19,13.19,0,0,1,4.62.8,11.26,11.26,0,0,1,3.61,2.1l-1.68,2.23a9.55,9.55,0,0,0-3.1-1.83,10.7,10.7,0,0,0-3.53-.61,6.49,6.49,0,0,0-3.43.86,3,3,0,0,0-1.4,2.75,2.61,2.61,0,0,0,.27,1.26,2.4,2.4,0,0,0,.9.89,7.4,7.4,0,0,0,1.62.67q1,.28,2.37.63c1.46.33,2.73.68,3.8,1a10.71,10.71,0,0,1,2.69,1.24,4.64,4.64,0,0,1,1.6,1.68,4.83,4.83,0,0,1,.52,2.35,5.81,5.81,0,0,1-2.35,4.87A10.18,10.18,0,0,1,295.43,340.84Z"/><path class="cls-12" d="M323.48,317.65v22.77H319.7V310.6h2.94l18.48,23.22V310.64h3.78v29.78h-3.19Z"/><path class="cls-12" d="M356.87,340.84a7.85,7.85,0,0,1-2.89-.53,7.16,7.16,0,0,1-2.34-1.45,6.84,6.84,0,0,1-1.55-2.16,6.42,6.42,0,0,1-.57-2.71,5.66,5.66,0,0,1,.68-2.75,6.11,6.11,0,0,1,1.91-2.12,9.77,9.77,0,0,1,2.94-1.39,13.21,13.21,0,0,1,3.71-.5,18.85,18.85,0,0,1,3.24.29,15,15,0,0,1,2.9.8v-1.76a5.29,5.29,0,0,0-5.8-5.76,12.3,12.3,0,0,0-7,2.56L350.91,321a15.2,15.2,0,0,1,8.53-2.86,9.36,9.36,0,0,1,6.74,2.31,8.58,8.58,0,0,1,2.41,6.51v8.95c0,.87.39,1.32,1.18,1.34v3.2l-1,.12a6.8,6.8,0,0,1-.8,0,2.33,2.33,0,0,1-1.74-.65,2.74,2.74,0,0,1-.78-1.57l-.08-1.56a9.5,9.5,0,0,1-3.72,3A11.48,11.48,0,0,1,356.87,340.84Zm1-2.78a9.19,9.19,0,0,0,3.68-.73,6.09,6.09,0,0,0,2.58-1.95,2.36,2.36,0,0,0,.8-1.64V330.5a15.28,15.28,0,0,0-5.59-1.05,8,8,0,0,0-4.52,1.18,3.56,3.56,0,0,0-1.74,3.07,4.14,4.14,0,0,0,.36,1.72,4,4,0,0,0,1,1.38,4.72,4.72,0,0,0,1.53.93A5.37,5.37,0,0,0,357.84,338.06Z"/><path class="cls-12" d="M407.57,340.42h-3.7V328.15a9.2,9.2,0,0,0-1.11-5.08,3.73,3.73,0,0,0-3.3-1.64,5.86,5.86,0,0,0-4,1.62,8.86,8.86,0,0,0-2.54,4.18v13.19h-3.7V328.15a9.25,9.25,0,0,0-1.09-5.12,3.7,3.7,0,0,0-3.28-1.6,6,6,0,0,0-4,1.58,8.54,8.54,0,0,0-2.56,4.18v13.23h-3.7V318.49h3.36v4.71a9.92,9.92,0,0,1,3.49-3.76,9,9,0,0,1,4.83-1.33,6.24,6.24,0,0,1,4.39,1.49,6.45,6.45,0,0,1,2,3.85q2.94-5.34,8.36-5.34a6.49,6.49,0,0,1,3.17.7,5.19,5.19,0,0,1,2,1.93,9,9,0,0,1,1.09,2.92,18.19,18.19,0,0,1,.34,3.65Z"/><path class="cls-12" d="M423,340.84a11.17,11.17,0,0,1-4.53-.91,10.8,10.8,0,0,1-3.53-2.45,11.3,11.3,0,0,1-2.29-3.64,11.77,11.77,0,0,1-.82-4.39,11.58,11.58,0,0,1,.82-4.36,11.2,11.2,0,0,1,2.31-3.62,11.08,11.08,0,0,1,8.09-3.36,10.84,10.84,0,0,1,8,3.38,11.08,11.08,0,0,1,2.2,3.57,11.75,11.75,0,0,1,.78,4.23c0,.3,0,.58,0,.84a4.83,4.83,0,0,1-.07.58H415.76a8.43,8.43,0,0,0,.75,3,7.57,7.57,0,0,0,3.93,3.82,6.9,6.9,0,0,0,2.71.54,7.26,7.26,0,0,0,2-.27,8.78,8.78,0,0,0,1.81-.73,6.2,6.2,0,0,0,1.49-1.14,4.82,4.82,0,0,0,1-1.51l3.19.88a8,8,0,0,1-1.49,2.23,9.88,9.88,0,0,1-2.19,1.74,11.15,11.15,0,0,1-2.75,1.16A11.63,11.63,0,0,1,423,340.84ZM430.54,328a8,8,0,0,0-2.41-5.12,7.26,7.26,0,0,0-2.29-1.45,7.66,7.66,0,0,0-5.55,0,7.25,7.25,0,0,0-2.29,1.47,7.45,7.45,0,0,0-1.59,2.25,8.32,8.32,0,0,0-.74,2.85Z"/><path class="cls-12" d="M259.06,536.36A12.09,12.09,0,0,1,250,540.6a11.91,11.91,0,0,1-5.52-1.3,14.7,14.7,0,0,1-4.39-3.42,16.78,16.78,0,0,1-2.92-4.86,15.33,15.33,0,0,1-1.07-5.62A15.77,15.77,0,0,1,240,514.88a13.59,13.59,0,0,1,4.41-3.3,14.11,14.11,0,0,1,12.66.59,12.06,12.06,0,0,1,4.27,4.7l-2.9,2A9.1,9.1,0,0,0,254.9,515a10,10,0,0,0-5-1.26,8.62,8.62,0,0,0-4.12,1,10.3,10.3,0,0,0-3.15,2.6,12.11,12.11,0,0,0-2,3.74,13.6,13.6,0,0,0-.72,4.39,12.8,12.8,0,0,0,.8,4.52,12.15,12.15,0,0,0,2.19,3.73,10,10,0,0,0,3.27,2.54,9.19,9.19,0,0,0,4.12.93q4.86,0,8.78-4.71v-4.11h-6.43v-2.86h9.62v14.87h-3.19Z"/><path class="cls-12" d="M277.11,540.81a11.17,11.17,0,0,1-4.53-.9,10.68,10.68,0,0,1-3.53-2.46,11.37,11.37,0,0,1-2.29-3.63,12,12,0,0,1-.82-4.39,11.83,11.83,0,0,1,.82-4.37,11.16,11.16,0,0,1,2.31-3.61,11,11,0,0,1,3.55-2.46,11.18,11.18,0,0,1,4.54-.9A10.64,10.64,0,0,1,287.34,525a11.69,11.69,0,0,1,.78,4.22c0,.31,0,.59,0,.84a5,5,0,0,1-.07.59H269.85a8.43,8.43,0,0,0,.75,3,7.57,7.57,0,0,0,3.93,3.82,6.77,6.77,0,0,0,2.71.55,7.26,7.26,0,0,0,2-.27A8.81,8.81,0,0,0,281,537a6.43,6.43,0,0,0,1.49-1.13,4.69,4.69,0,0,0,1-1.52l3.19.89a7.94,7.94,0,0,1-1.49,2.22,10.09,10.09,0,0,1-2.18,1.75,11.37,11.37,0,0,1-2.76,1.15A11.63,11.63,0,0,1,277.11,540.81ZM284.63,528a7.88,7.88,0,0,0-.77-2.88,8.06,8.06,0,0,0-1.64-2.25,7.51,7.51,0,0,0-7.84-1.44,7.09,7.09,0,0,0-2.28,1.47,7.43,7.43,0,0,0-1.6,2.24,8.32,8.32,0,0,0-.74,2.86Z"/><path class="cls-12" d="M311.26,540.39h-3.7V528.13a9.4,9.4,0,0,0-1.07-5.13,3.65,3.65,0,0,0-3.25-1.59,6.1,6.1,0,0,0-2.27.44,8.84,8.84,0,0,0-2.14,1.19,8.69,8.69,0,0,0-1.77,1.81,7.76,7.76,0,0,0-1.13,2.31v13.23h-3.7V518.47h3.36v4.7a9.7,9.7,0,0,1,3.76-3.7,10.78,10.78,0,0,1,5.36-1.38,6.5,6.5,0,0,1,3.15.69,5.32,5.32,0,0,1,2,1.93,8.51,8.51,0,0,1,1.07,2.92,19.87,19.87,0,0,1,.32,3.66Z"/><path class="cls-12" d="M323.78,540.81a6.14,6.14,0,0,1-5.21-2.31q-1.77-2.31-1.77-6.89V518.47h3.7V530.9q0,6.72,4.66,6.72a7.09,7.09,0,0,0,4.26-1.45,8.63,8.63,0,0,0,3-4V518.47h3.69v17.38c0,.87.39,1.32,1.18,1.35v3.19c-.42.06-.75.09-1,.11l-.69,0a2.68,2.68,0,0,1-1.83-.65,2.24,2.24,0,0,1-.78-1.62l-.08-2.56a10.19,10.19,0,0,1-3.86,3.8A10.71,10.71,0,0,1,323.78,540.81Z"/><path class="cls-12" d="M349.94,540.81a16.93,16.93,0,0,1-5.21-.82,13,13,0,0,1-4.41-2.37l1.6-2.48a15.74,15.74,0,0,0,3.86,2.21,11.39,11.39,0,0,0,4.08.73,6.74,6.74,0,0,0,3.8-.94,3,3,0,0,0,1.41-2.67,2.45,2.45,0,0,0-.38-1.37,3.2,3.2,0,0,0-1.14-1,9,9,0,0,0-1.93-.76c-.78-.22-1.69-.46-2.73-.71-1.31-.34-2.45-.66-3.4-1a9.2,9.2,0,0,1-2.35-1.09,3.86,3.86,0,0,1-1.35-1.51,5.09,5.09,0,0,1-.42-2.19A6.43,6.43,0,0,1,342,522a6.28,6.28,0,0,1,1.79-2.14,8,8,0,0,1,2.67-1.3,12,12,0,0,1,3.29-.44,12.89,12.89,0,0,1,4.62.8A11.42,11.42,0,0,1,358,521l-1.68,2.22a9.4,9.4,0,0,0-3.11-1.82,10.45,10.45,0,0,0-3.53-.61,6.36,6.36,0,0,0-3.42.86,3,3,0,0,0-1.41,2.75,2.67,2.67,0,0,0,.27,1.26,2.41,2.41,0,0,0,.91.88,6.85,6.85,0,0,0,1.61.67c.66.2,1.45.41,2.38.63,1.45.34,2.72.68,3.8,1a10.8,10.8,0,0,1,2.68,1.24,4.8,4.8,0,0,1,1.6,1.68,4.89,4.89,0,0,1,.53,2.35,5.81,5.81,0,0,1-2.36,4.87A10.12,10.12,0,0,1,349.94,540.81Z"/><path class="cls-13" d="M460.17,248.35a20,20,0,0,1,28.25-.64c.4.39.79.79,1.16,1.2a259.74,259.74,0,0,1,48.07,264.94,20,20,0,0,1-25.8,11.52q-.77-.3-1.53-.66h0a20,20,0,0,1-10-25.14,219.77,219.77,0,0,0-40.68-224.18A20,20,0,0,1,460.17,248.35Z"/><path class="cls-12" d="M341.22,501.71a123.25,123.25,0,0,1,6.93-24,153.21,153.21,0,0,1,11.09-22.38,148.61,148.61,0,0,1,14.66-20.25,144.28,144.28,0,0,1,17.83-17.56c1.56-1.39,3.25-2.63,4.9-3.91s3.29-2.58,5-3.72l5.17-3.55,5.35-3.27c.9-.54,1.77-1.12,2.69-1.61l2.76-1.49c1.85-1,3.67-2,5.55-2.92,3.81-1.73,7.53-3.66,11.46-5.09,2-.76,3.88-1.55,5.84-2.29l5.95-2,3-1c1-.33,2-.56,3-.85l6.05-1.62c2-.59,4.06-1,6.1-1.41l6.12-1.29c4.11-.71,8.24-1.3,12.35-2l.14.93c-4.08.8-8.16,1.53-12.21,2.38l-6.05,1.46c-2,.49-4,.9-6,1.53l-6,1.73c-1,.3-2,.55-3,.9l-2.93,1-5.87,2c-1.93.74-3.84,1.53-5.76,2.29-3.87,1.46-7.57,3.3-11.35,5-1.87.88-3.67,1.9-5.51,2.83l-2.75,1.43c-.92.48-1.79,1-2.68,1.56l-5.34,3.16-5.16,3.43c-1.75,1.11-3.37,2.39-5,3.62s-3.33,2.45-4.89,3.81a142.32,142.32,0,0,0-17.86,17.2,151.95,151.95,0,0,0-26.15,42,122.1,122.1,0,0,0-7.27,23.78Z"/><polygon class="cls-12" points="497.14 378.43 478.43 389.01 482.08 380.35 476.37 372.88 497.14 378.43"/><path class="cls-12" d="M361.69,100.49a6,6,0,0,0-1.34-1.13,11.19,11.19,0,0,0-1.89-1,13.36,13.36,0,0,0-2.29-.71,11.53,11.53,0,0,0-2.58-.28q-3.49,0-5.11,1.31a4.33,4.33,0,0,0-1.61,3.57,3.93,3.93,0,0,0,.46,2,3.85,3.85,0,0,0,1.45,1.37,11.33,11.33,0,0,0,2.46,1c1,.28,2.14.58,3.48.89a36.11,36.11,0,0,1,4.18,1.15,11.77,11.77,0,0,1,3.19,1.62,6.48,6.48,0,0,1,2,2.35,7.57,7.57,0,0,1,.69,3.4,7.8,7.8,0,0,1-.84,3.72,7.35,7.35,0,0,1-2.29,2.6,9.79,9.79,0,0,1-3.42,1.51,17.64,17.64,0,0,1-4.28.49,19.93,19.93,0,0,1-6.54-1.07,18.48,18.48,0,0,1-5.6-3.13l1.8-3.19a9.94,9.94,0,0,0,1.75,1.42,13.22,13.22,0,0,0,2.43,1.28,18.06,18.06,0,0,0,2.94.93,14.77,14.77,0,0,0,3.3.36,9.13,9.13,0,0,0,5-1.14,4.19,4.19,0,0,0,1.19-5.52,4.85,4.85,0,0,0-1.66-1.49,13.19,13.19,0,0,0-2.71-1.12c-1.07-.32-2.3-.65-3.67-1a38.35,38.35,0,0,1-4-1.18,10.8,10.8,0,0,1-2.88-1.51,5.69,5.69,0,0,1-1.74-2.14,7.15,7.15,0,0,1-.59-3,8.61,8.61,0,0,1,.8-3.78A7.88,7.88,0,0,1,346,96.29a9.79,9.79,0,0,1,3.4-1.7,16.43,16.43,0,0,1,9.74.36,15.13,15.13,0,0,1,4.33,2.48Z"/><path class="cls-12" d="M381,124.47a8.64,8.64,0,0,1-4.81-1.34,10.27,10.27,0,0,1-3.29-3.4V133h-3.7V102.13h3.27v4.12a10.17,10.17,0,0,1,3.39-3.26,8.76,8.76,0,0,1,4.59-1.24,9.27,9.27,0,0,1,4.16.93,10.27,10.27,0,0,1,3.28,2.49,12.14,12.14,0,0,1,2.94,7.92,13.41,13.41,0,0,1-.72,4.43,10.84,10.84,0,0,1-2,3.61,9.71,9.71,0,0,1-3.11,2.44A8.8,8.8,0,0,1,381,124.47Zm-1.13-3.19a6.3,6.3,0,0,0,3-.69,7.25,7.25,0,0,0,2.27-1.85,8.48,8.48,0,0,0,1.45-2.62,9.44,9.44,0,0,0,.5-3,8.53,8.53,0,0,0-.59-3.13,8.29,8.29,0,0,0-1.6-2.6,7.67,7.67,0,0,0-2.37-1.77,6.85,6.85,0,0,0-3-.65,6.12,6.12,0,0,0-2.08.4,9.62,9.62,0,0,0-2,1,7.15,7.15,0,0,0-1.64,1.56,4.58,4.58,0,0,0-.9,1.91v6.26a9.15,9.15,0,0,0,1.17,2,8.22,8.22,0,0,0,1.64,1.64,7.77,7.77,0,0,0,2,1.09A6,6,0,0,0,379.84,121.28Z"/><path class="cls-12" d="M405,124.47a11.18,11.18,0,0,1-4.54-.9,10.68,10.68,0,0,1-3.53-2.46,11.15,11.15,0,0,1-2.29-3.63,12,12,0,0,1-.82-4.39,11.87,11.87,0,0,1,.82-4.37,11,11,0,0,1,10.4-7,10.64,10.64,0,0,1,10.18,7,11.73,11.73,0,0,1,.78,4.22c0,.31,0,.59,0,.84s0,.45-.06.59H397.77a8.39,8.39,0,0,0,.76,3,7.59,7.59,0,0,0,1.63,2.31,7.76,7.76,0,0,0,2.29,1.52,6.94,6.94,0,0,0,2.71.54,7.39,7.39,0,0,0,2-.27,8.41,8.41,0,0,0,1.8-.74,5.92,5.92,0,0,0,1.49-1.13,4.49,4.49,0,0,0,1-1.51l3.19.88a8.14,8.14,0,0,1-1.49,2.23,10.05,10.05,0,0,1-2.18,1.74,11.47,11.47,0,0,1-2.75,1.15A11.74,11.74,0,0,1,405,124.47Zm7.51-12.85a8,8,0,0,0-.77-2.88,7.68,7.68,0,0,0-1.64-2.24,7.26,7.26,0,0,0-2.29-1.45,7.5,7.5,0,0,0-5.54,0,7.14,7.14,0,0,0-2.29,1.47,7.47,7.47,0,0,0-1.6,2.25,8.25,8.25,0,0,0-.73,2.85Z"/><path class="cls-12" d="M418.69,113.05a12,12,0,0,1,.79-4.37,10.86,10.86,0,0,1,2.27-3.59,10.89,10.89,0,0,1,8.07-3.34,10.57,10.57,0,0,1,5.64,1.45,9.43,9.43,0,0,1,3.6,3.89l-3.62,1.13a6,6,0,0,0-2.35-2.42,6.72,6.72,0,0,0-3.36-.86,6.88,6.88,0,0,0-5.16,2.31,8.37,8.37,0,0,0-1.54,2.57,9.44,9.44,0,0,0,0,6.46,8.73,8.73,0,0,0,1.58,2.63,7.26,7.26,0,0,0,2.31,1.74,6.51,6.51,0,0,0,2.83.63,7,7,0,0,0,1.92-.27,7.38,7.38,0,0,0,1.72-.74,6.24,6.24,0,0,0,1.36-1.07,3.61,3.61,0,0,0,.84-1.32l3.61,1.09a7.68,7.68,0,0,1-1.4,2.23,9.13,9.13,0,0,1-2.12,1.72,11.68,11.68,0,0,1-5.84,1.55,10.92,10.92,0,0,1-8.07-3.4,11.26,11.26,0,0,1-2.29-3.63A12,12,0,0,1,418.69,113.05Z"/><path class="cls-12" d="M443.42,98V93.39h3.7V98Zm0,26V102.13h3.7v21.92Z"/><path class="cls-12" d="M462.79,124.47a11.18,11.18,0,0,1-4.54-.9,10.68,10.68,0,0,1-3.53-2.46,11.15,11.15,0,0,1-2.29-3.63,12,12,0,0,1-.82-4.39,11.87,11.87,0,0,1,.82-4.37,11,11,0,0,1,10.4-7,10.84,10.84,0,0,1,8,3.38,11,11,0,0,1,2.2,3.57,11.73,11.73,0,0,1,.78,4.22c0,.31,0,.59,0,.84s0,.45-.06.59H455.52a8.38,8.38,0,0,0,.75,3,7.79,7.79,0,0,0,1.64,2.31,7.63,7.63,0,0,0,2.29,1.52,6.94,6.94,0,0,0,2.71.54,7.39,7.39,0,0,0,2-.27,8.41,8.41,0,0,0,1.8-.74,5.92,5.92,0,0,0,1.49-1.13,4.65,4.65,0,0,0,1-1.51l3.19.88a8.14,8.14,0,0,1-1.49,2.23,10.05,10.05,0,0,1-2.18,1.74,11.47,11.47,0,0,1-2.75,1.15A11.74,11.74,0,0,1,462.79,124.47Zm7.51-12.85a8,8,0,0,0-.77-2.88,7.68,7.68,0,0,0-1.64-2.24,7.26,7.26,0,0,0-2.29-1.45,7.5,7.5,0,0,0-5.54,0,7,7,0,0,0-2.29,1.47,7.47,7.47,0,0,0-1.6,2.25,8,8,0,0,0-.73,2.85Z"/><path class="cls-12" d="M485.59,124.47a16.93,16.93,0,0,1-5.21-.82,12.63,12.63,0,0,1-4.41-2.37l1.6-2.48a15.56,15.56,0,0,0,3.86,2.21,11.39,11.39,0,0,0,4.08.73,6.74,6.74,0,0,0,3.8-.94,3,3,0,0,0,1.4-2.67,2.39,2.39,0,0,0-.37-1.36,3.21,3.21,0,0,0-1.14-1,9.57,9.57,0,0,0-1.93-.76c-.78-.22-1.69-.46-2.73-.71-1.32-.34-2.45-.66-3.4-1a8.88,8.88,0,0,1-2.35-1.09,3.79,3.79,0,0,1-1.35-1.51,5.08,5.08,0,0,1-.42-2.18,6.37,6.37,0,0,1,.65-2.92,6.22,6.22,0,0,1,1.79-2.15,8.11,8.11,0,0,1,2.67-1.3,12,12,0,0,1,3.29-.44,13.19,13.19,0,0,1,4.62.8,11.26,11.26,0,0,1,3.61,2.1L492,106.88a9.21,9.21,0,0,0-3.1-1.83,10.45,10.45,0,0,0-3.53-.61,6.43,6.43,0,0,0-3.42.86,3,3,0,0,0-1.41,2.75,2.61,2.61,0,0,0,.27,1.26,2.31,2.31,0,0,0,.9.88,6.92,6.92,0,0,0,1.62.68q1,.28,2.37.63,2.19.5,3.81,1a11.17,11.17,0,0,1,2.68,1.24,4.8,4.8,0,0,1,1.6,1.68,4.9,4.9,0,0,1,.52,2.36,5.82,5.82,0,0,1-2.35,4.87A10.18,10.18,0,0,1,485.59,124.47Z"/><path class="cls-12" d="M473.1,52.38a12.8,12.8,0,0,1-5.74-1.28,14.14,14.14,0,0,1-4.43-3.4,15.52,15.52,0,0,1-2.85-4.85,15.83,15.83,0,0,1-1-5.59,15.82,15.82,0,0,1,4-10.54,14.32,14.32,0,0,1,4.47-3.34,12.76,12.76,0,0,1,5.61-1.24,12.28,12.28,0,0,1,5.71,1.32,14.69,14.69,0,0,1,4.41,3.47,15.81,15.81,0,0,1-.14,20.89,14,14,0,0,1-4.46,3.32A12.72,12.72,0,0,1,473.1,52.38ZM462.89,37.26a13.3,13.3,0,0,0,.73,4.39,12.28,12.28,0,0,0,2.08,3.76,10.09,10.09,0,0,0,3.24,2.6,9,9,0,0,0,4.2,1,8.77,8.77,0,0,0,4.28-1,10.59,10.59,0,0,0,3.22-2.69,11.93,11.93,0,0,0,2-3.76,13.49,13.49,0,0,0,.69-4.24,13.35,13.35,0,0,0-.73-4.39,11.72,11.72,0,0,0-2.1-3.74,10.77,10.77,0,0,0-3.23-2.58,9.55,9.55,0,0,0-8.43,0,10.45,10.45,0,0,0-3.21,2.65,12.2,12.2,0,0,0-2,3.74A13.39,13.39,0,0,0,462.89,37.26Z"/><path class="cls-12" d="M503.08,52.59a8.9,8.9,0,0,1-4.66-1.26,9.63,9.63,0,0,1-3.32-3.27v4.11h-3.27V21.51h3.69V34.62a11.46,11.46,0,0,1,3.41-3.45,9.09,9.09,0,0,1,8.77-.33,9.88,9.88,0,0,1,3.09,2.54,11.45,11.45,0,0,1,2,3.65,13.21,13.21,0,0,1,.7,4.26,12,12,0,0,1-.8,4.37,11.51,11.51,0,0,1-2.18,3.59,10.35,10.35,0,0,1-3.3,2.44A9.52,9.52,0,0,1,503.08,52.59Zm-.92-3.19a6.79,6.79,0,0,0,3-.67,7.53,7.53,0,0,0,2.4-1.81,8.15,8.15,0,0,0,1.55-2.58,8.46,8.46,0,0,0,.55-3.05,9.19,9.19,0,0,0-.53-3.08,8.44,8.44,0,0,0-1.47-2.63,7.51,7.51,0,0,0-2.27-1.83,6.19,6.19,0,0,0-2.91-.69,5.94,5.94,0,0,0-2.23.42,8.19,8.19,0,0,0-1.95,1.11,8.46,8.46,0,0,0-1.6,1.62,12.43,12.43,0,0,0-1.2,2v6.34a4.46,4.46,0,0,0,.91,1.93A7.19,7.19,0,0,0,498.06,48a8.37,8.37,0,0,0,2,1A6.28,6.28,0,0,0,502.16,49.4Z"/><path class="cls-12" d="M525.68,52.59a16.93,16.93,0,0,1-5.21-.82,12.63,12.63,0,0,1-4.41-2.37l1.6-2.48a15.39,15.39,0,0,0,3.86,2.21,11.39,11.39,0,0,0,4.08.73,6.74,6.74,0,0,0,3.8-.94,3,3,0,0,0,1.4-2.67,2.44,2.44,0,0,0-.37-1.37,3.29,3.29,0,0,0-1.14-1,9.57,9.57,0,0,0-1.93-.76c-.78-.22-1.7-.46-2.73-.71-1.32-.34-2.45-.66-3.4-1a9.28,9.28,0,0,1-2.36-1.09,3.84,3.84,0,0,1-1.34-1.51,5.09,5.09,0,0,1-.42-2.19,6.43,6.43,0,0,1,.65-2.92,6.28,6.28,0,0,1,1.79-2.14,8,8,0,0,1,2.66-1.3,12.13,12.13,0,0,1,3.3-.44,13.19,13.19,0,0,1,4.62.8,11.26,11.26,0,0,1,3.61,2.1L532.06,35a9.35,9.35,0,0,0-3.1-1.82,10.45,10.45,0,0,0-3.53-.61,6.4,6.4,0,0,0-3.43.86,3,3,0,0,0-1.4,2.75,2.67,2.67,0,0,0,.27,1.26,2.31,2.31,0,0,0,.9.88,6.94,6.94,0,0,0,1.62.67q1,.3,2.37.63c1.46.34,2.73.68,3.8,1a11.08,11.08,0,0,1,2.69,1.24,4.8,4.8,0,0,1,1.6,1.68,4.89,4.89,0,0,1,.52,2.35A5.83,5.83,0,0,1,532,50.79,10.18,10.18,0,0,1,525.68,52.59Z"/><path class="cls-12" d="M548.44,52.59a11.17,11.17,0,0,1-4.53-.9,10.57,10.57,0,0,1-3.53-2.46,11.26,11.26,0,0,1-2.29-3.63,11.81,11.81,0,0,1-.82-4.39,11.63,11.63,0,0,1,.82-4.37,11.27,11.27,0,0,1,2.31-3.61A11,11,0,0,1,544,30.77a11.17,11.17,0,0,1,4.53-.9,10.9,10.9,0,0,1,4.52.92,10.67,10.67,0,0,1,5.67,6,11.73,11.73,0,0,1,.78,4.22c0,.31,0,.59,0,.84a5,5,0,0,1-.07.59H541.18a8.38,8.38,0,0,0,.75,3,7.61,7.61,0,0,0,1.64,2.31,7.41,7.41,0,0,0,2.29,1.51,6.74,6.74,0,0,0,2.71.55,7.26,7.26,0,0,0,2-.27,8.81,8.81,0,0,0,1.81-.74,6.17,6.17,0,0,0,1.49-1.13,4.82,4.82,0,0,0,1-1.51l3.19.88a8.16,8.16,0,0,1-1.49,2.22A9.64,9.64,0,0,1,554.34,51a11.13,11.13,0,0,1-2.75,1.15A11.74,11.74,0,0,1,548.44,52.59ZM556,39.74a7.94,7.94,0,0,0-2.41-5.12,7.49,7.49,0,0,0-7.84-1.45,7.14,7.14,0,0,0-2.29,1.47,7.53,7.53,0,0,0-1.59,2.24,8.32,8.32,0,0,0-.74,2.86Z"/><path class="cls-12" d="M575.15,33.48a9.5,9.5,0,0,0-4.89,1.43,7.31,7.31,0,0,0-3,3.74V52.17h-3.7V30.25H567v5.08a10.35,10.35,0,0,1,3-3.68,7.45,7.45,0,0,1,4-1.57h.71a2.41,2.41,0,0,1,.5,0Z"/><path class="cls-12" d="M585.15,52.17,576.5,30.25h3.82l6.93,18.69,7-18.69h3.53L589.1,52.17Z"/><path class="cls-12" d="M610.35,52.59a11.25,11.25,0,0,1-4.54-.9,10.63,10.63,0,0,1-3.52-2.46A11.09,11.09,0,0,1,600,45.6a11.81,11.81,0,0,1-.82-4.39,11.63,11.63,0,0,1,.82-4.37,10.95,10.95,0,0,1,5.86-6.07,11.17,11.17,0,0,1,4.53-.9,10.68,10.68,0,0,1,10.19,7,11.94,11.94,0,0,1,.77,4.22c0,.31,0,.59,0,.84a3.71,3.71,0,0,1-.06.59H603.08a8.6,8.6,0,0,0,.76,3,7.61,7.61,0,0,0,1.64,2.31,7.3,7.3,0,0,0,2.29,1.51,6.7,6.7,0,0,0,2.71.55,7.26,7.26,0,0,0,2-.27,9,9,0,0,0,1.81-.74,6.37,6.37,0,0,0,1.49-1.13,4.62,4.62,0,0,0,1-1.51l3.2.88a8,8,0,0,1-1.5,2.22A9.58,9.58,0,0,1,616.25,51a11.3,11.3,0,0,1-2.75,1.15A11.74,11.74,0,0,1,610.35,52.59Zm7.52-12.85a8.09,8.09,0,0,0-.78-2.88,7.51,7.51,0,0,0-1.64-2.24,7.41,7.41,0,0,0-5.06-2,7.34,7.34,0,0,0-2.77.53,7.14,7.14,0,0,0-2.29,1.47,7.35,7.35,0,0,0-1.59,2.24,8.1,8.1,0,0,0-.74,2.86Z"/><path class="cls-12" d="M634.5,52.59a9.7,9.7,0,0,1-4.2-.92A10.47,10.47,0,0,1,627,49.19a11.6,11.6,0,0,1-2.16-3.61,12.12,12.12,0,0,1-.78-4.33,13.1,13.1,0,0,1,.74-4.39,11.52,11.52,0,0,1,2.05-3.63A10,10,0,0,1,630,30.77a9,9,0,0,1,4-.9,8.28,8.28,0,0,1,4.72,1.39,10.78,10.78,0,0,1,3.3,3.36V21.51h3.69V47.64c0,.86.4,1.31,1.18,1.34v3.19l-.95.13c-.23,0-.46,0-.69,0a2.78,2.78,0,0,1-1.91-.74,2.21,2.21,0,0,1-.82-1.7V48.06a9.45,9.45,0,0,1-8,4.53Zm.88-3.19a6.28,6.28,0,0,0,2.08-.38,8.1,8.1,0,0,0,2-1.05,7.6,7.6,0,0,0,1.63-1.57,4.67,4.67,0,0,0,.91-1.91v-6.3a6.83,6.83,0,0,0-1.14-2,8.79,8.79,0,0,0-1.7-1.64,8.53,8.53,0,0,0-2-1.09,6.22,6.22,0,0,0-2.13-.4,6.33,6.33,0,0,0-3,.69,7.35,7.35,0,0,0-2.26,1.85,8.32,8.32,0,0,0-1.45,2.65,9.33,9.33,0,0,0-.51,3,8.45,8.45,0,0,0,.59,3.13,8,8,0,0,0,1.6,2.59,7.9,7.9,0,0,0,2.37,1.74A6.85,6.85,0,0,0,635.38,49.4Z"/><path class="cls-12" d="M673.85,51.08l-.88.4c-.36.15-.78.31-1.24.46a11.47,11.47,0,0,1-1.51.38,9.43,9.43,0,0,1-1.7.15A5.63,5.63,0,0,1,665,51.35a4.05,4.05,0,0,1-1.47-3.46V33.15h-3v-2.9h3V22.94h3.7v7.31h4.91v2.9h-4.91v13.6a2.27,2.27,0,0,0,.8,1.77,2.68,2.68,0,0,0,1.68.54,5.3,5.3,0,0,0,2-.35,8.75,8.75,0,0,0,1.24-.57Z"/><path class="cls-12" d="M678.31,58.14c.36,0,.72.09,1.09.12s.64,0,.84,0a1.72,1.72,0,0,0,.9-.23,2.5,2.5,0,0,0,.8-.9,17.74,17.74,0,0,0,.9-1.87c.34-.8.76-1.84,1.26-3.13l-9.28-21.92h3.82l7.48,18.6,6.8-18.6h3.53L685.78,57.93a6.33,6.33,0,0,1-1.95,2.58,5.81,5.81,0,0,1-3.76,1.11,7,7,0,0,1-.78,0,8.85,8.85,0,0,1-1-.17Z"/><path class="cls-12" d="M712,52.59a8.7,8.7,0,0,1-4.81-1.34,10.2,10.2,0,0,1-3.3-3.4V61.12h-3.69V30.25h3.27v4.11a10.2,10.2,0,0,1,3.38-3.25,8.79,8.79,0,0,1,4.6-1.24,9.43,9.43,0,0,1,4.16.92,10.56,10.56,0,0,1,3.28,2.5A11.75,11.75,0,0,1,721,36.93a12,12,0,0,1,.78,4.28,13.45,13.45,0,0,1-.72,4.43,11,11,0,0,1-2,3.61A9.71,9.71,0,0,1,716,51.69,8.86,8.86,0,0,1,712,52.59Zm-1.14-3.19a6.27,6.27,0,0,0,3-.69,7.28,7.28,0,0,0,2.27-1.85,8.32,8.32,0,0,0,1.45-2.63,9.12,9.12,0,0,0,.51-3,8.58,8.58,0,0,0-2.19-5.73,7.67,7.67,0,0,0-2.37-1.77,6.85,6.85,0,0,0-3-.65,6.08,6.08,0,0,0-2.08.4,9.69,9.69,0,0,0-2,1,7.28,7.28,0,0,0-1.63,1.55,4.64,4.64,0,0,0-.91,1.92v6.25a9.42,9.42,0,0,0,1.18,2,8,8,0,0,0,1.64,1.64,8.09,8.09,0,0,0,2,1.09A6,6,0,0,0,710.85,49.4Z"/><path class="cls-12" d="M736.05,52.59a11.17,11.17,0,0,1-4.53-.9A10.57,10.57,0,0,1,728,49.23a11.26,11.26,0,0,1-2.29-3.63,11.81,11.81,0,0,1-.82-4.39,11.63,11.63,0,0,1,.82-4.37A11.27,11.27,0,0,1,728,33.23a11,11,0,0,1,3.55-2.46,11.17,11.17,0,0,1,4.53-.9,10.9,10.9,0,0,1,4.52.92,10.67,10.67,0,0,1,5.67,6,11.73,11.73,0,0,1,.78,4.22c0,.31,0,.59,0,.84a5,5,0,0,1-.07.59H728.79a8.38,8.38,0,0,0,.75,3,7.61,7.61,0,0,0,1.64,2.31,7.41,7.41,0,0,0,2.29,1.51,6.74,6.74,0,0,0,2.71.55,7.26,7.26,0,0,0,2-.27,8.81,8.81,0,0,0,1.81-.74,6.17,6.17,0,0,0,1.49-1.13,4.82,4.82,0,0,0,1-1.51l3.19.88a8.16,8.16,0,0,1-1.49,2.22A9.64,9.64,0,0,1,742,51a11.13,11.13,0,0,1-2.75,1.15A11.68,11.68,0,0,1,736.05,52.59Zm7.52-12.85a7.94,7.94,0,0,0-2.41-5.12,7.49,7.49,0,0,0-7.84-1.45A7.25,7.25,0,0,0,731,34.64a7.53,7.53,0,0,0-1.59,2.24,8.32,8.32,0,0,0-.74,2.86Z"/><path class="cls-12" d="M758.86,52.59a16.88,16.88,0,0,1-5.21-.82,12.63,12.63,0,0,1-4.41-2.37l1.6-2.48a15.39,15.39,0,0,0,3.86,2.21,11.37,11.37,0,0,0,4.07.73,6.7,6.7,0,0,0,3.8-.94A3,3,0,0,0,764,46.25a2.37,2.37,0,0,0-.38-1.37,3.16,3.16,0,0,0-1.13-1,9.57,9.57,0,0,0-1.93-.76c-.79-.22-1.7-.46-2.73-.71-1.32-.34-2.45-.66-3.4-1a9,9,0,0,1-2.35-1.09,3.79,3.79,0,0,1-1.35-1.51,5.09,5.09,0,0,1-.42-2.19,6.43,6.43,0,0,1,.65-2.92,6.28,6.28,0,0,1,1.79-2.14,8,8,0,0,1,2.66-1.3,12,12,0,0,1,3.3-.44,13.19,13.19,0,0,1,4.62.8,11.26,11.26,0,0,1,3.61,2.1L765.24,35a9.35,9.35,0,0,0-3.1-1.82,10.45,10.45,0,0,0-3.53-.61,6.4,6.4,0,0,0-3.43.86,3,3,0,0,0-1.4,2.75,2.67,2.67,0,0,0,.27,1.26,2.31,2.31,0,0,0,.9.88,6.94,6.94,0,0,0,1.62.67q1,.3,2.37.63c1.46.34,2.72.68,3.8,1a11.08,11.08,0,0,1,2.69,1.24,4.4,4.4,0,0,1,2.12,4,5.83,5.83,0,0,1-2.35,4.88A10.18,10.18,0,0,1,758.86,52.59Z"/><path class="cls-12" d="M437.27,137a71.86,71.86,0,0,0,11.37,7.42A104.31,104.31,0,0,0,461,150.05a116.9,116.9,0,0,0,26.28,6.53,129.35,129.35,0,0,0,27,.49A185.81,185.81,0,0,0,541.12,153l.33,1.28a132.49,132.49,0,0,1-27,4.85,129.34,129.34,0,0,1-27.39-1.1,115.28,115.28,0,0,1-26.41-7.13,105.09,105.09,0,0,1-12.31-6,73.42,73.42,0,0,1-11.24-7.76Z"/><polygon class="cls-12" points="554.8 149.56 538.01 162.98 540.25 153.84 533.42 147.38 554.8 149.56"/><path class="cls-12" d="M726.25,66.25,730.17,70l2,1.86,1.86,2,3.71,3.94,3.5,4.13c1.2,1.35,2.26,2.82,3.35,4.26s2.22,2.86,3.18,4.39l3,4.53,2.73,4.69A102.88,102.88,0,0,1,766.12,141a116.3,116.3,0,0,1-4.77,43.08c-.54,1.74-1.07,3.47-1.69,5.18l-.89,2.57-1,2.54c-1.32,3.38-2.81,6.69-4.35,10s-3.23,6.49-5,9.63-3.71,6.22-5.71,9.23l-.86-.54a191.13,191.13,0,0,0,10-19c1.45-3.28,2.84-6.59,4.07-10l.94-2.52.87-2.54c.6-1.69,1.11-3.4,1.62-5.11,4.14-13.68,6.3-28.06,5.26-42.37a100.19,100.19,0,0,0-3.81-21.1,107.61,107.61,0,0,0-8.16-19.86L750,95.5,747.12,91c-.93-1.55-2-3-3.09-4.42s-2.09-2.93-3.26-4.3l-3.42-4.18-3.63-4-1.83-2L730,70.19l-3.85-3.79Z"/><polygon class="cls-12" points="734.1 234.49 738.79 213.51 742.77 222.03 752.14 222.8 734.1 234.49"/></g></svg>