<svg xmlns="http://www.w3.org/2000/svg" viewBox="0 0 600 600"><defs><style>.cls-1,.cls-2,.cls-3{isolation:isolate;}.cls-2{fill:#ccc;opacity:0.17;}.cls-3{fill:none;stroke:#ccc;opacity:0.5;}.cls-4{opacity:0;mix-blend-mode:overlay;}.cls-5{fill:#f3f3f3;}.cls-6{fill:#e57e7c;stroke:#253031;stroke-miterlimit:10;opacity:0.73;}.cls-7{fill:#253031;}.cls-8{fill:#595959;}</style></defs><title>stats_annotated</title><g class="cls-1"><g id="Layer_4" data-name="Layer 4"><g id="grid"><circle class="cls-2" cx="295.66" cy="300.92" r="54.91"/><circle class="cls-2" cx="295.66" cy="300.92" r="134.51"/><circle class="cls-2" cx="295.66" cy="300.92" r="182.12"/><circle class="cls-2" cx="295.66" cy="300.92" r="219.65"/><circle class="cls-2" cx="295.66" cy="300.92" r="251.64"/><circle class="cls-2" cx="295.66" cy="300.92" r="280"/><line class="cls-3" x1="295.66" y1="300.92" x2="575.66" y2="300.92"/><line class="cls-3" x1="295.66" y1="300.92" x2="435.66" y2="543.4"/><line class="cls-3" x1="295.66" y1="300.92" x2="155.66" y2="543.4"/><line class="cls-3" x1="295.66" y1="300.92" x2="15.66" y2="300.92"/><line class="cls-3" x1="295.66" y1="300.92" x2="155.66" y2="58.43"/><line class="cls-3" x1="295.66" y1="300.92" x2="435.66" y2="58.43"/><g class="cls-4"><circle class="cls-5" cx="295.66" cy="300.92" r="54.91"/><circle class="cls-5" cx="295.66" cy="300.92" r="134.51"/><circle class="cls-5" cx="295.66" cy="300.92" r="182.12"/><circle class="cls-5" cx="295.66" cy="300.92" r="219.65"/><circle class="cls-5" cx="295.66" cy="300.92" r="251.64"/><circle class="cls-5" cx="295.66" cy="300.92" r="280"/><line class="cls-5" x1="295.66" y1="300.92" x2="435.66" y2="543.4"/><line class="cls-5" x1="295.66" y1="300.92" x2="155.66" y2="543.4"/><line class="cls-5" x1="295.66" y1="300.92" x2="155.66" y2="58.43"/><line class="cls-5" x1="295.66" y1="300.92" x2="435.66" y2="58.43"/></g></g><path class="cls-6" d="M436.74,300.92l-61,138.64L225.13,423.09,154.59,300.92l70.54-122.18,156.92-27.45,54.69,149.63"/><path class="cls-6" d="M369.34,300.92l-28.56,78.14-100,17-40.2-95.11L237.42,200l131.92-26.72V300.92"/><path class="cls-7" d="M289.12,31.84a6.08,6.08,0,0,1-.6,2.7,6.14,6.14,0,0,1-1.62,2.09A7.42,7.42,0,0,1,284.53,38a8.86,8.86,0,0,1-2.9.47H269.5V12.87h12.71a5.1,5.1,0,0,1,2.41.57,6.09,6.09,0,0,1,1.83,1.5A6.59,6.59,0,0,1,287.62,17a6.9,6.9,0,0,1,.42,2.35,6.78,6.78,0,0,1-1,3.53,5.79,5.79,0,0,1-2.71,2.41,6.44,6.44,0,0,1,3.47,2.4A6.8,6.8,0,0,1,289.12,31.84ZM272.74,15.68v8.53h8.13a3.78,3.78,0,0,0,1.59-.34A4.05,4.05,0,0,0,283.7,23a4.63,4.63,0,0,0,.83-1.35,4.5,4.5,0,0,0,.3-1.64,5,5,0,0,0-.28-1.69,4.46,4.46,0,0,0-.78-1.37,3.49,3.49,0,0,0-2.68-1.22Zm13.1,15.58a4.78,4.78,0,0,0-.3-1.67,5.1,5.1,0,0,0-.83-1.42,3.9,3.9,0,0,0-1.24-1,3.51,3.51,0,0,0-1.59-.36h-9.14v8.78h8.89a3.84,3.84,0,0,0,1.66-.36,4.82,4.82,0,0,0,1.33-.95,4.38,4.38,0,0,0,1.22-3.05Z"/><path class="cls-7" d="M298,38.79a6.75,6.75,0,0,1-2.48-.45,6.26,6.26,0,0,1-2-1.24,5.87,5.87,0,0,1-1.33-1.86,5.42,5.42,0,0,1-.49-2.32,4.83,4.83,0,0,1,.58-2.36,5.35,5.35,0,0,1,1.64-1.82,8.16,8.16,0,0,1,2.52-1.18,11.06,11.06,0,0,1,3.18-.44,15.64,15.64,0,0,1,2.78.26,12.19,12.19,0,0,1,2.48.68V26.55a4.53,4.53,0,0,0-5-4.93,10.54,10.54,0,0,0-6,2.19l-1-2a13,13,0,0,1,7.31-2.45,8,8,0,0,1,5.78,2A7.36,7.36,0,0,1,308,26.87v7.67c0,.74.33,1.13,1,1.15v2.74l-.82.11q-.33,0-.69,0A2,2,0,0,1,306,38a2.29,2.29,0,0,1-.67-1.35l-.07-1.33a8.11,8.11,0,0,1-3.19,2.58A9.86,9.86,0,0,1,298,38.79Zm.83-2.38a7.84,7.84,0,0,0,3.15-.63,5.3,5.3,0,0,0,2.22-1.67,2,2,0,0,0,.68-1.41V29.93a13.06,13.06,0,0,0-4.79-.9,6.82,6.82,0,0,0-3.87,1,3,3,0,0,0-1.49,2.63,3.58,3.58,0,0,0,.3,1.47,3.43,3.43,0,0,0,.87,1.19,4,4,0,0,0,1.31.79A4.32,4.32,0,0,0,298.8,36.41Z"/><path class="cls-7" d="M319.68,38.79a14.79,14.79,0,0,1-4.46-.7,10.9,10.9,0,0,1-3.78-2l1.36-2.12a13.37,13.37,0,0,0,3.32,1.89,9.69,9.69,0,0,0,3.49.63,5.78,5.78,0,0,0,3.26-.81,2.6,2.6,0,0,0,1.2-2.29,2.14,2.14,0,0,0-.32-1.17,2.8,2.8,0,0,0-1-.84,8.09,8.09,0,0,0-1.66-.65c-.67-.19-1.45-.4-2.34-.61-1.13-.29-2.1-.57-2.92-.83a8.19,8.19,0,0,1-2-.94A3.27,3.27,0,0,1,312.7,27a4.38,4.38,0,0,1-.36-1.88,5.2,5.2,0,0,1,2.08-4.33,6.71,6.71,0,0,1,2.29-1.12,10.3,10.3,0,0,1,2.83-.38,11.21,11.21,0,0,1,4,.69,9.53,9.53,0,0,1,3.09,1.8l-1.44,1.9a8.21,8.21,0,0,0-2.66-1.56,9,9,0,0,0-3-.52,5.52,5.52,0,0,0-2.93.73,2.58,2.58,0,0,0-1.21,2.36,2.21,2.21,0,0,0,.24,1.08,2,2,0,0,0,.77.76,6,6,0,0,0,1.39.57c.56.17,1.24.35,2,.54,1.25.29,2.34.59,3.26.89a9.31,9.31,0,0,1,2.3,1.06,4.06,4.06,0,0,1,1.37,1.44,4.15,4.15,0,0,1,.45,2,5,5,0,0,1-2,4.18A8.74,8.74,0,0,1,319.68,38.79Z"/><path class="cls-7" d="M330.88,16.11v-4H334v4Zm0,22.32V19.64H334V38.43Z"/><path class="cls-7" d="M337.9,29a10.23,10.23,0,0,1,.68-3.75,9.09,9.09,0,0,1,4.95-5.16,9.48,9.48,0,0,1,3.91-.78,9.19,9.19,0,0,1,4.84,1.24,8.16,8.16,0,0,1,3.08,3.33l-3.1,1a5.1,5.1,0,0,0-2-2.07,5.62,5.62,0,0,0-2.88-.74,5.87,5.87,0,0,0-4.42,2,7.07,7.07,0,0,0-1.32,2.19,7.76,7.76,0,0,0-.48,2.78,7.52,7.52,0,0,0,.5,2.77A7.66,7.66,0,0,0,343,34a6.15,6.15,0,0,0,2,1.49,5.61,5.61,0,0,0,2.43.54,6.13,6.13,0,0,0,1.64-.23,6.51,6.51,0,0,0,1.47-.63,5.41,5.41,0,0,0,1.17-.92,3.09,3.09,0,0,0,.72-1.13l3.1.93A6.64,6.64,0,0,1,354.29,36a7.47,7.47,0,0,1-1.81,1.48,10.37,10.37,0,0,1-2.33,1,9.8,9.8,0,0,1-2.68.36,9.38,9.38,0,0,1-8.87-6A10.13,10.13,0,0,1,337.9,29Z"/><path class="cls-7" d="M374.79,38.79a14.79,14.79,0,0,1-4.46-.7,11.09,11.09,0,0,1-3.78-2l1.37-2.12a13.32,13.32,0,0,0,3.31,1.89,9.73,9.73,0,0,0,3.49.63,5.76,5.76,0,0,0,3.26-.81,2.61,2.61,0,0,0,1.21-2.29,2.06,2.06,0,0,0-.33-1.17,2.71,2.71,0,0,0-1-.84,7.66,7.66,0,0,0-1.66-.65c-.67-.19-1.45-.4-2.34-.61-1.12-.29-2.1-.57-2.91-.83a8.11,8.11,0,0,1-2-.94A3.27,3.27,0,0,1,367.81,27a4.38,4.38,0,0,1-.36-1.88,5.48,5.48,0,0,1,.56-2.5,5.21,5.21,0,0,1,1.53-1.83,6.75,6.75,0,0,1,2.28-1.12,10.3,10.3,0,0,1,2.83-.38,11.13,11.13,0,0,1,4,.69,9.58,9.58,0,0,1,3.1,1.8l-1.44,1.9a8.26,8.26,0,0,0-2.67-1.56,8.92,8.92,0,0,0-3-.52,5.58,5.58,0,0,0-2.94.73,2.57,2.57,0,0,0-1.2,2.36,2.33,2.33,0,0,0,.23,1.08,2.11,2.11,0,0,0,.78.76,6,6,0,0,0,1.38.57c.57.17,1.24.35,2,.54,1.24.29,2.33.59,3.25.89a9.22,9.22,0,0,1,2.31,1.06,3.79,3.79,0,0,1,1.82,3.45,5,5,0,0,1-2,4.18A8.72,8.72,0,0,1,374.79,38.79Z"/><path class="cls-7" d="M395.71,37.49c-.19.1-.44.21-.76.34a10.38,10.38,0,0,1-1.06.4,9,9,0,0,1-1.29.32,7.77,7.77,0,0,1-1.46.13,4.85,4.85,0,0,1-3-1,3.5,3.5,0,0,1-1.26-3V22.12h-2.56V19.64h2.56V13.37h3.17v6.27h4.21v2.48h-4.21V33.78a2,2,0,0,0,.68,1.52,2.32,2.32,0,0,0,1.44.46,4.65,4.65,0,0,0,1.71-.3A7.64,7.64,0,0,0,395,35Z"/><path class="cls-7" d="M403.49,38.79a6.8,6.8,0,0,1-2.49-.45,6.37,6.37,0,0,1-2-1.24,6,6,0,0,1-1.33-1.86,5.57,5.57,0,0,1-.48-2.32,4.93,4.93,0,0,1,.57-2.36,5.45,5.45,0,0,1,1.64-1.82,8.39,8.39,0,0,1,2.52-1.18,11.08,11.08,0,0,1,3.19-.44,15.53,15.53,0,0,1,2.77.26,12.19,12.19,0,0,1,2.48.68V26.55a5,5,0,0,0-1.29-3.62,4.93,4.93,0,0,0-3.68-1.31,10.53,10.53,0,0,0-6,2.19l-1.05-2a13,13,0,0,1,7.31-2.45,8,8,0,0,1,5.78,2,7.36,7.36,0,0,1,2.07,5.58v7.67c0,.74.34,1.13,1,1.15v2.74l-.83.11c-.22,0-.45,0-.68,0a2,2,0,0,1-1.5-.56,2.28,2.28,0,0,1-.66-1.35l-.08-1.33a8.16,8.16,0,0,1-3.18,2.58A9.93,9.93,0,0,1,403.49,38.79Zm.82-2.38a7.84,7.84,0,0,0,3.15-.63,5.24,5.24,0,0,0,2.22-1.67,2,2,0,0,0,.68-1.41V29.93a13,13,0,0,0-4.79-.9,6.82,6.82,0,0,0-3.87,1,3.06,3.06,0,0,0-1.49,2.63,3.58,3.58,0,0,0,1.17,2.66,4,4,0,0,0,1.31.79A4.39,4.39,0,0,0,404.31,36.41Z"/><path class="cls-7" d="M428.18,37.49c-.19.1-.44.21-.76.34a10.38,10.38,0,0,1-1.06.4,8.69,8.69,0,0,1-1.29.32,7.77,7.77,0,0,1-1.46.13,4.85,4.85,0,0,1-3-1,3.5,3.5,0,0,1-1.26-3V22.12h-2.55V19.64h2.55V13.37h3.17v6.27h4.21v2.48h-4.21V33.78a2,2,0,0,0,.68,1.52,2.32,2.32,0,0,0,1.44.46,4.65,4.65,0,0,0,1.71-.3,7.64,7.64,0,0,0,1.06-.49Z"/><path class="cls-7" d="M437.72,38.79a14.79,14.79,0,0,1-4.46-.7,10.9,10.9,0,0,1-3.78-2l1.36-2.12a13.37,13.37,0,0,0,3.32,1.89,9.69,9.69,0,0,0,3.49.63,5.78,5.78,0,0,0,3.26-.81,2.6,2.6,0,0,0,1.2-2.29,2.14,2.14,0,0,0-.32-1.17,2.8,2.8,0,0,0-1-.84,8.09,8.09,0,0,0-1.66-.65c-.67-.19-1.45-.4-2.34-.61-1.13-.29-2.1-.57-2.91-.83a8.11,8.11,0,0,1-2-.94A3.27,3.27,0,0,1,430.74,27a4.38,4.38,0,0,1-.36-1.88,5.35,5.35,0,0,1,.56-2.5,5.29,5.29,0,0,1,1.52-1.83,6.8,6.8,0,0,1,2.29-1.12,10.3,10.3,0,0,1,2.83-.38,11.21,11.21,0,0,1,4,.69,9.53,9.53,0,0,1,3.09,1.8l-1.44,1.9a8.21,8.21,0,0,0-2.66-1.56,9,9,0,0,0-3-.52,5.54,5.54,0,0,0-2.93.73,2.57,2.57,0,0,0-1.2,2.36,2.21,2.21,0,0,0,.23,1.08,2,2,0,0,0,.77.76,6.14,6.14,0,0,0,1.39.57c.56.17,1.24.35,2,.54,1.25.29,2.34.59,3.26.89a9.57,9.57,0,0,1,2.31,1.06,3.81,3.81,0,0,1,1.81,3.45,5,5,0,0,1-2,4.18A8.74,8.74,0,0,1,437.72,38.79Z"/><path class="cls-7" d="M462.49,38.43l-7.42-18.79h3.28l5.94,16,6-16h3l-7.42,18.79Z"/><path class="cls-7" d="M480.78,38.79a6.8,6.8,0,0,1-2.49-.45,6.37,6.37,0,0,1-2-1.24A6,6,0,0,1,475,35.24a5.57,5.57,0,0,1-.48-2.32,4.93,4.93,0,0,1,.57-2.36,5.45,5.45,0,0,1,1.64-1.82,8.39,8.39,0,0,1,2.52-1.18,11.08,11.08,0,0,1,3.19-.44,15.53,15.53,0,0,1,2.77.26,12.19,12.19,0,0,1,2.48.68V26.55a5,5,0,0,0-1.29-3.62,4.93,4.93,0,0,0-3.68-1.31,10.53,10.53,0,0,0-6,2.19l-1-2A13,13,0,0,1,483,19.31a8,8,0,0,1,5.78,2,7.36,7.36,0,0,1,2.07,5.58v7.67c0,.74.34,1.13,1,1.15v2.74l-.83.11c-.22,0-.44,0-.68,0a2,2,0,0,1-1.5-.56,2.28,2.28,0,0,1-.66-1.35l-.08-1.33a8.16,8.16,0,0,1-3.18,2.58A9.93,9.93,0,0,1,480.78,38.79Zm.82-2.38a7.84,7.84,0,0,0,3.15-.63A5.24,5.24,0,0,0,487,34.11a2,2,0,0,0,.68-1.41V29.93a13,13,0,0,0-4.79-.9A6.82,6.82,0,0,0,479,30a3.06,3.06,0,0,0-1.49,2.63,3.58,3.58,0,0,0,1.17,2.66,4,4,0,0,0,1.31.79A4.39,4.39,0,0,0,481.6,36.41Z"/><path class="cls-7" d="M496,12.15h3.17V33.57a2.32,2.32,0,0,0,.55,1.64,2.09,2.09,0,0,0,1.57.59,4,4,0,0,0,.94-.13,6.9,6.9,0,0,0,1-.3l.51,2.55a9.73,9.73,0,0,1-1.87.54,9.48,9.48,0,0,1-1.91.22,4,4,0,0,1-2.9-1A3.91,3.91,0,0,1,496,34.72Z"/><path class="cls-7" d="M512,38.79a5.28,5.28,0,0,1-4.47-2A9.71,9.71,0,0,1,506,30.9V19.64h3.17V30.29q0,5.76,4,5.76a6.09,6.09,0,0,0,3.65-1.24,7.32,7.32,0,0,0,2.54-3.4V19.64h3.17v14.9c0,.74.33,1.13,1,1.15v2.74c-.36,0-.64.07-.84.09l-.6,0a2.28,2.28,0,0,1-1.56-.56,1.93,1.93,0,0,1-.67-1.39l-.07-2.19a8.67,8.67,0,0,1-3.31,3.25A9.12,9.12,0,0,1,512,38.79Z"/><path class="cls-7" d="M536.14,38.79a9.47,9.47,0,0,1-3.88-.78,9,9,0,0,1-3-2.1,9.66,9.66,0,0,1-2-3.12,10.09,10.09,0,0,1-.7-3.76,10,10,0,0,1,.7-3.74,9.56,9.56,0,0,1,2-3.1,9.29,9.29,0,0,1,3-2.1,9.52,9.52,0,0,1,3.89-.78,9.39,9.39,0,0,1,3.87.79,9.26,9.26,0,0,1,3,2.11,9.59,9.59,0,0,1,1.89,3.06,10.15,10.15,0,0,1,.67,3.62c0,.26,0,.5,0,.72a4,4,0,0,1-.06.5H529.92a7.25,7.25,0,0,0,.64,2.56,6.49,6.49,0,0,0,3.37,3.27,5.73,5.73,0,0,0,2.32.47,6.38,6.38,0,0,0,1.69-.23,7.62,7.62,0,0,0,1.55-.63,5.61,5.61,0,0,0,1.28-1,4.23,4.23,0,0,0,.85-1.3l2.73.76a6.83,6.83,0,0,1-1.28,1.9,8.33,8.33,0,0,1-1.87,1.5,9.62,9.62,0,0,1-2.36,1A10,10,0,0,1,536.14,38.79Zm6.45-11a6.7,6.7,0,0,0-.67-2.46,6.61,6.61,0,0,0-1.4-1.93,6.45,6.45,0,0,0-6.72-1.24,6.21,6.21,0,0,0-2,1.26,6.51,6.51,0,0,0-1.37,1.92,7.49,7.49,0,0,0-.63,2.45Z"/><path class="cls-7" d="M555.69,38.79a14.79,14.79,0,0,1-4.46-.7,10.9,10.9,0,0,1-3.78-2l1.36-2.12a13.37,13.37,0,0,0,3.32,1.89,9.69,9.69,0,0,0,3.49.63,5.78,5.78,0,0,0,3.26-.81,2.6,2.6,0,0,0,1.2-2.29,2.14,2.14,0,0,0-.32-1.17,2.8,2.8,0,0,0-1-.84,8.09,8.09,0,0,0-1.66-.65c-.67-.19-1.45-.4-2.34-.61-1.13-.29-2.1-.57-2.91-.83a8.11,8.11,0,0,1-2-.94A3.27,3.27,0,0,1,548.71,27a4.38,4.38,0,0,1-.36-1.88,5.35,5.35,0,0,1,.56-2.5,5.29,5.29,0,0,1,1.52-1.83,6.71,6.71,0,0,1,2.29-1.12,10.3,10.3,0,0,1,2.83-.38,11.21,11.21,0,0,1,4,.69,9.53,9.53,0,0,1,3.09,1.8l-1.44,1.9a8.21,8.21,0,0,0-2.66-1.56,9,9,0,0,0-3-.52,5.52,5.52,0,0,0-2.93.73,2.58,2.58,0,0,0-1.21,2.36,2.21,2.21,0,0,0,.24,1.08,2,2,0,0,0,.77.76,6.14,6.14,0,0,0,1.39.57c.56.17,1.24.35,2,.54,1.25.29,2.34.59,3.26.89a9.57,9.57,0,0,1,2.31,1.06,3.81,3.81,0,0,1,1.81,3.45,5,5,0,0,1-2,4.18A8.74,8.74,0,0,1,555.69,38.79Z"/><path class="cls-7" d="M277.2,82a9.19,9.19,0,0,1-6.86-2.92A9.63,9.63,0,0,1,268.42,76a10.29,10.29,0,0,1,0-7.46,9.69,9.69,0,0,1,1.94-3.09,9.19,9.19,0,0,1,6.82-2.92,9.4,9.4,0,0,1,3.85.79,9.23,9.23,0,0,1,3,2.13A9.69,9.69,0,0,1,286,68.52,10.29,10.29,0,0,1,286,76a9.35,9.35,0,0,1-1.94,3.09A9.28,9.28,0,0,1,277.2,82ZM271,72.3a7.62,7.62,0,0,0,.49,2.74,7.07,7.07,0,0,0,1.33,2.2,6.47,6.47,0,0,0,2,1.47,5.61,5.61,0,0,0,2.43.54,5.54,5.54,0,0,0,2.43-.54,6.46,6.46,0,0,0,2-1.49A6.9,6.9,0,0,0,283,75a7.81,7.81,0,0,0,.49-2.76,7.72,7.72,0,0,0-.49-2.72,6.9,6.9,0,0,0-1.35-2.23,6.46,6.46,0,0,0-2-1.49,5.54,5.54,0,0,0-2.43-.54,5.35,5.35,0,0,0-2.43.56,6.44,6.44,0,0,0-2,1.51,7.11,7.11,0,0,0-1.33,2.23A7.76,7.76,0,0,0,271,72.3Z"/><path class="cls-7" d="M291.24,81.63V65.32h-2.55V62.84h2.55v-.4A8.68,8.68,0,0,1,292.79,57,5.06,5.06,0,0,1,297,55a8.16,8.16,0,0,1,2.2.3,7.6,7.6,0,0,1,1.94.85l-.79,2.34a4.32,4.32,0,0,0-1.24-.58,5.31,5.31,0,0,0-1.46-.21,2.73,2.73,0,0,0-2.41,1.19,6,6,0,0,0-.83,3.45v.51h5v2.48h-5V81.63Z"/><path class="cls-7" d="M309.64,72.2a10.23,10.23,0,0,1,.68-3.75,9.09,9.09,0,0,1,4.95-5.16,9.48,9.48,0,0,1,3.91-.78A9.19,9.19,0,0,1,324,63.75a8.16,8.16,0,0,1,3.08,3.33l-3.1,1A5.1,5.1,0,0,0,322,66a5.62,5.62,0,0,0-2.88-.74,5.87,5.87,0,0,0-4.42,2,7.07,7.07,0,0,0-1.32,2.19,7.76,7.76,0,0,0-.48,2.78,7.52,7.52,0,0,0,.5,2.77,7.66,7.66,0,0,0,1.35,2.25,6.26,6.26,0,0,0,2,1.49,5.61,5.61,0,0,0,2.43.54,6.13,6.13,0,0,0,1.64-.23,6.51,6.51,0,0,0,1.47-.63,5.41,5.41,0,0,0,1.17-.92,3.09,3.09,0,0,0,.72-1.13l3.1.93a6.83,6.83,0,0,1-1.2,1.91,7.71,7.71,0,0,1-1.82,1.48,10.18,10.18,0,0,1-2.33,1,9.8,9.8,0,0,1-2.68.36,9.37,9.37,0,0,1-6.91-2.92,9.61,9.61,0,0,1-2-3.11A10.13,10.13,0,0,1,309.64,72.2Z"/><path class="cls-7" d="M340.78,65.61a8.14,8.14,0,0,0-4.2,1.22A6.24,6.24,0,0,0,334,70V81.63h-3.17V62.84h3v4.35A9,9,0,0,1,336.35,64a6.39,6.39,0,0,1,3.38-1.35h.61a1.89,1.89,0,0,1,.44,0Z"/><path class="cls-7" d="M351.79,82a9.55,9.55,0,0,1-3.89-.78,9.11,9.11,0,0,1-3-2.1,9.66,9.66,0,0,1-2-3.12,10.09,10.09,0,0,1-.7-3.76,10,10,0,0,1,.7-3.74,9.56,9.56,0,0,1,2-3.1,9.19,9.19,0,0,1,3-2.1,10,10,0,0,1,7.76,0,9.26,9.26,0,0,1,3,2.11,9.59,9.59,0,0,1,1.89,3.06,10.14,10.14,0,0,1,.66,3.62c0,.26,0,.5,0,.72a4,4,0,0,1-.06.5H345.56a7.48,7.48,0,0,0,.65,2.56,6.49,6.49,0,0,0,3.37,3.27,5.7,5.7,0,0,0,2.32.47,6.38,6.38,0,0,0,1.69-.23,7.86,7.86,0,0,0,1.55-.63,5.61,5.61,0,0,0,1.28-1,4,4,0,0,0,.84-1.3l2.74.76a6.83,6.83,0,0,1-1.28,1.9,8.33,8.33,0,0,1-1.87,1.5,9.62,9.62,0,0,1-2.36,1A10,10,0,0,1,351.79,82Zm6.45-11a6.9,6.9,0,0,0-.67-2.46,6.61,6.61,0,0,0-1.4-1.93,6.37,6.37,0,0,0-4.34-1.69,6.34,6.34,0,0,0-2.38.45,6.1,6.1,0,0,0-2,1.26,6.51,6.51,0,0,0-1.37,1.92,7,7,0,0,0-.63,2.45Z"/><path class="cls-7" d="M369.58,82a6.8,6.8,0,0,1-2.49-.45,6.37,6.37,0,0,1-2-1.24,5.87,5.87,0,0,1-1.33-1.86,5.57,5.57,0,0,1-.48-2.32,4.93,4.93,0,0,1,.57-2.36,5.45,5.45,0,0,1,1.64-1.82A8.39,8.39,0,0,1,368,70.76a11.08,11.08,0,0,1,3.19-.44,15.53,15.53,0,0,1,2.77.26,12.19,12.19,0,0,1,2.48.68V69.75a4.52,4.52,0,0,0-5-4.93,10.53,10.53,0,0,0-6,2.19L364.46,65a13,13,0,0,1,7.31-2.45,8,8,0,0,1,5.78,2,7.36,7.36,0,0,1,2.07,5.58v7.67c0,.74.34,1.13,1,1.15v2.74l-.83.11c-.22,0-.45,0-.68,0a2,2,0,0,1-1.5-.56,2.28,2.28,0,0,1-.66-1.35l-.08-1.33a8.16,8.16,0,0,1-3.18,2.58A9.93,9.93,0,0,1,369.58,82Zm.82-2.38a7.84,7.84,0,0,0,3.15-.63,5.24,5.24,0,0,0,2.22-1.67,2,2,0,0,0,.68-1.41V73.13a13,13,0,0,0-4.79-.9,6.82,6.82,0,0,0-3.87,1,3.06,3.06,0,0,0-1.49,2.63,3.58,3.58,0,0,0,1.17,2.66,4,4,0,0,0,1.31.79A4.39,4.39,0,0,0,370.4,79.61Z"/><path class="cls-7" d="M394.27,80.69c-.19.1-.44.21-.76.34a10.38,10.38,0,0,1-1.06.4,8.69,8.69,0,0,1-1.29.32,7.77,7.77,0,0,1-1.46.13,4.85,4.85,0,0,1-3-.95,3.5,3.5,0,0,1-1.26-3V65.32H382.9V62.84h2.55V56.57h3.17v6.27h4.21v2.48h-4.21V77a2,2,0,0,0,.68,1.52,2.32,2.32,0,0,0,1.44.46,4.65,4.65,0,0,0,1.71-.3,7.64,7.64,0,0,0,1.06-.49Z"/><path class="cls-7" d="M403,82a5.28,5.28,0,0,1-4.47-2A9.71,9.71,0,0,1,397,74.1V62.84h3.17V73.49q0,5.76,4,5.76A6.09,6.09,0,0,0,407.86,78a7.32,7.32,0,0,0,2.54-3.4V62.84h3.17v14.9c0,.74.33,1.13,1,1.15v2.74c-.37.05-.65.08-.85.09l-.6,0a2.28,2.28,0,0,1-1.56-.56,1.93,1.93,0,0,1-.67-1.39l-.07-2.19a8.67,8.67,0,0,1-3.31,3.25A9.12,9.12,0,0,1,403,82Z"/><path class="cls-7" d="M428.79,65.61a8.13,8.13,0,0,0-4.19,1.22A6.24,6.24,0,0,0,422,70V81.63h-3.17V62.84h2.95v4.35A9,9,0,0,1,424.37,64a6.39,6.39,0,0,1,3.38-1.35h.61a1.8,1.8,0,0,1,.43,0Z"/><path class="cls-7" d="M439.81,82a9.52,9.52,0,0,1-3.89-.78,9.11,9.11,0,0,1-3-2.1,9.49,9.49,0,0,1-2-3.12,10.1,10.1,0,0,1-.71-3.76,10,10,0,0,1,.71-3.74,9.33,9.33,0,0,1,5-5.2,10,10,0,0,1,7.76,0,9.26,9.26,0,0,1,3,2.11,9.59,9.59,0,0,1,1.89,3.06,10.14,10.14,0,0,1,.66,3.62c0,.26,0,.5,0,.72a4.38,4.38,0,0,1-.05.5H433.58a7.26,7.26,0,0,0,.65,2.56,6.62,6.62,0,0,0,1.4,2,6.46,6.46,0,0,0,2,1.29,5.7,5.7,0,0,0,2.32.47,6.44,6.44,0,0,0,1.69-.23,7.86,7.86,0,0,0,1.55-.63,5.83,5.83,0,0,0,1.28-1,4,4,0,0,0,.84-1.3l2.74.76a6.83,6.83,0,0,1-1.28,1.9,8.33,8.33,0,0,1-1.87,1.5,9.78,9.78,0,0,1-2.36,1A10,10,0,0,1,439.81,82Zm6.44-11a6.69,6.69,0,0,0-.66-2.46,6.46,6.46,0,0,0-1.41-1.93,6.11,6.11,0,0,0-2-1.24,6.49,6.49,0,0,0-4.75,0,6.1,6.1,0,0,0-2,1.26,6.34,6.34,0,0,0-1.37,1.92,7,7,0,0,0-.63,2.45Z"/><path class="cls-7" d="M459.36,82a14.9,14.9,0,0,1-4.47-.7,11.09,11.09,0,0,1-3.78-2l1.37-2.12A13.5,13.5,0,0,0,455.79,79a9.78,9.78,0,0,0,3.5.63,5.75,5.75,0,0,0,3.25-.81,2.59,2.59,0,0,0,1.21-2.29,2.14,2.14,0,0,0-.32-1.17,2.75,2.75,0,0,0-1-.84,7.76,7.76,0,0,0-1.65-.65c-.67-.19-1.45-.4-2.34-.61-1.13-.29-2.1-.57-2.92-.83a8,8,0,0,1-2-.94,3.3,3.3,0,0,1-1.16-1.29,4.38,4.38,0,0,1-.36-1.88,5.48,5.48,0,0,1,.56-2.5A5.21,5.21,0,0,1,454.1,64a6.71,6.71,0,0,1,2.29-1.12,10.22,10.22,0,0,1,2.82-.38,11.13,11.13,0,0,1,4,.69,9.48,9.48,0,0,1,3.1,1.8l-1.44,1.9a8.21,8.21,0,0,0-2.66-1.56,9,9,0,0,0-3-.52,5.52,5.52,0,0,0-2.93.73A2.56,2.56,0,0,0,455,67.91a2.21,2.21,0,0,0,.24,1.08,2,2,0,0,0,.77.76,6,6,0,0,0,1.39.57c.56.17,1.24.35,2,.54,1.25.29,2.33.59,3.26.89a9.31,9.31,0,0,1,2.3,1.06,3.79,3.79,0,0,1,1.82,3.45,5,5,0,0,1-2,4.18A8.69,8.69,0,0,1,459.36,82Z"/><path class="cls-7" d="M496.8,55.25a123.59,123.59,0,0,1,9.27,20.47,126.75,126.75,0,0,1,5.57,21.8A99.76,99.76,0,0,1,512.72,120a85.06,85.06,0,0,1-4.47,22.13c-.69,1.76-1.28,3.56-2,5.29l-2.42,5.13a87,87,0,0,1-6,9.66l-1.63,2.32c-.53.79-1.19,1.47-1.78,2.21-1.22,1.44-2.41,2.92-3.67,4.33l-4,4c-.69.65-1.3,1.38-2.05,2l-2.16,1.83c-1.46,1.2-2.87,2.47-4.38,3.6l-4.6,3.3-2.32,1.63-2.42,1.45L464,191.82a28.06,28.06,0,0,1-2.47,1.35L459,194.46,454,197l-10.37,4.42-.38-.92,10.12-4.79c3.25-1.84,6.59-3.49,9.78-5.4l4.72-3,2.36-1.49,2.24-1.65,4.5-3.28c1.48-1.13,2.84-2.39,4.27-3.57,2.91-2.31,5.42-5,8.09-7.61,1.24-1.38,2.43-2.8,3.65-4.2.58-.71,1.24-1.37,1.77-2.13l1.63-2.25a83.79,83.79,0,0,0,6-9.36l2.45-5c.77-1.68,1.37-3.44,2.06-5.16a83.42,83.42,0,0,0,4.67-21.71,100.11,100.11,0,0,0-.78-22.28,125.69,125.69,0,0,0-5.18-21.76,123.38,123.38,0,0,0-8.9-20.55Z"/><polygon class="cls-7" points="430.17 205.91 445.84 191.2 444.34 200.48 451.66 206.38 430.17 205.91"/></g><g id="Layer_7" data-name="Layer 7"><circle class="cls-8" cx="154.65" cy="301.35" r="3.97"/><circle class="cls-8" cx="225.66" cy="179.67" r="3.97"/><circle class="cls-8" cx="381.66" cy="151.29" r="3.97"/><circle class="cls-8" cx="436.74" cy="300.92" r="3.97"/><circle class="cls-8" cx="375.73" cy="439.56" r="3.97"/><circle class="cls-8" cx="225.66" cy="422.16" r="3.97"/><circle class="cls-8" cx="240.75" cy="396.03" r="3.97"/><circle class="cls-8" cx="200.55" cy="300.92" r="3.97"/><circle class="cls-8" cx="236.75" cy="199.92" r="3.97"/><circle class="cls-8" cx="369.34" cy="173.31" r="3.97"/><circle class="cls-8" cx="369.34" cy="300.92" r="3.97"/><circle class="cls-8" cx="340.78" cy="379.06" r="3.97"/></g></g></svg>