<svg xmlns="http://www.w3.org/2000/svg" viewBox="0 0 600 600"><defs><style>.cls-1,.cls-2,.cls-3{isolation:isolate;}.cls-2{fill:#ccc;opacity:0.17;}.cls-3{fill:none;stroke:#ccc;opacity:0.5;}.cls-4{opacity:0;mix-blend-mode:overlay;}.cls-5{fill:#f3f3f3;}.cls-6{fill:#e57e7c;stroke:#253031;stroke-miterlimit:10;opacity:0.73;}.cls-7{font-size:36px;font-family:Raleway-Medium, Raleway;}.cls-16,.cls-7{fill:#253031;}.cls-8{letter-spacing:0em;}.cls-9{letter-spacing:0em;}.cls-10{letter-spacing:-0.03em;}.cls-11{letter-spacing:-0.01em;}.cls-12{letter-spacing:-0.01em;}.cls-13{letter-spacing:-0.02em;}.cls-14{letter-spacing:0em;}.cls-15{letter-spacing:-0.01em;}.cls-17{fill:#595959;}</style></defs><title>stats_annotated</title><g class="cls-1"><g id="Layer_4" data-name="Layer 4"><g id="grid"><circle class="cls-2" cx="295.66" cy="300.92" r="54.91"/><circle class="cls-2" cx="295.66" cy="300.92" r="134.51"/><circle class="cls-2" cx="295.66" cy="300.92" r="182.12"/><circle class="cls-2" cx="295.66" cy="300.92" r="219.65"/><circle class="cls-2" cx="295.66" cy="300.92" r="251.64"/><circle class="cls-2" cx="295.66" cy="300.92" r="280"/><line class="cls-3" x1="295.66" y1="300.92" x2="575.66" y2="300.92"/><line class="cls-3" x1="295.66" y1="300.92" x2="435.66" y2="543.4"/><line class="cls-3" x1="295.66" y1="300.92" x2="155.66" y2="543.4"/><line class="cls-3" x1="295.66" y1="300.92" x2="15.66" y2="300.92"/><line class="cls-3" x1="295.66" y1="300.92" x2="155.66" y2="58.43"/><line class="cls-3" x1="295.66" y1="300.92" x2="435.66" y2="58.43"/><g class="cls-4"><circle class="cls-5" cx="295.66" cy="300.92" r="54.91"/><circle class="cls-5" cx="295.66" cy="300.92" r="134.51"/><circle class="cls-5" cx="295.66" cy="300.92" r="182.12"/><circle class="cls-5" cx="295.66" cy="300.92" r="219.65"/><circle class="cls-5" cx="295.66" cy="300.92" r="251.64"/><circle class="cls-5" cx="295.66" cy="300.92" r="280"/><line class="cls-5" x1="295.66" y1="300.92" x2="435.66" y2="543.4"/><line class="cls-5" x1="295.66" y1="300.92" x2="155.66" y2="543.4"/><line class="cls-5" x1="295.66" y1="300.92" x2="155.66" y2="58.43"/><line class="cls-5" x1="295.66" y1="300.92" x2="435.66" y2="58.43"/></g></g><path class="cls-6" d="M436.74,300.92l-61,138.64L225.13,423.09,154.59,300.92l70.54-122.18,156.92-27.45,54.69,149.63"/><path class="cls-6" d="M369.34,300.92l-28.56,78.14-100,17-40.2-95.11L237.42,200l131.92-26.72V300.92"/><text class="cls-7" transform="translate(266.44 38.43)">Basic st<tspan class="cls-8" x="129.67" y="0">a</tspan><tspan class="cls-9" x="149.47" y="0">ts</tspan><tspan class="cls-10" x="179.92" y="0"> </tspan><tspan class="cls-11" x="188.06" y="0">v</tspan><tspan x="206.96" y="0">alues</tspan><tspan class="cls-12" x="0" y="43.2">o</tspan><tspan class="cls-13" x="21.24" y="43.2">f</tspan><tspan class="cls-14" x="32.8" y="43.2" xml:space="preserve"> c</tspan><tspan class="cls-15" x="61.85" y="43.2">r</tspan><tspan x="74.48" y="43.2">e</tspan><tspan class="cls-8" x="95.76" y="43.2">a</tspan><tspan x="115.56" y="43.2">tu</tspan><tspan class="cls-15" x="149.87" y="43.2">r</tspan><tspan x="162.5" y="43.2">es</tspan></text><path class="cls-16" d="M496.76,55.27a128.5,128.5,0,0,1,14.91,44,98.06,98.06,0,0,1,.52,23.35,83.05,83.05,0,0,1-5.57,22.68,85.39,85.39,0,0,1-5.14,10.53l-3.16,4.95a26.58,26.58,0,0,1-1.73,2.37l-1.78,2.33c-.61.76-1.17,1.57-1.82,2.3L491,170l-2,2.16-1,1.08c-.33.35-.71.66-1.07,1l-4.32,4c-.36.32-.71.67-1.09,1l-1.15.9-2.32,1.8c-6.09,4.92-12.91,8.79-19.75,12.52-3.49,1.74-7,3.35-10.56,5q-5.43,2.18-10.88,4.29l-.11-.29c3.58-1.53,7.17-3,10.76-4.51,3.49-1.72,7-3.37,10.45-5.15l5-2.91a54.77,54.77,0,0,0,5-3l4.82-3.25,1.21-.8,1.15-.89,2.29-1.79,2.29-1.78,1.15-.9c.38-.3.72-.64,1.08-1l4.28-3.92c.35-.33.73-.64,1.06-1l1-1.07,2-2.13,2-2.13c.65-.72,1.2-1.52,1.81-2.27l1.79-2.29a28.68,28.68,0,0,0,1.73-2.33l3.15-4.87a81,81,0,0,0,10.83-32.84,97.52,97.52,0,0,0-.37-23.22A126.23,126.23,0,0,0,506,76.69a124.09,124.09,0,0,0-9.28-21.36Z"/><polygon class="cls-16" points="430.17 205.91 438.1 198.66 437.29 203.29 440.91 206.28 430.17 205.91"/></g><g id="Layer_7" data-name="Layer 7"><circle class="cls-17" cx="154.65" cy="301.35" r="3.97"/><circle class="cls-17" cx="225.66" cy="179.67" r="3.97"/><circle class="cls-17" cx="381.66" cy="151.29" r="3.97"/><circle class="cls-17" cx="436.74" cy="300.92" r="3.97"/><circle class="cls-17" cx="375.73" cy="439.56" r="3.97"/><circle class="cls-17" cx="225.66" cy="422.16" r="3.97"/><circle class="cls-17" cx="240.75" cy="396.03" r="3.97"/><circle class="cls-17" cx="200.55" cy="300.92" r="3.97"/><circle class="cls-17" cx="236.75" cy="199.92" r="3.97"/><circle class="cls-17" cx="369.34" cy="173.31" r="3.97"/><circle class="cls-17" cx="369.34" cy="300.92" r="3.97"/><circle class="cls-17" cx="340.78" cy="379.06" r="3.97"/></g></g></svg>