<svg xmlns="http://www.w3.org/2000/svg" viewBox="0 0 237 68"><defs><style>.cls-1{fill:#c1bbd4;}.cls-2{fill:#998faa;}.cls-3{fill:#fff;}.cls-4{fill:#361b1f;}.cls-5{fill:none;stroke:#361b1f;stroke-linecap:round;stroke-linejoin:round;stroke-width:0.25px;}</style></defs><title>Artboard 2</title><g id="Layer_5" data-name="Layer 5"><path class="cls-1" d="M19.87,18.78C.64,14.35,4,50.13,5.28,60c.81,6.3,10.82,6.38,10,0-.36-2.82-.72-5.79-1-8.8a5,5,0,0,0,1.34,0C31,49.3,37.32,22.8,19.87,18.78ZM15.65,41.21a5.26,5.26,0,0,0-1.58.44A43,43,0,0,1,15,34.22c.64-2.8,3-8.73,5.17-3.17C21.24,33.72,19.15,40.77,15.65,41.21Z"/><path class="cls-1" d="M60.21,26.81a15.53,15.53,0,0,0-20-5.51,4.79,4.79,0,0,0-3.75,2.53,3.93,3.93,0,0,0-1.21,3.53c-2.52,8.61-4,19.82.07,27.71,5,9.72,16.95,6,22.46-1.1C63.66,46.41,65.78,35.13,60.21,26.81ZM48.89,49c-1.72,1.62-3.91,2.78-5.12.34-.86-1.72-.64-4.55-.67-6.42a44.58,44.58,0,0,1,1.83-13.07c3.48-1.75,7.22,1.77,8.18,5.13C54.43,39.63,52.36,45.76,48.89,49Z"/><path class="cls-1" d="M99.15,53.57C94,52.48,90.56,48,87,43.92a20,20,0,0,0,7.13-11.19c1.38-6.29-1.77-12.71-8.78-13-16.92-.78-18.3,28-17.43,39.21.5,6.41,10.48,5.83,10-.61a62.31,62.31,0,0,1,0-9.66C84,54.23,88.22,61.47,97.09,63.35,103.38,64.69,105.45,54.91,99.15,53.57ZM83.4,30.47c1.55-1.11,1.13-.69.7.93a9.71,9.71,0,0,1-3.81,5.18c.14-.43.27-.88.43-1.31C81.32,33.65,81.94,31.51,83.4,30.47Z"/><path class="cls-1" d="M116.41,26v0h0c0-.44-.07-.89-.12-1.33-.57-5.88-9.33-4.34-9.86.94,0,.45-.09.9-.14,1.35a4.57,4.57,0,0,0,.49,2.71c.79,9.22,1.12,18.47,1,27.72,0,6.42,9.94,6.84,10,.39A314.38,314.38,0,0,0,116.41,26Z"/><path class="cls-1" d="M202,38.4c-3.92-3.14-10.14-2.87-14.63-1.38-6.08,2-3.47,11.67,2.66,9.64l.77-.25-.14.1a17.17,17.17,0,0,1-6,2.7c-4.13.93-8.7.22-9.92-4.42-2.38-9,6.39-16.29,14.64-16.2,6.44.07,6.44-9.93,0-10A24.25,24.25,0,0,0,166.13,34c-3.49,9-1.25,20.57,8.54,24.37,9.31,3.61,20.51-.91,26.77-8.15C204.45,46.69,206.26,41.8,202,38.4Z"/><path class="cls-1" d="M154.15,20.5a113.89,113.89,0,0,1-5.59,22.64c-1.41-2.73-2.5-5.66-3.68-8.54-1.75-4.24-3.68-10.86-8.9-11.77-6.66-1.17-8.26,6.35-9.4,11.2A100.64,100.64,0,0,0,124,56c-.07,6.44,9.93,6.45,10,0a87.06,87.06,0,0,1,1.09-13.77c.2-1.21.44-2.41.7-3.62.8,2,1.56,4,2.4,5.9a36.94,36.94,0,0,0,8,12.31c2.11,2,6.47,2,7.85-1a118.64,118.64,0,0,0,9.71-32.69C164.68,16.86,155.05,14.14,154.15,20.5Z"/><path class="cls-1" d="M232.91,48c-.45-5-4.23-8.46-8.46-10.54-1.84-.91-5.75-1.8-6.67-3.83-.63-1.41.15-2.2,1.35-3,1-.66,2.79-.17,2-1,4.5,4.61,11.57-2.46,7.07-7.07-7.6-7.79-21.32,1.53-20.77,11.12.31,5.29,4.46,8.88,8.94,11,1.16.55,6.88,2.4,6.5,4.2-.48,2.29-8.32,1.29-9.56,1-6.25-1.53-8.91,8.11-2.66,9.64C218.88,61.54,234,59.43,232.91,48Z"/><ellipse class="cls-2" cx="10.8" cy="61.78" rx="3.69" ry="2.03"/><ellipse class="cls-2" cx="73.19" cy="60.38" rx="3.69" ry="2.03"/><ellipse class="cls-2" cx="97.56" cy="60.77" rx="3.27" ry="1.77"/><ellipse class="cls-2" cx="112.99" cy="58.98" rx="3.66" ry="2.08"/><ellipse class="cls-2" cx="128.99" cy="57.52" rx="3.66" ry="2.11"/><ellipse class="cls-2" cx="216.96" cy="57.64" rx="5.08" ry="1.69"/><ellipse class="cls-2" cx="149.77" cy="55.7" rx="2.88" ry="1.7"/><ellipse class="cls-2" cx="181.56" cy="57.12" rx="5.52" ry="1.71"/><ellipse class="cls-2" cx="44.84" cy="57.98" rx="5.08" ry="1.81"/><ellipse class="cls-3" cx="23.68" cy="24.29" rx="2.02" ry="5.05" transform="translate(-10.24 23.86) rotate(-45)"/><ellipse class="cls-3" cx="54.13" cy="24.91" rx="2.02" ry="5.05" transform="translate(1.66 53.16) rotate(-53.01)"/><ellipse class="cls-3" cx="88.3" cy="23.97" rx="2.02" ry="4.5" transform="translate(16.02 80.07) rotate(-53.01)"/><ellipse class="cls-3" cx="112.91" cy="23.97" rx="1.86" ry="2.68" transform="translate(49.1 120.16) rotate(-68.43)"/><ellipse class="cls-3" cx="99.26" cy="56.26" rx="1.61" ry="2.68" transform="translate(-5.4 101.69) rotate(-53.01)"/><ellipse class="cls-3" cx="159.85" cy="20.16" rx="1.86" ry="2.68" transform="translate(62.46 148.52) rotate(-60)"/><ellipse class="cls-3" cx="190.04" cy="21.74" rx="1.86" ry="2.68" transform="translate(76.19 175.45) rotate(-60)"/><ellipse class="cls-3" cx="199.38" cy="40.14" rx="1.86" ry="3.66" transform="translate(64.93 192.74) rotate(-60)"/><ellipse class="cls-3" cx="137" cy="26.41" rx="1.86" ry="3.66" transform="translate(45.63 131.85) rotate(-60)"/><ellipse class="cls-3" cx="226.86" cy="42.39" rx="2.04" ry="4.48" transform="translate(47.48 187.6) rotate(-49.57)"/><ellipse class="cls-3" cx="224.96" cy="23.48" rx="1.86" ry="3.66" transform="translate(92.15 206.56) rotate(-60)"/><g id="Layer_9" data-name="Layer 9"><path class="cls-3" d="M14.2,60.16,13.12,52c-.25-1.87-3.23-1.89-3,0l1.08,8.16C11.47,62,14.45,62.06,14.2,60.16Z"/><path class="cls-3" d="M29.32,30.23,29,29.57a1.5,1.5,0,0,0-2-.54,1.52,1.52,0,0,0-.53,2l.34.66a1.5,1.5,0,0,0,2,.54A1.52,1.52,0,0,0,29.32,30.23Z"/><path class="cls-3" d="M15.6,26.39a1.51,1.51,0,0,0-2,.53A11.21,11.21,0,0,0,12,30.26a1.5,1.5,0,0,0,2.88.8,8.74,8.74,0,0,1,1.21-2.63A1.51,1.51,0,0,0,15.6,26.39Z"/><path class="cls-3" d="M42.89,50.8c-1.41-.94-1.64-3-1.88-4.55a1.5,1.5,0,0,0-1.83-1,1.52,1.52,0,0,0-1,1.84c.38,2.46,1.06,4.88,3.24,6.33C43,54.45,44.48,51.87,42.89,50.8Z"/><path class="cls-3" d="M92.17,27.84a1.53,1.53,0,0,0-1.5,1.49v.5a1.5,1.5,0,1,0,3,0v-.5A1.51,1.51,0,0,0,92.17,27.84Z"/><path class="cls-3" d="M73.67,55.83v4.34a1.5,1.5,0,0,0,3,0V55.83A1.5,1.5,0,0,0,73.67,55.83Z"/><path class="cls-3" d="M75.59,34.28a7.75,7.75,0,0,0-.17,4.32c.44,1.87,3.31,1.08,2.88-.8a4.76,4.76,0,0,1,.17-2.72C79.09,33.25,76.21,32.47,75.59,34.28Z"/><path class="cls-3" d="M115.9,29.29c-.13-2.19-3.12-2.21-3,0Q113.75,43.6,114,58a1.5,1.5,0,1,0,3,0Q116.74,43.61,115.9,29.29Z"/><path class="cls-3" d="M140.53,35.33a28,28,0,0,0,3.23,7.38c.71,1.15,3.17-.32,2.45-1.46a25.86,25.86,0,0,1-3-6.86C142.82,33.08,140.16,34,140.53,35.33Z"/><path class="cls-3" d="M161.23,23.19a1.52,1.52,0,0,0-1.66,1.3l-.1.83a1.49,1.49,0,0,0,3,.36l.1-.83A1.5,1.5,0,0,0,161.23,23.19Z"/><path class="cls-3" d="M192,38.47a1.54,1.54,0,0,0-1.84-1,6.27,6.27,0,0,0-4.33,3.44,1.55,1.55,0,0,0,.54,2.05,1.5,1.5,0,0,0,2-.54,3.47,3.47,0,0,1,2.54-2.07A1.52,1.52,0,0,0,192,38.47Z"/><path class="cls-3" d="M174.56,47.94a19.79,19.79,0,0,1-1.1-3.34c-.45-1.87-3.33-1.08-2.88.79A23.51,23.51,0,0,0,172,49.45a1.5,1.5,0,0,0,2,.53A1.52,1.52,0,0,0,174.56,47.94Z"/><path class="cls-3" d="M231.56,47.41a1.49,1.49,0,1,0-2.57,1.5,1.15,1.15,0,0,1,.12.76,1.49,1.49,0,0,0,1.49,1.49,1.53,1.53,0,0,0,1.49-1.49A4,4,0,0,0,231.56,47.41Z"/></g><g id="Layer_10" data-name="Layer 10"><g id="Layer_11" data-name="Layer 11"><path class="cls-1" d="M120,13c0,3.86-3.37,5.58-7.74,5.58S104,16.75,104,12.89s3.46-5.95,7.52-6.45C115.88,5.9,120,9.12,120,13Z"/><ellipse class="cls-3" cx="116.55" cy="9.21" rx="1.11" ry="2.77" transform="translate(39.62 97.25) rotate(-53.37)"/></g><ellipse class="cls-2" cx="112.03" cy="15.57" rx="5.13" ry="2.34"/><circle class="cls-1" cx="116.92" cy="4.3" r="0.81"/><circle class="cls-1" cx="116.46" cy="6.59" r="1.05"/><g id="Layer_12" data-name="Layer 12"><circle class="cls-4" cx="107.45" cy="11.93" r="1.14"/><circle class="cls-4" cx="113.17" cy="13.23" r="1.14"/><circle class="cls-3" cx="107.18" cy="11.5" r="0.28"/><circle class="cls-3" cx="112.92" cy="12.79" r="0.25"/><path class="cls-5" d="M110.86,15.54c-1.23,1-1.57-.36-1.57-.36s-1.31.58-.75-.21"/></g><ellipse class="cls-3" cx="116.92" cy="6.21" rx="0.25" ry="0.41" transform="translate(36.6 91.4) rotate(-49.73)"/><ellipse class="cls-3" cx="117.26" cy="3.93" rx="0.19" ry="0.31" transform="translate(38.46 90.85) rotate(-49.73)"/></g></g></svg>